<?xml version="1.0" encoding="utf-8"?>
<!-- Generator: Adobe Illustrator 26.0.3, SVG Export Plug-In . SVG Version: 6.00 Build 0)  -->
<svg version="1.1" id="Calque_1" xmlns="http://www.w3.org/2000/svg" xmlns:xlink="http://www.w3.org/1999/xlink" x="0px" y="0px"
	 viewBox="0 0 180 180" style="enable-background:new 0 0 180 180;" xml:space="preserve">
<style type="text/css">
	.st0{fill:#129DD8;}
</style>
<path class="st0" d="M91.3,2C42.2,1.3,2.8,41.6,2.9,90c0,48.6,38.8,87.3,85.6,88c49.3,0.8,88-39.3,88.5-86.7
	C177.7,41.5,138,2.7,91.3,2z M90,32.4c5.4,0,9.8,4.4,9.8,9.9c0,5.4-4.4,9.9-9.9,9.9c-5.4,0-9.7-4.5-9.7-10
	C80.2,36.7,84.6,32.4,90,32.4z M133.9,64.1c-5.9,0.7-11.9,1.4-17.8,2.1c-2.3,0.3-4.5,0.5-6.8,0.8c-3.7,0.5-6.1,2.6-6,6.8
	c0.1,5.1,0,10.1,0.1,15.2c0.1,5.8,1,11.4,2.2,17.1c1.2,5.3,2.2,10.7,3.3,16c1.1,5.3,2.2,10.5,3.3,15.8c0.6,2.6-0.7,5-3.1,5.6
	c-2.5,0.7-4.7-0.8-5.5-3.3c-2.1-7.3-4.3-14.6-6.4-21.9c-1.2-4.1-2.4-8.2-3.6-12.3c-0.5-1.6-1.7-2.5-3.3-2.5c-1.6,0-2.8,1-3.2,2.6
	c-2.3,7.8-4.6,15.6-6.8,23.4c-1.1,3.6-2.1,7.2-3.1,10.8c-0.7,2.5-3,3.9-5.4,3.2c-2.4-0.6-3.7-2.9-3.1-5.5c0.1-0.4,0.2-0.8,0.2-1.2
	c0.2-0.5,0.3-1,0.4-1.6c0.5-2.5,1-5,1.5-7.5c1-4.8,2-9.5,2.9-14.2c0.2-0.5,0.3-1,0.4-1.6c0.6-3.1,1.2-6.2,1.9-9.4
	c1-4.9,1.4-9.8,1.5-14.7c0.1-4.7,0-9.3,0-14c0-4-2-6.3-6-6.8C62.9,66,54.7,65,46.4,64c-1.9-0.2-3.3-2-3.2-4c0.1-2.1,1.8-3.7,3.9-3.7
	c7.9,0,15.9,0,23.8,0c20.4,0,40.8,0,61.3,0c0.8,0,1.6-0.1,2.4,0.1c1.8,0.5,3.1,2.2,2.9,4C137.2,62.4,135.7,63.9,133.9,64.1z"/>
</svg>
