<?xml version="1.0" encoding="utf-8"?>
<!-- Generator: Adobe Illustrator 26.0.3, SVG Export Plug-In . SVG Version: 6.00 Build 0)  -->
<svg version="1.1" id="Calque_1" xmlns="http://www.w3.org/2000/svg" xmlns:xlink="http://www.w3.org/1999/xlink" x="0px" y="0px"
	 viewBox="0 0 180 180" style="enable-background:new 0 0 180 180;" xml:space="preserve">
<style type="text/css">
	.st0{fill:#129DD8;}
	.st1{fill:#FDFDFD;}
</style>
<g>
	<path class="st0" d="M2.92,90.04C2.81,41.56,42.21,1.34,91.32,2.01c46.66,0.64,86.38,39.47,85.74,89.36
		c-0.6,47.33-39.23,87.42-88.55,86.67C41.73,177.33,2.93,138.6,2.92,90.04z"/>
	<path class="st1" d="M73.85,111.79c0.61-3.12,1.2-6.25,1.85-9.36c1.02-4.86,1.44-9.78,1.51-14.73c0.06-4.66,0.02-9.31,0.01-13.97
		c0-4.03-2.04-6.34-6.01-6.8c-8.28-0.97-16.56-1.92-24.84-2.88c-1.89-0.22-3.35-2.02-3.24-4.02c0.11-2.08,1.77-3.66,3.87-3.66
		c7.94,0,15.89,0.02,23.83,0.02c20.42,0,40.84,0,61.26,0.01c0.79,0,1.58-0.12,2.38,0.1c1.77,0.48,3.07,2.2,2.93,3.98
		c-0.15,1.88-1.66,3.38-3.51,3.59c-5.94,0.68-11.88,1.39-17.81,2.08c-2.27,0.26-4.54,0.48-6.81,0.78c-3.65,0.48-6.11,2.64-6.05,6.77
		c0.08,5.06-0.04,10.12,0.06,15.18c0.11,5.77,0.96,11.44,2.18,17.08c1.16,5.32,2.19,10.68,3.28,16.02
		c1.08,5.27,2.15,10.54,3.28,15.79c0.56,2.61-0.68,4.95-3.06,5.58c-2.49,0.65-4.73-0.75-5.48-3.34c-2.11-7.3-4.26-14.59-6.4-21.88
		c-1.2-4.1-2.39-8.21-3.59-12.31c-0.47-1.59-1.73-2.51-3.31-2.48c-1.6,0.04-2.79,1.01-3.25,2.57c-2.27,7.79-4.56,15.57-6.83,23.35
		c-1.06,3.61-2.11,7.22-3.15,10.84c-0.74,2.55-2.99,3.89-5.44,3.24c-2.35-0.62-3.65-2.95-3.06-5.48c0.09-0.39,0.16-0.79,0.24-1.18
		c0.17-0.51,0.27-1.04,0.37-1.57c0.49-2.5,0.96-5.01,1.48-7.51c0.97-4.75,1.96-9.5,2.94-14.24
		C73.7,112.86,73.78,112.32,73.85,111.79z"/>
	<path class="st1" d="M90.05,32.37c5.42,0.01,9.79,4.44,9.77,9.91c-0.02,5.37-4.36,9.94-9.9,9.9c-5.38-0.04-9.74-4.5-9.72-9.98
		C80.23,36.72,84.6,32.37,90.05,32.37z"/>
</g>
</svg>
