<?xml version="1.0" encoding="utf-8"?>
<!-- Generator: Adobe Illustrator 26.0.3, SVG Export Plug-In . SVG Version: 6.00 Build 0)  -->
<svg version="1.1" id="Calque_1" xmlns="http://www.w3.org/2000/svg" xmlns:xlink="http://www.w3.org/1999/xlink" x="0px" y="0px"
	 viewBox="0 0 220 220" style="enable-background:new 0 0 220 220;" xml:space="preserve">
<style type="text/css">
	.st0{display:none;}
	.st1{display:inline;fill-rule:evenodd;clip-rule:evenodd;fill:#EC5990;stroke:#FFFFFF;stroke-width:17;}
	.st2{display:inline;fill-rule:evenodd;clip-rule:evenodd;fill:#FFFFFF;}
	.st3{fill:#F9DC3E;}
</style>
<g class="st0">
	<path class="st1" d="M166.56,17.92c10.08,0,19.21,4.09,25.81,10.69s10.69,15.73,10.69,25.81l0,0v111.99
		c0,10.08-4.09,19.21-10.69,25.81c-6.84,6.86-16.13,10.7-25.81,10.69l0,0H53.57c-10.08,0-19.21-4.09-25.81-10.69
		s-10.69-15.73-10.69-25.81l0,0V54.42c0-10.08,4.09-19.21,10.69-25.81c6.84-6.86,16.13-10.7,25.81-10.69l0,0H166.56z"/>
	<path class="st2" d="M143.95,63.02h-20.87c-1.53-4.77-5.98-8-11.01-8s-9.48,3.24-11.01,8H80.18c-8.22,0-14.89,6.63-14.89,14.81
		v77.18c0,8.18,6.67,14.81,14.89,14.81h63.77c8.22,0,14.89-6.63,14.89-14.81V77.83C158.84,69.65,152.17,63.02,143.95,63.02
		L143.95,63.02z M102.11,65.71c0.65,0.02,1.22-0.43,1.35-1.06c0.89-4.05,4.49-6.93,8.65-6.93s7.76,2.88,8.65,6.93
		c0.14,0.63,0.71,1.08,1.35,1.06h7.28v8.82c0,2.23-1.82,4.04-4.06,4.04H98.87c-2.24,0-4.06-1.81-4.06-4.04v-8.82H102.11
		L102.11,65.71z M156.13,155.01c0,6.69-5.45,12.12-12.18,12.12H80.18c-6.73,0-12.18-5.43-12.18-12.12V77.83
		c0-6.69,5.45-12.12,12.18-12.12h11.92v8.82c0,3.72,3.03,6.73,6.77,6.73h26.39c3.74,0,6.77-3.01,6.77-6.73v-8.82h11.92
		c6.73,0,12.18,5.43,12.18,12.12L156.13,155.01L156.13,155.01z M141.3,107.03h-23.82c-0.75,0-1.35,0.6-1.35,1.35l0,0
		c0,0.75,0.61,1.35,1.35,1.35l0,0h23.82c0.75,0,1.35-0.6,1.35-1.35l0,0C142.65,107.63,142.04,107.03,141.3,107.03L141.3,107.03
		L141.3,107.03z M106.11,107.03H82.29c-0.75,0-1.35,0.6-1.35,1.35l0,0c0,0.75,0.61,1.35,1.35,1.35l0,0h23.82
		c0.75,0,1.35-0.6,1.35-1.35l0,0C107.46,107.63,106.86,107.03,106.11,107.03L106.11,107.03
		C106.11,107.03,106.11,107.03,106.11,107.03z M141.37,139.62h-23.89c-0.75,0-1.35,0.6-1.35,1.35l0,0c0,0.75,0.61,1.35,1.35,1.35
		l0,0h23.89c0.75,0,1.35-0.6,1.35-1.35l0,0C142.72,140.22,142.11,139.62,141.37,139.62L141.37,139.62L141.37,139.62L141.37,139.62z
		 M106.18,139.62H82.29c-0.75,0-1.35,0.6-1.35,1.35l0,0c0,0.75,0.61,1.35,1.35,1.35l0,0h23.89c0.75,0,1.35-0.6,1.35-1.35l0,0
		C107.53,140.22,106.92,139.62,106.18,139.62L106.18,139.62C106.18,139.62,106.18,139.62,106.18,139.62z"/>
</g>
<g>
	<path d="M150.33,85.27l-0.05-0.47l-0.76,0.06l0.05,0.47L150.33,85.27L150.33,85.27z M155.44,97.54l0.02,0.26l0.53-0.05
		c-0.02-0.16,0.05-0.42,0.16-0.74l-0.05-0.47C155.87,96.56,155.65,96.9,155.44,97.54L155.44,97.54z M135.52,113
		c-0.03-0.44-1.39-2.13-4.07-5.12c-0.05-0.55,0.87-1.37,2.76-2.45l5.39-4.7c1.21-1.53,1.92-4.02,2.13-7.48l-0.06-0.79
		c-0.21-2.39-1.94-4.31-5.22-5.78c-1.94-1.31-5.43-2.04-10.47-2.16c-4.17,0.36-9.61,1.84-16.31,4.47c-1.84,1.32-3.94,2.65-6.3,3.97
		l0.03,0.4c0.15-0.02,0.37-0.1,0.63-0.27c0.27-0.03,0.44,0.1,0.45,0.36l0.4-0.21l0.19-0.02l0.02,0.18c0.02,0.21-1.44,1.36-4.38,3.41
		l0.23,0.42l-0.19,0.02l-0.48-0.18c0.02,0.15-0.19,0.24-0.6,0.27l0.02,0.18l0.47,0.58c-0.15,0.02-0.37-0.05-0.68-0.16
		c-0.68,0.06-1.34,0.42-2,1.1l0.27-1.2c0.98-4.25,1.66-8.01,2.02-11.27l-0.05-0.21c-0.68-0.44-1.34-1.05-1.95-1.83
		c0.02-0.5,0.02-0.79,0-0.86l-0.05-0.18l-0.19,0.05c-2.13,3.2-6.23,8.66-12.32,16.38c-4.64,5.49-7.03,8.54-7.17,9.16
		c-1.89,1.95-2.79,3.13-2.7,3.54c-0.5,0.32-0.71,0.65-0.63,1c-0.15,0.03-0.24-0.02-0.27-0.16c-0.81,1.31-2,2.15-3.6,2.52l-1.68,0.39
		c-0.23,0.05-0.34,0.21-0.32,0.48l0.05,0.21l0.63-0.15l0.05,0.18l-1.42,0.55l-2.52,0.58l-1.32,0.08c-0.19,0.19,1.05-0.02,0.57,0.1
		l-1.65,0.39c-1,0.23-1.55,0.15-1.65-0.26l-0.19,0.05c0.03,0.18,0.05,0.31,0.02,0.42l-0.1-0.4l-1.32,0.31
		c-0.1-0.61-1.89-2.84-5.36-6.69c-0.06-0.74,1.16-1.83,3.67-3.23l7.07-6.22c1.58-2.03,2.52-5.3,2.83-9.79l-0.1-1.05
		c-0.27-3.17-2.57-5.72-6.88-7.69c-2.55-1.73-7.14-2.65-13.76-2.79c-5.49,0.47-12.66,2.42-21.48,5.83c-2.42,1.76-5.18,3.5-8.29,5.23
		l0.05,0.55c0.21-0.02,0.48-0.13,0.82-0.32c0.36-0.03,0.55,0.13,0.58,0.45l0.55-0.31l0.27-0.02l0.02,0.26
		c0.02,0.26-1.91,1.76-5.8,4.51l0.31,0.48l-0.27,0.02l-0.6-0.21c0.02,0.16-0.26,0.27-0.82,0.32l0.03,0.29l0.65,0.71
		c-0.21,0.02-0.5-0.05-0.87-0.18c-1.26,0.11-2.49,1.02-3.7,2.73l0.31,0.48c1.05-0.97,1.66-1.45,1.84-1.47l0.06,0.79
		c-0.18,0.02-0.45,0.13-0.82,0.32l0.66,1c1.28-1.37,2.68-2.55,4.22-3.54c0.76,0.19,1.16,0.44,1.18,0.69l0.58-0.05
		c4.17-3.09,8.29-5.31,12.37-6.69l0.05,0.55c-0.76,1.13-1.28,1.71-1.55,1.74c0.03,0.39,0.16,0.73,0.4,1.02
		c0.06,0.69-1.79,5.38-5.56,14.04c-8.54,20.13-15.72,35.02-21.55,44.64c0.02,0.19,0.13,0.45,0.34,0.78
		c1.44-0.34,2.34-0.69,2.73-1.03l0.31-0.03l0.05,0.55l0.53-0.05l0.55-0.31c0.02,0.16,0.19,0.24,0.57,0.21L6.19,156
		c0.05,0.53-0.26,1.34-0.9,2.46c-0.58,0.66-1.21,2.05-1.87,4.17l0.02,0.26l0.53-0.05c2.33-2.6,4.09-5.15,5.3-7.64
		c6.78-1.99,11.95-3.94,15.54-5.86c3.6-0.31,6.35-1.26,8.22-2.83l-0.03-0.29l-1.36,0.4l-0.31,0.03l-0.03-0.29
		c2.65-0.4,4.47-0.99,5.49-1.79c5.15-3.97,9.05-6.78,11.68-8.45c5.41-3.97,8.93-7.85,10.53-11.61c0.29-0.06,0.58-0.13,0.9-0.21
		c0.76-0.03,1.18-0.05,1.29-0.08c-0.03-0.15,0.03-0.23,0.18-0.26c1.21-0.13,0.63,0.08,1.41-0.1l2.03-0.47
		c-0.13,0.03-0.18,0.1-0.15,0.23l0.31-0.19c-0.06,0-0.11-0.02-0.16-0.03l0.34-0.08l-0.16,0.1c0.23,0.03,0.47,0.02,0.74-0.05
		l0.15,0.6l-9.25,14.71l-2.05,2.57l-1,3.36l0.19-0.05l1-0.42l-0.32,1.31l0.1,0.39l0.27,0.34c-0.13,0.03-0.18,0.11-0.15,0.26
		l0.05,0.21l0.42-0.1c0.61-0.53,0.87-1.02,0.78-1.45c0.66,0.11,1.1,0.16,1.32,0.1l0.05,0.21c-0.4,0.1-0.61,0.42-0.65,0.97l0.05,0.21
		l0.23-0.05c3.36-3.67,11.6-16.22,18.2-24.73c-0.21-0.92,3.23-2.2,10.34-3.84l0.23-0.05c0.26,1.11-0.29,3.81-1.65,8.09
		c-0.87,2.58-1.29,4.01-1.23,4.23c-1.13,3.44-1.66,5.3-1.6,5.59l-2.52,8.25c-1.63,4.23-2.87,8.67-3.75,13.36
		c0.15-0.03,0.37-0.02,0.69,0.06l0.35-0.31c0.03,0.15,0.13,0.19,0.27,0.16l-0.15-0.6l1.1-0.03c0.32-0.08,0.6-0.48,0.82-1.23
		c-0.05-1.11,0.18-1.71,0.68-1.84c0.68-2.65,1.1-3.97,1.24-4.02c0.63-2.63,1.1-4.13,1.4-4.51c0.95-3.42,1.65-5.18,2.1-5.3l0.1,0.42
		l-0.69,1.79c-1.21,5.38-2.44,9.63-3.68,12.74l0.36,1.55l0.23-0.05c3-6.46,7.33-19.25,12.97-38.38c0.16-1.68,0.97-2.99,2.41-3.91
		l-0.32-0.34l-0.05-0.18c0.65-0.15,1.1-0.4,1.36-0.76c-0.03-0.15-0.6-0.36-1.7-0.65l2.81-12.05c0.61-0.55,0.97-0.84,1.08-0.84
		l0.05,0.61c-0.15,0.02-0.37,0.1-0.63,0.27l0.53,0.76c0.97-1.05,2.02-1.95,3.17-2.71c0.58,0.16,0.87,0.36,0.9,0.55l0.42-0.03
		c3.2-2.34,6.33-4.02,9.42-5.04l0.03,0.4c-0.57,0.86-0.95,1.29-1.16,1.31c0.03,0.29,0.11,0.55,0.26,0.78
		c0.05,0.53-1.34,4.09-4.18,10.68c-6.49,15.26-11.94,26.55-16.36,33.89c0.02,0.15,0.11,0.34,0.29,0.6c1.08-0.26,1.78-0.53,2.05-0.79
		l0.19-0.02l0.03,0.4l0.45-0.03l0.4-0.21c0.02,0.11,0.16,0.16,0.44,0.15l0.03,0.44c0.03,0.39-0.19,1-0.69,1.84
		c-0.47,0.5-0.95,1.55-1.47,3.15l0.02,0.21l0.42-0.03c1.76-1.97,3.1-3.91,4.02-5.81c5.15-1.52,9.08-2.99,11.79-4.44
		c2.76-0.24,4.85-0.95,6.27-2.15l-0.02-0.21l-1.05,0.31l-0.23,0.02l-0.02-0.21c2-0.29,3.41-0.74,4.17-1.34
		c3.91-3,6.86-5.15,8.87-6.41C132.97,121.54,135.88,117.18,135.52,113L135.52,113z M134.46,113.27l0.15,1.63
		c-0.19,0.4-0.4,0.61-0.6,0.63l-0.24-2.78C134.21,112.92,134.44,113.08,134.46,113.27L134.46,113.27z M12.15,100.13l-0.27,0.02
		l-0.05-0.5l1.11-0.1l0.02,0.26C12.78,99.82,12.51,99.92,12.15,100.13L12.15,100.13z M6.71,154.57c-0.65-0.29-1.23-0.4-1.73-0.36
		l-0.06-0.79c-0.03-0.31,0.15-0.52,0.53-0.6c0.36-0.03,0.57,0.23,0.6,0.74c0.94-1.15,1.45-1.73,1.55-1.74l0.6,0.24
		C8,153.69,7.5,154.51,6.71,154.57L6.71,154.57z M64.87,93.73c-0.27,0.03-0.82-0.82-1.62-2.52l-0.05-0.5
		c0.52-0.05,1.05,0.79,1.62,2.52L64.87,93.73L64.87,93.73z M64.1,87.71l-0.23,0.53l-7.9-3.29C61.24,85.12,63.95,86.04,64.1,87.71
		L64.1,87.71z M30.74,116.34l-1.11,0.1l-0.05-0.5l1.11-0.1L30.74,116.34L30.74,116.34z M29.84,99.14l0.27-0.02l0.06,0.79
		c-0.26,0.02-0.6,0.4-1.02,1.15l-0.05-0.55C29.61,99.92,29.87,99.46,29.84,99.14L29.84,99.14z M27.5,104.66l0.1,1.05l-0.27,0.02
		l-0.1-1.05L27.5,104.66L27.5,104.66z M26.27,106.64l0.53-0.05c-0.05,0.87-0.29,1.34-0.73,1.37l-0.27,0.02
		C26.14,107.39,26.3,106.94,26.27,106.64L26.27,106.64z M25.35,109.38l0.31-0.03l0.02,0.26l-0.5,0.84l-0.53,0.05l-0.02-0.26
		C25.16,110.19,25.4,109.91,25.35,109.38L25.35,109.38z M24.45,111.85l-0.16,1.32l-0.27,0.02l-0.11-1.31L24.45,111.85L24.45,111.85z
		 M15.38,137.61c-0.36,1.81-0.74,2.73-1.15,2.76l-0.02-0.26C14.12,139.23,14.51,138.39,15.38,137.61L15.38,137.61z M13.72,141.22
		l0.02,0.26c0.03,0.36-0.13,0.57-0.48,0.58l-0.02-0.26C13.2,141.49,13.37,141.3,13.72,141.22L13.72,141.22z M13.24,148.69l0.84-0.08
		l0.03,0.29c-0.21,0.02-0.48,0.13-0.82,0.32l-0.53,0.05C12.72,149,12.9,148.79,13.24,148.69L13.24,148.69L13.24,148.69z
		 M37.14,141.31c-4.72,2.33-7.49,3.91-8.32,4.73c-5.1,1.78-7.64,2.88-7.59,3.31c-4.54,1.79-7.53,3.12-8.96,3.94
		c-0.34,0.03-0.82-0.1-1.47-0.39c-0.08-0.92,0.34-1.66,1.23-2.26c0.79-0.06,1.55,0.05,2.28,0.35c0.84-0.44,2.31-0.92,4.39-1.44
		l-0.05-0.55l-1.68,0.15c0.21-0.29,1.82-1.05,4.86-2.28l0.84-0.08l0.02,0.26c-1.44,0.13-2.23,0.55-2.41,1.31
		c0.03,0.34,0.23,0.48,0.58,0.45c1.08-0.68,1.62-1.08,1.6-1.2c2.05-0.39,7.72-3.36,17.01-8.9l0.05,0.5
		C39.53,139.47,38.74,140.15,37.14,141.31L37.14,141.31z M22.89,146c1.36-0.11,2.52-0.66,3.49-1.62c0.39-0.03,0.6,0.11,0.61,0.45
		c-0.66,0.06-1.94,0.61-3.8,1.68l-0.27,0.02L22.89,146L22.89,146z M45.88,128.34l-7.12,5.64c-5.3,3.47-8.14,5.22-8.54,5.25
		c-8.43,4.64-13.68,7.04-15.72,7.22l-0.31,0.03c0.26-0.95,4.01-8.62,11.27-23.06c3.2-0.27,8.24-1.76,15.1-4.47l1.68-0.15
		c3.47-0.31,6.07,0.37,7.79,1.99l0.1,1.05C48.83,125.55,47.41,127.71,45.88,128.34L45.88,128.34z M31.96,120.51l1.15-0.1l0.02,0.26
		l-1.15,0.1L31.96,120.51L31.96,120.51z M48.06,117.78l0.84-0.08c0.78,0.37,1.18,0.69,1.21,0.99l0.02,0.26
		C49.38,119.01,48.69,118.62,48.06,117.78L48.06,117.78z M50.34,104.81c-0.74,0.89-2.78,2.41-6.11,4.54
		c-1.1,0.1-5.18,1.68-12.26,4.78c-0.36-0.16-0.73-0.23-1.13-0.19l-0.05-0.5c-0.08-1.02,0.37-2.29,1.37-3.84
		c0.55-2.91,1.15-4.57,1.81-4.97l5.9-13.26c-0.06-0.82,1.2-1.45,3.78-1.89l0.84-0.08l0.06,0.76c2.54-0.39,4.12-0.61,4.73-0.66
		c4.68-0.4,7.12,0.55,7.32,2.83l0.53-0.05l-0.11-1.34l0.58-0.05c1.37,0.76,2.12,1.68,2.21,2.76c0.06,0.74-0.34,1.66-1.2,2.76
		c-0.35,0.03-0.57-0.23-0.6-0.74l-0.58,0.05l-0.13,1.62c-2.37,3.55-4.1,5.38-5.17,5.48C51.18,104.13,50.58,104.79,50.34,104.81
		L50.34,104.81z M53.95,114.1c-0.48-0.32-0.87-0.47-1.16-0.45l-0.06-0.79l0.53-0.05l1.18,0.69
		C54.49,113.87,54.33,114.07,53.95,114.1L53.95,114.1z M57.7,118.54c0.52,0.21,0.82,0.44,0.89,0.65l-0.26,0.06l0.02,0.02
		c-0.05,0-0.11,0.02-0.16,0.03l-0.39,0.31L57.7,118.54L57.7,118.54z M58.06,120.77l-0.05-0.21l0.68-0.16l0.05,0.21L58.06,120.77
		L58.06,120.77z M59.69,122.59c0.69-0.11,1.03-0.16,2.33-0.45l0.05,0.21l-2.46,0.57C59.64,122.8,59.67,122.69,59.69,122.59
		L59.69,122.59z M62.08,123.61c-1.03,0.1-0.81-0.03-2.46,0.34l-0.05-0.21l2.05-0.66l0.99-0.23l0.1,0.39
		C62.27,123.34,62.6,123.34,62.08,123.61L62.08,123.61z M64.26,123.09c-0.24,0.06-0.44-0.05-0.55-0.32l0.63-0.15
		c0.27-0.06,0.45,0.05,0.52,0.32L64.26,123.09L64.26,123.09z M70.17,116.73l-0.05-0.21l1.02-0.24l0.1,0.39L70.17,116.73
		L70.17,116.73z M76.49,155.46c0.06-0.29,0.08-0.5,0.05-0.65l0.23-0.05c0.27-0.06,0.44,0.03,0.5,0.29l0.05,0.21L76.49,155.46
		L76.49,155.46z M80.91,118.39l-0.45-0.08c-0.73,0.29-1.34,0.5-1.84,0.61l-0.42,0.1c-0.24,0.06-0.44-0.03-0.53-0.29l2.96-0.68
		l0.97-0.45l0.32,0.37C81.44,118.07,81.11,118.22,80.91,118.39L80.91,118.39z M83.19,117.67l-0.05-0.21
		c0.15-0.03,0.34-0.15,0.55-0.36l2.1-0.48l0.05,0.21C84.72,117.1,83.84,117.38,83.19,117.67L83.19,117.67z M83.51,113.42
		c-0.15,0.03-0.34,0.16-0.58,0.36c-0.03-0.15-0.32-0.15-0.87-0.02c-0.1-0.4,1.45-0.97,4.67-1.71l0.45-0.1l0.1,0.39
		C85.01,113,83.75,113.37,83.51,113.42L83.51,113.42z M89.17,107.31c-0.23,2.57-1.13,4.02-2.73,4.39l-0.05-0.21l-1.42,0.55
		l-0.63,0.15c-0.32,0.08-0.61,0.06-0.87-0.02l-0.13-0.57c-0.05-0.21,2-3.05,6.17-8.51l0.48,0.08
		C90.17,103.92,89.89,105.29,89.17,107.31L89.17,107.31z M99.16,98.75l-0.19,0.02l-0.03-0.4l0.84-0.08l0.02,0.21
		C99.65,98.53,99.44,98.61,99.16,98.75L99.16,98.75z M95.04,140.12c-0.48-0.23-0.92-0.32-1.29-0.29l-0.05-0.61
		c-0.02-0.21,0.11-0.36,0.39-0.44c0.27-0.03,0.44,0.16,0.47,0.58c0.69-0.89,1.08-1.34,1.16-1.34l0.44,0.18
		C96,139.42,95.63,140.07,95.04,140.12L95.04,140.12z M139.2,93.92c-0.21,0.02-0.61-0.63-1.24-1.94l-0.03-0.4
		c0.4-0.03,0.82,0.6,1.24,1.89L139.2,93.92L139.2,93.92z M138.62,89.3l-0.19,0.42l-5.98-2.5C136.44,87.35,138.51,88.04,138.62,89.3
		L138.62,89.3z M113.28,111.06l-0.84,0.08l-0.03-0.4l0.84-0.06L113.28,111.06L113.28,111.06z M112.59,97.99l0.23-0.02l0.05,0.61
		c-0.21,0.02-0.47,0.31-0.78,0.87l-0.03-0.4C112.42,98.59,112.6,98.24,112.59,97.99L112.59,97.99z M110.83,102.19l0.06,0.79
		l-0.23,0.02l-0.06-0.79L110.83,102.19L110.83,102.19z M109.87,103.7l0.42-0.03c-0.05,0.68-0.23,1.03-0.53,1.07l-0.23,0.02
		C109.78,104.29,109.89,103.94,109.87,103.7L109.87,103.7z M109.19,105.76l0.19-0.02l0.02,0.21l-0.37,0.65l-0.42,0.03l-0.02-0.21
		C109.03,106.39,109.23,106.17,109.19,105.76L109.19,105.76z M108.52,107.64l-0.15,1.03l-0.19,0.02l-0.08-1.02L108.52,107.64
		L108.52,107.64z M101.62,127.23c-0.27,1.36-0.57,2.05-0.87,2.08l-0.02-0.18C100.68,128.46,100.97,127.81,101.62,127.23
		L101.62,127.23z M100.34,129.96l0.02,0.18c0.03,0.29-0.1,0.45-0.39,0.47l-0.02-0.21C99.94,130.18,100.07,130.04,100.34,129.96
		L100.34,129.96z M99.99,135.64l0.65-0.05l0.02,0.21c-0.15,0.02-0.37,0.1-0.63,0.24l-0.42,0.03
		C99.58,135.85,99.71,135.71,99.99,135.64L99.99,135.64z M118.13,130.04c-3.55,1.76-5.67,2.96-6.33,3.57
		c-3.88,1.36-5.8,2.2-5.77,2.54c-3.44,1.37-5.7,2.36-6.77,2.99c-0.26,0.02-0.63-0.08-1.11-0.31c-0.06-0.69,0.26-1.26,0.94-1.68
		c0.61-0.05,1.2,0.03,1.73,0.26c0.65-0.32,1.76-0.68,3.34-1.08l-0.03-0.4l-1.32,0.1c0.16-0.23,1.41-0.81,3.72-1.74l0.65-0.05
		l0.02,0.18c-1.1,0.1-1.71,0.42-1.84,1c0.02,0.26,0.18,0.39,0.45,0.36c0.81-0.53,1.2-0.84,1.2-0.94c1.55-0.27,5.85-2.54,12.91-6.77
		l0.03,0.4C119.93,128.63,119.34,129.15,118.13,130.04L118.13,130.04z M107.3,133.59c1.05-0.1,1.94-0.5,2.68-1.21
		c0.27-0.03,0.44,0.1,0.45,0.36c-0.48,0.05-1.44,0.45-2.88,1.23l-0.23,0.02L107.3,133.59L107.3,133.59z M124.78,120.17l-5.38,4.33
		c-4.02,2.63-6.2,3.96-6.54,3.99c-6.4,3.52-10.37,5.35-11.94,5.48l-0.23,0.02c0.19-0.73,3.05-6.56,8.58-17.51
		c2.41-0.21,6.22-1.36,11.45-3.42l1.31-0.11c2.63-0.23,4.6,0.29,5.9,1.53l0.06,0.79C127.01,118.04,125.94,119.67,124.78,120.17
		L124.78,120.17z M114.22,114.23l0.84-0.08l0.02,0.21l-0.84,0.08L114.22,114.23L114.22,114.23z M126.44,112.14l0.65-0.05
		c0.6,0.29,0.9,0.55,0.92,0.76l0.02,0.18C127.46,113.08,126.93,112.79,126.44,112.14L126.44,112.14z M128.14,102.31
		c-0.57,0.68-2.1,1.84-4.6,3.46c-0.84,0.08-3.94,1.28-9.3,3.6c-0.26-0.1-0.55-0.13-0.86-0.11l-0.03-0.4
		c-0.06-0.78,0.27-1.74,1.02-2.92c0.42-2.23,0.89-3.47,1.37-3.76l4.51-10.08c-0.05-0.6,0.9-1.08,2.84-1.45l0.65-0.05l0.05,0.61
		c1.91-0.31,3.1-0.48,3.59-0.53c3.55-0.31,5.41,0.4,5.56,2.15l0.42-0.03l-0.08-0.97l0.42-0.03c1.03,0.57,1.58,1.24,1.65,2.05
		c0.05,0.58-0.24,1.29-0.86,2.12c-0.27,0.03-0.44-0.16-0.47-0.58l-0.42,0.03l-0.13,1.21c-1.79,2.73-3.1,4.14-3.92,4.2
		C128.8,101.79,128.35,102.29,128.14,102.31L128.14,102.31z M130.03,109.03l-0.05-0.61l0.42-0.03l0.9,0.55
		c0.02,0.26-0.11,0.4-0.39,0.44C130.53,109.12,130.24,109.01,130.03,109.03L130.03,109.03z M54.84,148.26l-0.42,0.1l-0.36,0.31
		c0.06,0.26,0.23,0.36,0.5,0.29c0.27-0.06,0.39-0.23,0.32-0.48L54.84,148.26L54.84,148.26z M53.24,145.08l0.05,0.21
		c0.27-0.06,0.39-0.23,0.32-0.48l-0.05-0.21C53.31,144.66,53.2,144.82,53.24,145.08L53.24,145.08z M64.61,118.02l0.48-0.11
		l-0.1-0.42l-0.48,0.11L64.61,118.02L64.61,118.02z M211.18,130.33c-4.91,1.1-5.52,0.9-6.56,0.98l0.03,0.4l0.45-0.03l0.24-0.02
		l-0.06-0.05l0.53-0.21c4.86-0.53,5.43-0.34,5.38-0.89L211.18,130.33L211.18,130.33z M184.74,133.83l0.03,0.4h0.06l-0.03-0.4H184.74
		L184.74,133.83z M181.7,123.19l-0.44-0.15c-0.36,0.95-0.53,1.52-0.52,1.68l0.02,0.18C181.1,124.89,181.41,124.31,181.7,123.19
		L181.7,123.19z M212.18,130.25l0.03,0.4l0.71,0.13l-0.03-0.4L212.18,130.25L212.18,130.25z M178.76,134.34l-1.1-0.13l-0.19,0.42
		l0.02,0.21l6.54-0.55l-0.03-0.4L178.76,134.34L178.76,134.34z M175.79,120.01l-0.02-0.21l-0.23,0.02l-0.4,0.26l0.23,0.39
		C175.67,120.43,175.82,120.28,175.79,120.01L175.79,120.01z M215.28,127.28l0.31-0.03c0.18-0.02,0.26-0.16,0.24-0.42l-0.18-0.39
		c-1.11,0.1-1.63,0.15-2.54,0.65l-0.02-0.21l-1.34,0.13c-0.03-0.4-0.15-0.61-0.32-0.6l-0.69,0.06c-0.81,0.06-1.2,0.03-1.6,0.34
		c-0.02-0.15-0.06-0.21-0.15-0.21l-0.78,0.06l-0.45,0.26c-0.02-0.15-0.06-0.21-0.15-0.21l-0.27,0.24l-0.02-0.21l-1.08-0.08
		l-0.26,0.02l0.03,0.4l0.55,0.15l0.52-0.03c0.18,0.11,0.37,0.15,0.6,0.13l0.45-0.23l0.02,0.18c-2.54,0.63-2.52,0.52-4.26,0.81
		c-0.19-0.13-0.34-0.19-0.44-0.18l-0.03,0.03c-0.19-0.02-0.31-0.15-0.32-0.36l0.9-0.11c0.06,0,0.11,0.06,0.61,0.16
		c0.73-0.36,0.76-0.5,1.15-0.53l-0.03-0.4c-2.49,0.48-1.49,0.16-4.6,0.44l-0.15,0.02l-0.03-0.4c4.01-0.48,2.67-0.21,4.04-0.6
		c0.02,0.15,0.06,0.21,0.15,0.21c0.16-0.16,0.34-0.24,0.55-0.27l0.27-0.02c1.4-0.11,1.87,0.16,4.65-0.61l0.02,0.18l0.45-0.23
		l0.42-0.03c-0.03-0.4,0.58-0.47,0.79-0.48l-0.03-0.44c-4.88,0.99-6.15,0.71-7.51,1.1l-0.02-0.18c-1.28,0.23-1.32,0.13-1.65,0.15
		c-0.1,0.02-0.24,0.1-0.4,0.26c-0.02-0.15-0.06-0.21-0.16-0.21c-0.05,0-0.06,0.02-0.08,0.02l-4.13,0.68
		c-0.02-0.11-0.06-0.18-0.16-0.16c-2.15,0.45-1.57,0.53-4.44,0.79c-0.13,0.02-0.31,0.08-0.53,0.23c-0.02-0.11-0.08-0.18-0.23-0.16
		l-1.76,0.15l-1.18,0.29c-0.02-0.11-0.08-0.18-0.23-0.16c-0.66,0.18-1.24,0.29-1.71,0.32h-0.03c-0.29,0.03,0.15-0.08-0.08-0.18
		l-0.36,0.21c-0.52,0.05-0.24-0.03-2.02-0.02c-3.12,0.39-2.78,0.44-3.12,0.45l-1.16-0.08c0.02,0.11-0.05,0.19-0.18,0.19
		c-1.32-0.18-2-0.39-2.02-0.63c0.18-1.26,0.48-1.91,0.92-1.94l0.23-0.02l-0.19,0.42l0.23-0.02c0.42-0.23,0.61-0.44,0.6-0.63
		l-0.03-0.44l-0.42,0.03l-0.03-0.4c-0.03-0.31,0.02-0.58,0.13-0.81l0.95-1.53l0.03,0.4l0.45-0.03l-0.03-0.4l-0.26-0.37
		c0.34-0.29,0.6-0.45,0.81-0.47l-0.02-0.21l-0.61,0.05l-0.05-0.61c1.23-2.55,1.81-4.04,1.78-4.46l0.44,0.18
		c0.27-0.02,0.4-0.18,0.39-0.47l-0.42,0.03l-0.02-0.18c-0.03-0.31,0.03-0.6,0.16-0.86c0.66-0.69,0.97-1.39,0.9-2.12
		c0.13-0.02,0.19,0.05,0.21,0.19c0.57-0.32,1-1.18,1.32-2.6c1-1.81,2.42-5.43,4.28-10.84c3.55-9.56,3.41-10.58,3.91-12.84
		l-0.42,0.03c0.03,0.29-0.03,0.57-0.16,0.82c-0.29-0.11-0.52-0.18-0.68-0.16l-0.02-0.18c-0.06-0.82,0.27-1.81,1.05-2.97l0.19-0.02
		l0.36,1.39l0.42-0.03c-0.02-0.1,0.1-0.65,0.32-1.66c-0.02-0.21-0.18-0.34-0.5-0.36l-0.4,0.26c-0.03-0.29-0.02-1.05,0.03-2.26
		l-0.21,0.02c-0.36-0.36-0.53-0.65-0.55-0.89l-2.31,0.23c-0.02-0.16-0.1-0.4-0.26-0.71c-0.02-0.21,0.5-0.42,1.57-0.63l0.47,0.18
		l0.44-0.26c0.02,0.15,0.1,0.21,0.26,0.19l0.44-0.26c0.02,0.15,0.1,0.21,0.26,0.19l0.21-0.02l-0.03-0.47
		c-0.32,0.03-1.18,0.03-2.54-0.02l-0.44,0.29l-0.02-0.26c-10.84,0.89-16.99,1.39-18.46,1.53c-0.19,0.02-0.95,0-2.29-0.03
		c0.02,0.18-0.15,0.27-0.47,0.31l-0.47-0.21l-1.58,0.4c-0.37,0.03-1,0.02-1.87-0.08c-0.24,0.19-0.53,0.31-0.89,0.34
		c-0.19,0.02,2.31-0.13,4.64-0.29c-0.24,0.19-0.61,0.31-1.13,0.36c-0.36,0.03-0.66-0.02-0.92-0.16c-0.36,0.16-1.5,0.42-3.42,0.81
		l-0.47-0.18l-7.56,1.16c-0.29-0.15-0.63-0.19-1.02-0.16c-0.4,0.03-1.08,0.18-2.02,0.44l-3.65,1.52l0.27,0.45
		c0.18-0.02,0.44-0.11,0.74-0.29l1.29,0.11l-0.16,1.21c-1.2,0.53-1.89,1.32-2.08,2.33c-1.79,0.79-2.68,1.36-2.68,1.7l0.02,0.21
		l0.27-0.02l0.48-0.26l0.57,0.68l0.08,0.94c0.03,0.29-2.99,6.64-9.03,19.04c-5.23,11.95-7.98,18.49-8.24,19.67
		c-1.79,0.5-2.83,1.23-3.13,2.2c0.03,0.31,0.57,0.52,1.6,0.6l0.05,0.47l-0.47,0.78l0.08,0.94c0.05,0.48,1.36,0.86,3.92,1.11
		c-0.02-0.16,0.06-0.26,0.24-0.27c0.05,0.58-0.11,1.71-0.48,3.39l0.27-0.02c1.07-1.45,1.57-2.46,1.52-3l0.23-0.02
		c0.26-0.02,0.53,0.27,0.86,0.9c-0.32,0.13-1.45,2.7-3.39,7.72l0.27,0.45l0.27-0.02c2.37-6.01,3.86-9.34,4.47-9.97
		c3.12-0.27,8.51-0.82,16.17-1.65l0.48-0.29c0.02,0.16,0.11,0.24,0.29,0.23l0.5-0.05l0.48-0.29c0.02,0.16,0.11,0.24,0.29,0.23
		l5.8-0.5c1.53-0.13,2.26-0.6,2.2-1.39c-0.02-0.21,0.89-0.45,2.71-0.71c0.18-0.02,0.44,0.03,0.79,0.15
		c-0.02-0.15,0.9-0.29,2.75-0.45c0.05-0.97,0.36-1.49,0.9-1.53l-0.05-0.47c-0.52,0.05-1.1,0.18-1.78,0.4
		c-1.21-0.06-1.99-0.16-2.31-0.27c-0.32,0.18-0.57,0.27-0.74,0.29l-4.04,0.13l-0.48,0.26c-0.02-0.15-0.11-0.21-0.29-0.19l-0.23,0.02
		l-0.52,0.26c-0.02-0.15-0.44-0.26-1.28-0.37l-0.52,0.31l-1,0.08l-0.02-0.26c5.2-0.57,7.77-1.28,7.7-2.12
		c0.34-0.03,0.52,0.13,0.55,0.47l1.52-0.39l-0.05-0.47l-12.45,0.34c0.02,0.16-0.06,0.26-0.24,0.27l-1.52-0.13
		c-0.39,0.03-0.71,0.15-0.97,0.34l-0.57-0.21c-1.57,0.13-2.73,0.32-3.51,0.57c-1.07-0.08-2.25-0.06-3.55,0.05l-2.79,0.24l-1.29-0.15
		c-0.06-0.82,1.53-4.88,4.83-12.15c0.95-2.46,1.83-3.99,2.67-4.57c0.18-0.02,0.44,0.05,0.79,0.19l1.99-0.68l1.02,0.16
		c1.71-0.15,3.7-0.63,5.98-1.47c0.57-0.05,0.99-0.02,1.29,0.11l1.52-0.36l4.52-0.39c1.92-0.16,4.01-0.58,6.27-1.28l-0.05-0.47
		c-0.84,0.08-1.28-0.06-1.31-0.4c-0.05-0.63-0.66-0.89-1.84-0.79l-0.05-0.47l1.24-0.36l3.26-0.27l-0.05-0.47
		c-0.13,0.02-0.79,0-2.02-0.05l-0.05-0.5l1.26-0.11c0.34-0.03,0.48-0.19,0.45-0.52c-1.7,0.05-2.55-0.03-2.57-0.26
		c-11.82,0.58-17.75,0.69-17.78,0.32c-0.18,0.02-0.42,0.13-0.74,0.32l-0.31-0.48c3.13-6.65,4.97-10.01,5.51-10.06
		c0.02,0.26-0.11,0.68-0.4,1.24l0.02,0.21l0.5-0.05c1.24-2.97,2.29-4.51,3.17-4.57c3.71-0.32-0.52-0.57,7.43-1.81
		c0.32,0.15,0.55,0.21,0.71,0.19c3.12-0.63,7.46-1.29,13.03-1.97l-0.03-0.47l-2.97,0.27l-0.03-0.47c0.36-0.03,0.65-0.15,0.89-0.34
		l0.02,0.26c0.16-0.02,0.39-0.13,0.68-0.32c0.52-0.05,0.9,0,1.18,0.15c1.03-0.27,1.87-0.44,2.49-0.5l1.86-0.18
		c0.45-0.29,0.66-0.55,0.65-0.79l-0.02-0.21c-0.47,0.05-1,0.02-1.63-0.1c-0.02-0.26,0.11-0.44,0.42-0.52l3.46-0.32l1.58-0.4
		c0.02,0.18,0.1,0.24,0.23,0.24c0.16-0.02,0.39-0.13,0.68-0.32c0.08,0.02,0.18,0.02,0.26,0.03c-0.21,0.44-0.45,1.07-0.69,1.89
		l-0.45,0.03c-0.03-0.31-0.11-0.58-0.26-0.82l-0.23,0.02c-4.2,11.69-6.07,17.14-9.95,26.12c-0.71,2.29-1.31,3.57-1.83,3.84
		c0.02,0.26,0.18,0.39,0.45,0.36c0.1,1.13-0.16,2.25-0.79,3.34c-1.79,5.17-2.99,8-3.6,8.51l0.4,2.44c0.02,0.26-0.11,0.4-0.39,0.44
		l-0.42,0.03c-0.06-0.68-0.31-1-0.74-0.95l-0.23,0.02c-0.55,0.86-0.97,1.84-1.24,2.99l0.42-0.03c0.57-0.37,0.82-0.81,0.78-1.31
		l0.84-0.08l0.48,0.18c-0.39,0.61-0.57,1.1-0.53,1.47l0.23,0.39l-0.55,1.29l0.02,0.21c0.48-0.05,1.02,0.11,1.58,0.45
		c0.39-0.03,0.81-0.21,1.28-0.52c0.48-0.05,2.29-0.06,5.41-0.06l1.57-0.53c1.91-0.02,2.21,0.03,3.86-0.11l0.68-0.06l0.36-0.24
		l0.02,0.21c1.73-0.15,1.84-0.03,3.2,0.13l0.02,0.21l-0.95,0.08l0.03,0.4c0.29-0.03,0.55-0.11,0.76-0.29
		c0.24-0.02,0.39,0.11,0.4,0.4c-0.39,0.03-0.82,0.13-1.31,0.29l-0.42-0.15c-0.66,0.18-0.52,0.23-0.97,0.26l-0.66-0.13
		c0.02,0.11-0.05,0.19-0.16,0.19c0.02,0.26,0.16,0.39,0.4,0.37l0.68-0.06l3.54-0.31l1.34-0.29c0.02,0.11,0.06,0.18,0.18,0.16
		l0.65-0.24l1.21-0.1c0.94-0.08,0.92-0.15,2.96-0.47c-0.02-0.13,0.03-0.18,0.13-0.19l0.02,0.18c3.31-0.57,3.52-0.6,4.05-0.78
		l0.05,0.1c0.82-0.19,0.36-0.15,0.58-0.31c0.02,0.15,0.06,0.21,0.15,0.21l0.58-0.05l-0.03-0.44l-1.18-0.02l-0.02-0.03
		c-0.05,0.02-0.08,0.02-0.13,0.03h-0.16v0.03c-0.79,0.16-0.81,0.05-1.32,0.1l-2.96,0.16l-0.02-0.21l1.65-0.23l0.6-0.05l0.34-0.24
		l0.02,0.21c2.33-0.19,3.15,0.39,13.91-1.91c0.58-0.05,0.53-0.53,0.9-1.53c-0.19,0.02-0.39-0.03-0.57-0.13
		c-0.89,0.34-1.36,0.18-3.07,0.45c-0.15,0.02-0.26-0.11-0.31-0.37l-0.02-0.18l1.65,0.05c0.31-0.03,0.9-0.08,1.79-0.58
		C215.41,127.21,215.09,127.29,215.28,127.28L215.28,127.28z M135.75,128.55l-0.76,0.06c-0.03-0.31,0.37-1.47,1.21-3.46l0.5-0.05
		C136.72,125.58,136.41,126.73,135.75,128.55L135.75,128.55z M136.67,124.87l-0.02-0.21c-0.02-0.26,0.15-0.44,0.5-0.52l0.02,0.21
		C137.18,124.66,137.02,124.84,136.67,124.87L136.67,124.87z M146.76,132.67l0.02,0.21l-1.26,0.11l-0.02-0.21L146.76,132.67
		L146.76,132.67z M145.24,132.54c0.02,0.26-0.37,0.55-1.21,0.84l-1.55-0.11l-0.5,0.05l-0.05-0.47L145.24,132.54L145.24,132.54z
		 M155.45,85.56l-0.76,0.06l-0.02-0.26c-0.02-0.26,0.13-0.44,0.45-0.52l0.27-0.02l0.52,0.21C155.94,85.35,155.79,85.52,155.45,85.56
		L155.45,85.56z M167,83.3l0.24-0.02l0.03,0.47l-0.69,0.06C166.57,83.55,166.69,83.38,167,83.3L167,83.3z M164.09,84.31l-1.15-0.13
		l-0.02-0.21c1.5-0.13,2-0.29,2.92-0.55c0.02,0.18,0.18,0.24,0.47,0.21l0.03,0.47l-0.45,0.05c-0.36,0.03-0.66-0.02-0.92-0.16
		C164.71,84.17,164.42,84.28,164.09,84.31L164.09,84.31z M165.53,88.5l-0.02-0.21l1.86-0.18l0.02,0.21L165.53,88.5L165.53,88.5z
		 M167.52,86.88l-0.02-0.26l0.9-0.08l0.02,0.26L167.52,86.88L167.52,86.88z M167.73,83.72l-0.24,0.02l0.21-0.5l2.07-0.19l0.02,0.26
		C169.25,83.34,168.55,83.49,167.73,83.72L167.73,83.72z M168.78,88.17l-0.03-0.47l0.9-0.08c0.31-0.03,0.47,0.11,0.48,0.44
		L168.78,88.17L168.78,88.17z M174.25,80.71l-1.16,0.32l-0.21,0.02c-0.55,0.05-1.26,0.03-2.1-0.05
		C172.28,80.91,173.72,80.79,174.25,80.71L174.25,80.71z M173.01,85.88l0.02,0.21l-1.6,0.15l-0.02-0.21L173.01,85.88L173.01,85.88z
		 M175.63,87.12c-0.02-0.19-0.32-0.32-0.95-0.39l-1.6,0.45l-1.23,0.05c-0.27-0.19-0.42-0.32-0.44-0.42l1.42,0.08l3.2-0.52l1.63,0.06
		l0.02,0.26C176.87,86.78,176.19,86.93,175.63,87.12L175.63,87.12z M192.09,82.88c0.19,0.02,0.32,0.02,0.37,0.02
		c0.57-0.55,1.2-0.98,1.92-1.29c-0.58,2.55-1.49,4.44-2.73,5.67l-0.9-0.55C191.5,84.8,191.96,83.52,192.09,82.88L192.09,82.88z
		 M189.31,87.64l0.23-0.02c-0.31,0.58-0.58,0.89-0.81,0.9l-0.05-0.61C188.82,87.92,189.03,87.82,189.31,87.64L189.31,87.64z
		 M187.51,91.92c0.44-1.74,0.86-2.73,1.24-2.99l0.02,0.21c-0.23,1.62-0.58,2.47-1.05,2.54l0.08,1.02c-0.39,0.55-0.57,0.97-0.55,1.29
		L187.03,94l-0.13-1.41C187.16,92.57,187.37,92.34,187.51,91.92L187.51,91.92z M186.82,94.25c0.02,0.24-0.15,0.81-0.47,1.68
		l-0.23,0.02l-0.05-0.61C186.38,94.62,186.64,94.26,186.82,94.25L186.82,94.25z M173.79,132.07l-0.02-0.18l0.42-0.03l0.05,0.61
		C174.01,132.49,173.85,132.36,173.79,132.07L173.79,132.07z M192.41,132.56c-0.02-0.15-0.08-0.21-0.23-0.19l-1.05,0.1l-0.02-0.21
		h0.1l2.49-0.21l0.02,0.21C192.99,132.28,192.55,132.4,192.41,132.56L192.41,132.56z M191.16,132.04c0.1,0.05,0.05,0.1,0,0.13
		C191.12,132.16,191.05,132.11,191.16,132.04L191.16,132.04z M191.29,129.13l-1.39,0.11l-0.02-0.21l1.26-0.11l1.1-0.27
		c0.02,0.13,0.08,0.18,0.23,0.16c1.31-0.23,1.18-0.29,1.81-0.34c0.21-0.02,0.34,0.11,0.36,0.37L191.29,129.13L191.29,129.13z
		 M196.16,128.71c-0.78-0.08-0.82-0.15-1.37-0.1l-0.02-0.18l1.24-0.11l0.02,0.18C195.9,128.52,196.37,128.55,196.16,128.71
		L196.16,128.71z M196.25,128.49l-0.02-0.18l0.68-0.06l0.02,0.18L196.25,128.49L196.25,128.49z M197.75,128.36l-0.02-0.18
		c0.11-0.02,0.27-0.1,0.48-0.26c0.34-0.03,0.52,0.19,0.55,0.45L197.75,128.36L197.75,128.36z M199.68,128.12l-0.02-0.21l0.82-0.06
		l0.02,0.21L199.68,128.12L199.68,128.12z M200.82,128.02c-0.02-0.24,0.08-0.39,0.29-0.42l0.27,0.36c-0.02-0.11,0.03-0.18,0.13-0.19
		l0.21,0.39L200.82,128.02L200.82,128.02z M188.63,133.29l-0.03-0.4l-0.13,0.02l0.03,0.4L188.63,133.29L188.63,133.29z
		 M217.01,125.94c0.13-0.08,0.19-0.16-0.11-0.21c-0.15,0.16,0.16,0.21-0.16,0.23l0.02,0.15c0.03-0.03,0.11-0.08,0.18-0.13
		l-0.18,0.15v0.02l-0.34,0.44l0.68-0.24h0.08l-0.03-0.4L217.01,125.94L217.01,125.94z M218.19,126.86l-0.13,0.02l0.03,0.4l0.95-0.08
		C219.03,126.94,218.4,126.86,218.19,126.86L218.19,126.86z M216.72,126.15l0.02-0.02v-0.02
		C216.73,126.11,216.72,126.13,216.72,126.15L216.72,126.15z"/>
	<path class="st3" d="M154.71,96.25l0.02,0.26l0.53-0.05c-0.02-0.16,0.05-0.42,0.16-0.74l-0.05-0.47
		C155.15,95.26,154.92,95.6,154.71,96.25L154.71,96.25z M149.61,83.97l-0.05-0.47l-0.76,0.06l0.05,0.47L149.61,83.97L149.61,83.97z
		 M134.79,111.71c-0.03-0.44-1.39-2.13-4.07-5.12c-0.05-0.55,0.87-1.37,2.76-2.45l5.39-4.7c1.21-1.53,1.92-4.02,2.13-7.48
		l-0.06-0.79c-0.21-2.39-1.94-4.31-5.22-5.78c-1.94-1.31-5.43-2.04-10.47-2.16c-4.17,0.36-9.61,1.84-16.31,4.47
		c-1.84,1.32-3.94,2.65-6.3,3.97l0.03,0.4c0.15-0.02,0.37-0.1,0.63-0.27c0.27-0.03,0.44,0.1,0.45,0.36l0.4-0.21l0.19-0.02l0.02,0.18
		c0.02,0.21-1.44,1.36-4.38,3.41l0.23,0.42l-0.19,0.02l-0.48-0.18c0.02,0.15-0.19,0.24-0.6,0.27l0.02,0.18l0.47,0.58
		c-0.15,0.02-0.37-0.05-0.68-0.16c-0.68,0.06-1.34,0.42-2,1.1l0.27-1.2c0.99-4.25,1.66-8.01,2.02-11.27L99,85.06
		c-0.68-0.44-1.34-1.05-1.95-1.83c0.02-0.5,0.02-0.79,0-0.86L97,82.2l-0.19,0.05c-2.13,3.2-6.23,8.66-12.32,16.38
		c-4.64,5.49-7.03,8.54-7.17,9.16c-1.89,1.95-2.79,3.13-2.7,3.54c-0.5,0.32-0.71,0.65-0.63,1c-0.15,0.03-0.24-0.02-0.27-0.16
		c-0.81,1.31-2,2.15-3.6,2.52l-1.68,0.39c-0.23,0.05-0.34,0.21-0.32,0.48l0.05,0.21l0.63-0.15l0.05,0.18l-1.42,0.55l-2.52,0.58
		L63.57,117c-0.19,0.19,1.05-0.02,0.57,0.1l-1.65,0.39c-1,0.23-1.55,0.15-1.65-0.26l-0.19,0.05c0.03,0.18,0.05,0.31,0.02,0.42
		l-0.1-0.4l-1.32,0.31c-0.1-0.61-1.89-2.84-5.36-6.69c-0.06-0.74,1.16-1.83,3.67-3.23l7.07-6.22c1.58-2.03,2.52-5.3,2.83-9.79
		l-0.1-1.05c-0.27-3.17-2.57-5.72-6.88-7.69c-2.55-1.73-7.14-2.65-13.76-2.79c-5.49,0.47-12.66,2.42-21.48,5.83
		c-2.42,1.76-5.18,3.5-8.29,5.23l0.05,0.55c0.21-0.02,0.48-0.13,0.82-0.32c0.36-0.03,0.55,0.13,0.58,0.45l0.55-0.31l0.27-0.02
		l0.02,0.26c0.02,0.26-1.91,1.76-5.8,4.51l0.31,0.48l-0.27,0.02l-0.6-0.21c0.02,0.16-0.26,0.27-0.82,0.32l0.03,0.29l0.65,0.71
		c-0.21,0.02-0.5-0.05-0.87-0.18c-1.26,0.11-2.49,1.02-3.7,2.73l0.31,0.48c1.05-0.97,1.66-1.45,1.84-1.47l0.06,0.79
		c-0.18,0.02-0.45,0.13-0.82,0.32l0.66,1c1.28-1.37,2.68-2.55,4.22-3.54c0.76,0.19,1.16,0.44,1.18,0.69l0.58-0.05
		c4.17-3.09,8.29-5.31,12.37-6.69l0.05,0.55c-0.76,1.13-1.28,1.71-1.55,1.74c0.03,0.39,0.16,0.73,0.4,1.02
		c0.06,0.69-1.79,5.38-5.56,14.04c-8.54,20.13-15.72,35.02-21.55,44.64c0.02,0.19,0.13,0.45,0.34,0.78
		c1.44-0.34,2.34-0.69,2.73-1.03l0.31-0.03l0.05,0.55l0.53-0.05l0.55-0.31c0.02,0.16,0.19,0.24,0.57,0.21l0.05,0.55
		c0.05,0.53-0.26,1.34-0.9,2.45c-0.58,0.66-1.21,2.05-1.87,4.17l0.02,0.26l0.53-0.05c2.33-2.6,4.09-5.15,5.3-7.64
		c6.78-1.99,11.95-3.94,15.54-5.86c3.6-0.31,6.35-1.26,8.22-2.83l-0.03-0.29l-1.36,0.4l-0.31,0.03l-0.03-0.29
		c2.65-0.4,4.47-0.99,5.49-1.79c5.15-3.97,9.04-6.78,11.68-8.45c5.41-3.97,8.93-7.85,10.53-11.61c0.29-0.06,0.58-0.13,0.9-0.21
		c0.76-0.03,1.18-0.05,1.29-0.08c-0.03-0.15,0.03-0.23,0.18-0.26c1.21-0.13,0.63,0.08,1.41-0.1l2.04-0.47l0.34-0.08l-0.16,0.1
		c0.23,0.03,0.47,0.02,0.74-0.05l0.15,0.6l-9.25,14.71l-2.05,2.57l-1,3.36l0.19-0.05l1-0.42l-0.32,1.31l0.1,0.39l0.27,0.34
		c-0.13,0.03-0.18,0.11-0.15,0.26l0.05,0.21l0.42-0.1c0.61-0.53,0.87-1.02,0.78-1.45c0.66,0.11,1.1,0.16,1.32,0.1l0.05,0.21
		c-0.4,0.1-0.61,0.42-0.65,0.97l0.05,0.21l0.23-0.05c3.36-3.67,11.6-16.22,18.2-24.73c-0.21-0.92,3.23-2.2,10.34-3.84l0.23-0.05
		c0.26,1.11-0.29,3.81-1.65,8.09c-0.87,2.58-1.29,4.01-1.23,4.23c-1.13,3.44-1.66,5.3-1.6,5.59l-2.52,8.25
		c-1.63,4.23-2.88,8.67-3.75,13.36c0.15-0.03,0.37-0.02,0.69,0.06l0.36-0.31c0.03,0.15,0.13,0.19,0.27,0.16l-0.15-0.6l1.1-0.03
		c0.32-0.08,0.6-0.48,0.82-1.23c-0.05-1.11,0.18-1.71,0.68-1.84c0.68-2.65,1.1-3.97,1.24-4.02c0.63-2.63,1.1-4.13,1.41-4.51
		c0.95-3.42,1.65-5.18,2.1-5.3l0.1,0.42l-0.69,1.79c-1.21,5.38-2.44,9.63-3.68,12.74l0.36,1.55l0.23-0.05
		c3-6.46,7.33-19.25,12.97-38.38c0.16-1.68,0.97-2.99,2.41-3.91l-0.32-0.34l-0.05-0.18c0.65-0.15,1.1-0.4,1.36-0.76
		c-0.03-0.15-0.6-0.36-1.7-0.65l2.81-12.05c0.61-0.55,0.97-0.84,1.08-0.84l0.05,0.61c-0.15,0.02-0.37,0.1-0.63,0.27l0.53,0.76
		c0.97-1.05,2.02-1.95,3.17-2.71c0.58,0.16,0.87,0.36,0.9,0.55l0.42-0.03c3.2-2.34,6.33-4.02,9.42-5.04l0.03,0.4
		c-0.57,0.86-0.95,1.29-1.16,1.31c0.03,0.29,0.11,0.55,0.26,0.78c0.05,0.53-1.34,4.09-4.18,10.68
		c-6.49,15.26-11.94,26.55-16.36,33.89c0.02,0.15,0.11,0.34,0.29,0.6c1.08-0.26,1.78-0.53,2.05-0.79l0.19-0.02l0.03,0.4l0.45-0.03
		l0.4-0.21c0.02,0.11,0.16,0.16,0.44,0.15l0.03,0.44c0.03,0.39-0.19,1-0.69,1.84c-0.47,0.5-0.95,1.55-1.47,3.15l0.02,0.21l0.42-0.03
		c1.76-1.97,3.1-3.91,4.02-5.81c5.15-1.52,9.08-2.99,11.79-4.44c2.76-0.24,4.85-0.95,6.27-2.15l-0.02-0.21l-1.05,0.31l-0.23,0.02
		l-0.02-0.21c2-0.29,3.41-0.74,4.17-1.34c3.91-3,6.86-5.15,8.87-6.41C132.24,120.25,135.15,115.89,134.79,111.71L134.79,111.71z
		 M133.73,111.98l0.15,1.63c-0.19,0.4-0.4,0.61-0.6,0.63l-0.24-2.78C133.49,111.63,133.71,111.79,133.73,111.98L133.73,111.98z
		 M11.43,98.83l-0.27,0.02l-0.05-0.5l1.11-0.1l0.02,0.26C12.06,98.53,11.78,98.62,11.43,98.83L11.43,98.83z M5.98,153.28
		c-0.65-0.29-1.23-0.4-1.73-0.36l-0.06-0.79c-0.03-0.31,0.15-0.52,0.53-0.6c0.35-0.03,0.57,0.23,0.6,0.74
		c0.94-1.15,1.45-1.73,1.55-1.74l0.6,0.24C7.28,152.39,6.78,153.22,5.98,153.28L5.98,153.28z M64.15,92.44
		c-0.27,0.03-0.82-0.82-1.62-2.52l-0.05-0.5c0.52-0.05,1.05,0.79,1.62,2.52L64.15,92.44L64.15,92.44z M63.37,86.41l-0.23,0.53
		l-7.9-3.3C60.51,83.83,63.23,84.75,63.37,86.41L63.37,86.41z M30.02,115.05l-1.11,0.1l-0.05-0.5l1.11-0.1L30.02,115.05
		L30.02,115.05z M29.11,97.85l0.27-0.02l0.06,0.79c-0.26,0.02-0.6,0.4-1.02,1.15l-0.05-0.55C28.89,98.62,29.15,98.17,29.11,97.85
		L29.11,97.85z M26.77,103.37l0.1,1.05l-0.27,0.02l-0.1-1.05L26.77,103.37L26.77,103.37z M25.54,105.34l0.53-0.05
		c-0.05,0.87-0.29,1.34-0.73,1.37l-0.27,0.02C25.41,106.1,25.58,105.65,25.54,105.34L25.54,105.34z M24.62,108.09l0.31-0.03
		l0.02,0.26l-0.5,0.84l-0.53,0.05l-0.02-0.26C24.43,108.9,24.67,108.62,24.62,108.09L24.62,108.09z M23.72,110.56l-0.16,1.32
		l-0.27,0.02l-0.11-1.31L23.72,110.56L23.72,110.56z M14.66,136.32c-0.36,1.81-0.74,2.73-1.15,2.76l-0.02-0.26
		C13.4,137.94,13.78,137.1,14.66,136.32L14.66,136.32z M12.99,139.92l0.02,0.26c0.03,0.36-0.13,0.57-0.48,0.58l-0.02-0.26
		C12.48,140.2,12.64,140,12.99,139.92L12.99,139.92z M12.51,147.4l0.84-0.08l0.03,0.29c-0.21,0.02-0.48,0.13-0.82,0.32l-0.53,0.05
		C11.99,147.71,12.17,147.5,12.51,147.4L12.51,147.4z M36.41,140.02c-4.72,2.33-7.49,3.91-8.32,4.73c-5.1,1.78-7.64,2.88-7.59,3.31
		c-4.54,1.79-7.53,3.12-8.96,3.94c-0.34,0.03-0.82-0.1-1.47-0.39c-0.08-0.92,0.34-1.66,1.23-2.26c0.79-0.06,1.55,0.05,2.28,0.36
		c0.84-0.44,2.31-0.92,4.39-1.44l-0.05-0.55l-1.68,0.15c0.21-0.29,1.83-1.05,4.86-2.28l0.84-0.08l0.02,0.26
		c-1.44,0.13-2.23,0.55-2.41,1.31c0.03,0.34,0.23,0.48,0.58,0.45c1.08-0.68,1.62-1.08,1.6-1.2c2.05-0.39,7.72-3.36,17.01-8.9
		l0.05,0.5C38.8,138.18,38.01,138.86,36.41,140.02L36.41,140.02z M22.17,144.71c1.36-0.11,2.52-0.66,3.49-1.62
		c0.39-0.03,0.6,0.11,0.61,0.45c-0.66,0.06-1.94,0.61-3.8,1.68l-0.27,0.02L22.17,144.71L22.17,144.71z M45.15,127.05l-7.12,5.65
		c-5.3,3.47-8.14,5.22-8.56,5.25c-8.43,4.64-13.68,7.04-15.72,7.22l-0.31,0.03c0.26-0.95,4.01-8.62,11.27-23.06
		c3.2-0.27,8.24-1.76,15.1-4.47l1.68-0.15c3.47-0.31,6.07,0.37,7.79,1.99l0.1,1.05C48.11,124.26,46.69,126.42,45.15,127.05
		L45.15,127.05z M31.23,119.22l1.15-0.1l0.02,0.26l-1.15,0.1L31.23,119.22L31.23,119.22z M47.33,116.49l0.84-0.08
		c0.78,0.37,1.18,0.69,1.21,0.99l0.02,0.26C48.66,117.72,47.96,117.33,47.33,116.49L47.33,116.49z M49.61,103.52
		c-0.74,0.89-2.78,2.41-6.11,4.54c-1.1,0.1-5.19,1.68-12.26,4.78c-0.36-0.16-0.73-0.23-1.13-0.19l-0.05-0.5
		c-0.08-1.02,0.37-2.29,1.37-3.84c0.55-2.91,1.15-4.57,1.81-4.97l5.9-13.26c-0.06-0.82,1.2-1.45,3.78-1.89l0.84-0.08l0.06,0.76
		c2.54-0.39,4.12-0.61,4.73-0.66c4.68-0.4,7.12,0.55,7.32,2.83l0.53-0.05l-0.11-1.34l0.58-0.05c1.37,0.76,2.12,1.68,2.21,2.76
		c0.06,0.74-0.34,1.66-1.2,2.76c-0.36,0.03-0.57-0.23-0.6-0.74l-0.58,0.05l-0.13,1.62c-2.37,3.55-4.1,5.38-5.17,5.48
		C50.45,102.84,49.85,103.5,49.61,103.52L49.61,103.52z M53.23,112.81c-0.48-0.32-0.87-0.47-1.16-0.45L52,111.56l0.53-0.05
		l1.18,0.69C53.76,112.58,53.6,112.77,53.23,112.81L53.23,112.81z M56.98,117.25c0.52,0.21,0.82,0.44,0.89,0.65l-0.26,0.06
		l0.02,0.02c-0.05,0-0.11,0.02-0.16,0.03l-0.39,0.31L56.98,117.25L56.98,117.25z M57.33,119.48l-0.05-0.21l0.68-0.16l0.05,0.21
		L57.33,119.48L57.33,119.48z M58.96,121.3c0.69-0.11,1.03-0.16,2.33-0.45l0.05,0.21l-2.45,0.57
		C58.91,121.51,58.95,121.4,58.96,121.3L58.96,121.3z M61.35,122.32c-1.03,0.1-0.81-0.03-2.46,0.34l-0.05-0.21l2.07-0.66l0.99-0.23
		l0.1,0.39C61.55,122.04,61.87,122.04,61.35,122.32L61.35,122.32z M63.53,121.8c-0.24,0.06-0.44-0.05-0.55-0.32l0.63-0.15
		c0.27-0.06,0.45,0.05,0.52,0.32L63.53,121.8L63.53,121.8z M69.44,115.44l-0.05-0.21l1.02-0.24l0.1,0.39L69.44,115.44L69.44,115.44z
		 M75.76,154.17c0.06-0.29,0.08-0.5,0.05-0.65l0.23-0.05c0.27-0.06,0.44,0.03,0.5,0.29l0.05,0.21L75.76,154.17L75.76,154.17z
		 M80.19,117.1l-0.45-0.08c-0.73,0.29-1.34,0.5-1.84,0.61l-0.42,0.1c-0.24,0.06-0.44-0.03-0.53-0.29l2.96-0.68l0.97-0.45l0.32,0.37
		C80.72,116.78,80.38,116.92,80.19,117.1L80.19,117.1z M82.46,116.37l-0.05-0.21c0.15-0.03,0.34-0.15,0.55-0.36l2.1-0.48l0.05,0.21
		C84,115.81,83.11,116.08,82.46,116.37L82.46,116.37z M82.79,112.13c-0.15,0.03-0.34,0.16-0.58,0.36c-0.03-0.15-0.32-0.15-0.87-0.02
		c-0.1-0.4,1.45-0.97,4.67-1.71l0.45-0.1l0.1,0.39C84.29,111.71,83.03,112.08,82.79,112.13L82.79,112.13z M88.44,106.02
		c-0.23,2.57-1.13,4.02-2.73,4.39l-0.05-0.21l-1.42,0.55l-0.63,0.15c-0.32,0.08-0.61,0.06-0.87-0.02l-0.13-0.57
		c-0.05-0.21,2-3.05,6.17-8.51l0.48,0.08C89.44,102.63,89.17,104,88.44,106.02L88.44,106.02z M98.44,97.46l-0.19,0.02l-0.03-0.4
		l0.84-0.08l0.02,0.21C98.92,97.23,98.71,97.32,98.44,97.46L98.44,97.46z M94.32,138.83c-0.48-0.23-0.92-0.32-1.29-0.29l-0.05-0.61
		c-0.02-0.21,0.11-0.36,0.39-0.44c0.27-0.03,0.44,0.16,0.47,0.58c0.69-0.89,1.08-1.34,1.16-1.34l0.44,0.18
		C95.27,138.13,94.9,138.78,94.32,138.83L94.32,138.83z M138.48,92.63c-0.21,0.02-0.61-0.63-1.24-1.94l-0.03-0.4
		c0.4-0.03,0.82,0.6,1.24,1.89L138.48,92.63L138.48,92.63z M137.9,88.01l-0.19,0.42l-5.98-2.5
		C135.72,86.06,137.78,86.75,137.9,88.01L137.9,88.01z M112.55,109.77l-0.84,0.08l-0.03-0.4l0.84-0.08L112.55,109.77L112.55,109.77z
		 M111.86,96.7l0.23-0.02l0.05,0.61c-0.21,0.02-0.47,0.31-0.78,0.87l-0.03-0.4C111.7,97.3,111.88,96.94,111.86,96.7L111.86,96.7z
		 M110.1,100.9l0.06,0.79l-0.23,0.02l-0.06-0.79L110.1,100.9L110.1,100.9z M109.15,102.4l0.42-0.03c-0.05,0.68-0.23,1.03-0.53,1.07
		l-0.23,0.02C109.05,103,109.16,102.65,109.15,102.4L109.15,102.4z M108.47,104.47l0.19-0.02l0.02,0.21l-0.37,0.65l-0.42,0.03
		l-0.02-0.21C108.31,105.1,108.5,104.87,108.47,104.47L108.47,104.47z M107.79,106.34l-0.15,1.03l-0.19,0.02l-0.08-1.02
		L107.79,106.34L107.79,106.34z M100.89,125.94c-0.27,1.36-0.57,2.05-0.87,2.08l-0.02-0.18
		C99.95,127.16,100.25,126.52,100.89,125.94L100.89,125.94z M99.62,128.67l0.02,0.18c0.03,0.29-0.1,0.45-0.39,0.47l-0.02-0.21
		C99.21,128.89,99.34,128.75,99.62,128.67L99.62,128.67z M99.26,134.35l0.65-0.05l0.02,0.21c-0.15,0.02-0.37,0.1-0.63,0.24
		l-0.42,0.03C98.86,134.56,98.99,134.42,99.26,134.35L99.26,134.35z M117.4,128.75c-3.55,1.76-5.67,2.96-6.33,3.57
		c-3.88,1.36-5.8,2.2-5.77,2.54c-3.44,1.37-5.7,2.36-6.77,2.99c-0.26,0.02-0.63-0.08-1.11-0.31c-0.06-0.69,0.26-1.26,0.94-1.68
		c0.61-0.05,1.2,0.03,1.73,0.26c0.65-0.32,1.76-0.68,3.34-1.08l-0.03-0.4l-1.31,0.11c0.16-0.23,1.4-0.81,3.71-1.74l0.65-0.05
		l0.02,0.18c-1.1,0.1-1.71,0.42-1.84,1c0.02,0.26,0.18,0.39,0.45,0.36c0.81-0.53,1.2-0.84,1.2-0.94c1.55-0.27,5.85-2.54,12.91-6.77
		l0.03,0.4C119.21,127.34,118.61,127.86,117.4,128.75L117.4,128.75z M106.58,132.3c1.05-0.1,1.94-0.5,2.68-1.21
		c0.27-0.02,0.44,0.1,0.45,0.36c-0.48,0.05-1.44,0.45-2.88,1.23l-0.23,0.02L106.58,132.3L106.58,132.3z M124.05,118.88l-5.38,4.33
		c-4.02,2.63-6.2,3.96-6.54,3.99c-6.4,3.52-10.37,5.35-11.94,5.48l-0.23,0.02c0.19-0.73,3.05-6.56,8.58-17.51
		c2.41-0.21,6.22-1.36,11.45-3.42l1.31-0.11c2.63-0.23,4.6,0.29,5.9,1.53l0.06,0.79C126.28,116.75,125.22,118.38,124.05,118.88
		L124.05,118.88z M113.49,112.93l0.84-0.08l0.02,0.21l-0.84,0.08L113.49,112.93L113.49,112.93z M125.72,110.85l0.65-0.05
		c0.6,0.29,0.9,0.55,0.92,0.76l0.02,0.18C126.73,111.79,126.2,111.5,125.72,110.85L125.72,110.85z M127.41,101.01
		c-0.57,0.68-2.1,1.84-4.6,3.46c-0.84,0.08-3.94,1.28-9.3,3.6c-0.26-0.1-0.55-0.13-0.86-0.11l-0.03-0.4
		c-0.06-0.78,0.27-1.74,1.02-2.92c0.42-2.23,0.89-3.47,1.37-3.76l4.51-10.08c-0.05-0.6,0.9-1.08,2.84-1.45l0.65-0.05l0.05,0.61
		c1.91-0.31,3.1-0.48,3.59-0.53c3.55-0.31,5.41,0.4,5.56,2.15l0.42-0.03l-0.08-0.97l0.42-0.03c1.03,0.57,1.58,1.24,1.65,2.05
		c0.05,0.58-0.24,1.29-0.86,2.12c-0.27,0.03-0.44-0.16-0.47-0.58l-0.42,0.03l-0.13,1.21c-1.79,2.73-3.1,4.13-3.92,4.2
		C128.08,100.5,127.62,101,127.41,101.01L127.41,101.01z M129.3,107.73l-0.05-0.61l0.42-0.03l0.9,0.55c0.02,0.26-0.11,0.4-0.39,0.44
		C129.8,107.83,129.51,107.72,129.3,107.73L129.3,107.73z M54.12,146.97l-0.42,0.1l-0.36,0.31c0.06,0.26,0.23,0.36,0.5,0.29
		c0.27-0.06,0.39-0.23,0.32-0.48L54.12,146.97L54.12,146.97z M52.52,143.78l0.05,0.21c0.27-0.06,0.39-0.23,0.32-0.48l-0.05-0.21
		C52.58,143.36,52.47,143.53,52.52,143.78L52.52,143.78z M63.95,122.3l0.31-0.19c-0.06,0-0.11-0.02-0.16-0.03
		C63.99,122.11,63.94,122.19,63.95,122.3L63.95,122.3z M63.89,116.73l0.48-0.11l-0.1-0.42l-0.48,0.11L63.89,116.73L63.89,116.73z
		 M178.03,133.04l-1.1-0.13l-0.19,0.42l0.02,0.21l6.54-0.55l-0.03-0.4L178.03,133.04L178.03,133.04z M184.01,132.54l0.03,0.4h0.06
		l-0.03-0.4H184.01L184.01,132.54z M211.45,128.96l0.03,0.4l0.71,0.13l-0.03-0.4L211.45,128.96L211.45,128.96z M210.45,129.04
		c-4.91,1.1-5.52,0.9-6.56,0.99l0.03,0.4l0.45-0.03l0.24-0.02l-0.06-0.05l0.53-0.21c4.86-0.53,5.43-0.34,5.38-0.89L210.45,129.04
		L210.45,129.04z M180.97,121.9l-0.44-0.15c-0.36,0.95-0.53,1.52-0.52,1.68l0.02,0.18C180.38,123.59,180.68,123.01,180.97,121.9
		L180.97,121.9z M175.06,118.72l-0.02-0.21l-0.23,0.02l-0.4,0.26l0.23,0.39C174.95,119.14,175.09,118.99,175.06,118.72
		L175.06,118.72z M187.9,131.99l-0.03-0.4l-0.13,0.02l0.03,0.4L187.9,131.99L187.9,131.99z M214.55,125.99l0.31-0.03
		c0.18-0.02,0.26-0.16,0.24-0.42l-0.18-0.39c-1.11,0.1-1.63,0.15-2.54,0.65l-0.02-0.21l-1.34,0.13c-0.03-0.4-0.15-0.61-0.32-0.6
		l-0.69,0.06c-0.81,0.06-1.2,0.03-1.6,0.34c-0.02-0.15-0.06-0.21-0.15-0.21l-0.78,0.06l-0.45,0.26c-0.02-0.15-0.06-0.21-0.15-0.21
		l-0.27,0.24l-0.02-0.21l-1.08-0.08l-0.26,0.02l0.03,0.4l0.55,0.15l0.52-0.03c0.18,0.11,0.37,0.15,0.6,0.13l0.45-0.23l0.02,0.18
		c-2.54,0.63-2.52,0.52-4.26,0.81c-0.19-0.13-0.34-0.19-0.44-0.18l-0.03,0.03c-0.19-0.02-0.31-0.15-0.32-0.36l0.9-0.11
		c0.06,0,0.11,0.06,0.61,0.16c0.73-0.36,0.76-0.5,1.15-0.53l-0.03-0.4c-2.49,0.48-1.49,0.16-4.6,0.44l-0.15,0.02l-0.03-0.4
		c4.01-0.48,2.66-0.21,4.04-0.6c0.02,0.15,0.06,0.21,0.15,0.21c0.16-0.16,0.34-0.24,0.55-0.27l0.27-0.02
		c1.41-0.11,1.87,0.16,4.65-0.61l0.02,0.18l0.45-0.23l0.42-0.03c-0.03-0.4,0.58-0.47,0.79-0.48l-0.03-0.44
		c-4.88,0.99-6.15,0.71-7.51,1.1l-0.02-0.18c-1.28,0.23-1.32,0.13-1.65,0.15c-0.1,0.02-0.24,0.1-0.4,0.26
		c-0.02-0.15-0.06-0.21-0.16-0.21c-0.05,0-0.06,0.02-0.08,0.02l-4.14,0.68c-0.02-0.11-0.06-0.18-0.16-0.16
		c-2.15,0.45-1.57,0.53-4.44,0.79c-0.13,0.02-0.31,0.08-0.53,0.23c-0.02-0.11-0.08-0.18-0.23-0.16l-1.76,0.15l-1.18,0.29
		c-0.02-0.11-0.08-0.18-0.23-0.16c-0.66,0.18-1.24,0.29-1.71,0.32h-0.03c-0.29,0.03,0.15-0.08-0.08-0.18l-0.36,0.21
		c-0.52,0.05-0.24-0.03-2.02-0.02c-3.12,0.39-2.78,0.44-3.12,0.45l-1.16-0.08c0.02,0.11-0.05,0.19-0.18,0.19
		c-1.32-0.18-2-0.39-2.02-0.63c0.18-1.26,0.48-1.91,0.92-1.94l0.23-0.02l-0.19,0.42l0.23-0.02c0.42-0.23,0.61-0.44,0.6-0.63
		l-0.03-0.44l-0.42,0.03l-0.03-0.4c-0.03-0.31,0.02-0.58,0.13-0.81l0.95-1.53l0.03,0.4l0.45-0.03l-0.03-0.4l-0.26-0.37
		c0.34-0.29,0.6-0.45,0.81-0.47l-0.02-0.21l-0.61,0.05l-0.05-0.61c1.23-2.55,1.81-4.04,1.78-4.46l0.44,0.18
		c0.27-0.02,0.4-0.18,0.39-0.47l-0.42,0.03l-0.02-0.18c-0.03-0.31,0.03-0.6,0.16-0.86c0.66-0.69,0.97-1.39,0.9-2.12
		c0.13-0.02,0.19,0.05,0.21,0.19c0.57-0.32,1-1.18,1.32-2.6c1-1.81,2.42-5.43,4.28-10.84c3.55-9.56,3.41-10.58,3.91-12.84
		l-0.42,0.03c0.03,0.29-0.03,0.57-0.16,0.82c-0.29-0.11-0.52-0.18-0.68-0.16l-0.02-0.18c-0.06-0.82,0.27-1.81,1.05-2.97l0.19-0.02
		l0.36,1.39l0.42-0.03c-0.02-0.1,0.1-0.65,0.32-1.66c-0.02-0.21-0.18-0.34-0.5-0.36l-0.4,0.26c-0.03-0.29-0.02-1.05,0.03-2.26
		l-0.21,0.02c-0.35-0.36-0.53-0.65-0.55-0.89l-2.31,0.23c-0.02-0.16-0.1-0.4-0.26-0.71c-0.02-0.21,0.5-0.42,1.57-0.63l0.47,0.18
		l0.44-0.26c0.02,0.15,0.1,0.21,0.26,0.19l0.44-0.26c0.02,0.15,0.1,0.21,0.26,0.19l0.21-0.02l-0.03-0.47
		c-0.32,0.03-1.18,0.03-2.54-0.02L191.52,78l-0.02-0.26c-10.84,0.89-16.99,1.39-18.46,1.53c-0.19,0.02-0.95,0-2.29-0.03
		c0.02,0.18-0.15,0.27-0.47,0.31l-0.47-0.21l-1.58,0.4c-0.37,0.03-1,0.02-1.87-0.08c-0.24,0.19-0.53,0.31-0.89,0.34
		c-0.19,0.02,2.31-0.13,4.64-0.29c-0.24,0.19-0.61,0.31-1.13,0.36c-0.36,0.03-0.66-0.02-0.92-0.16c-0.36,0.16-1.5,0.42-3.42,0.81
		l-0.47-0.18l-7.56,1.16c-0.29-0.15-0.63-0.19-1.02-0.16c-0.4,0.03-1.08,0.18-2.02,0.44l-3.65,1.52l0.27,0.45
		c0.18-0.02,0.44-0.11,0.74-0.29l1.29,0.11l-0.16,1.21c-1.2,0.53-1.89,1.32-2.08,2.33c-1.79,0.79-2.68,1.36-2.68,1.7l0.02,0.21
		l0.27-0.02l0.48-0.26l0.57,0.68l0.08,0.94c0.03,0.29-2.99,6.64-9.03,19.04c-5.23,11.95-7.98,18.49-8.24,19.67
		c-1.79,0.5-2.83,1.23-3.13,2.2c0.03,0.31,0.57,0.52,1.6,0.6l0.05,0.47l-0.47,0.78l0.08,0.94c0.05,0.48,1.36,0.86,3.92,1.11
		c-0.02-0.16,0.06-0.26,0.24-0.27c0.05,0.58-0.11,1.71-0.48,3.39l0.27-0.02c1.07-1.45,1.57-2.46,1.52-3l0.23-0.02
		c0.26-0.02,0.53,0.27,0.86,0.9c-0.32,0.13-1.45,2.7-3.39,7.72l0.27,0.45l0.27-0.02c2.37-6.01,3.86-9.34,4.47-9.97
		c3.12-0.27,8.51-0.82,16.17-1.65l0.48-0.29c0.02,0.16,0.11,0.24,0.29,0.23l0.5-0.05l0.48-0.29c0.02,0.16,0.11,0.24,0.29,0.23
		l5.8-0.5c1.53-0.13,2.26-0.6,2.2-1.39c-0.02-0.21,0.89-0.45,2.71-0.71c0.18-0.02,0.44,0.03,0.79,0.15
		c-0.02-0.15,0.9-0.29,2.75-0.45c0.05-0.97,0.35-1.49,0.9-1.53l-0.05-0.47c-0.52,0.05-1.1,0.18-1.78,0.4
		c-1.21-0.06-1.99-0.16-2.31-0.27c-0.32,0.18-0.57,0.27-0.74,0.29l-4.04,0.13l-0.48,0.26c-0.02-0.15-0.11-0.21-0.29-0.19l-0.23,0.02
		l-0.52,0.26c-0.02-0.15-0.44-0.26-1.28-0.37l-0.52,0.31l-1,0.08l-0.02-0.26c5.2-0.57,7.77-1.28,7.7-2.12
		c0.34-0.03,0.52,0.13,0.55,0.47l1.52-0.39l-0.05-0.47l-12.45,0.34c0.02,0.16-0.06,0.26-0.24,0.27l-1.52-0.13
		c-0.39,0.03-0.71,0.15-0.97,0.34l-0.57-0.21c-1.57,0.13-2.73,0.32-3.51,0.57c-1.07-0.08-2.25-0.06-3.55,0.05l-2.79,0.24l-1.29-0.15
		c-0.06-0.82,1.53-4.88,4.83-12.15c0.95-2.46,1.83-3.99,2.66-4.57c0.18-0.02,0.44,0.05,0.79,0.19l1.99-0.68l1.02,0.16
		c1.71-0.15,3.7-0.63,5.98-1.47c0.57-0.05,0.98-0.02,1.29,0.11l1.52-0.36l4.52-0.39c1.92-0.16,4.01-0.58,6.27-1.28l-0.05-0.47
		c-0.84,0.08-1.28-0.06-1.31-0.4c-0.05-0.63-0.66-0.89-1.84-0.79l-0.05-0.47l1.24-0.36l3.26-0.27l-0.05-0.47
		c-0.13,0.02-0.79,0-2.02-0.05l-0.05-0.5l1.26-0.11c0.34-0.03,0.48-0.19,0.45-0.52c-1.7,0.05-2.55-0.03-2.57-0.26
		c-11.82,0.58-17.75,0.69-17.78,0.32c-0.18,0.02-0.42,0.13-0.74,0.32l-0.31-0.48c3.13-6.65,4.97-10.01,5.51-10.06
		c0.02,0.26-0.11,0.68-0.39,1.24l0.02,0.21l0.5-0.05c1.24-2.97,2.29-4.51,3.17-4.57c3.71-0.32-0.52-0.57,7.43-1.81
		c0.32,0.15,0.55,0.21,0.71,0.19c3.12-0.63,7.46-1.29,13.03-1.97l-0.03-0.47l-2.97,0.27l-0.03-0.47c0.36-0.03,0.65-0.15,0.89-0.34
		l0.02,0.26c0.16-0.02,0.39-0.13,0.68-0.32c0.52-0.05,0.9,0,1.18,0.15c1.03-0.27,1.87-0.44,2.49-0.5l1.86-0.18
		c0.45-0.29,0.66-0.55,0.65-0.79l-0.02-0.21c-0.47,0.05-1,0.02-1.63-0.1c-0.02-0.26,0.11-0.44,0.42-0.52l3.46-0.32l1.58-0.4
		c0.02,0.18,0.1,0.24,0.23,0.24c0.16-0.02,0.39-0.13,0.68-0.32c0.08,0.02,0.18,0.02,0.26,0.03c-0.21,0.44-0.45,1.07-0.69,1.89
		l-0.45,0.03c-0.03-0.31-0.11-0.58-0.26-0.82l-0.23,0.02c-4.2,11.69-6.07,17.14-9.95,26.12c-0.71,2.29-1.31,3.57-1.83,3.84
		c0.02,0.26,0.18,0.39,0.45,0.36c0.1,1.13-0.16,2.25-0.79,3.34c-1.79,5.17-2.99,8-3.6,8.51l0.4,2.44c0.02,0.26-0.11,0.4-0.39,0.44
		l-0.42,0.03c-0.06-0.68-0.31-1-0.74-0.95l-0.23,0.02c-0.55,0.86-0.97,1.84-1.24,2.99l0.42-0.03c0.57-0.37,0.82-0.81,0.78-1.31
		l0.84-0.08l0.48,0.18c-0.39,0.61-0.57,1.1-0.53,1.47l0.23,0.39l-0.55,1.29l0.02,0.21c0.48-0.05,1.02,0.11,1.58,0.45
		c0.39-0.03,0.81-0.21,1.28-0.52c0.48-0.05,2.29-0.06,5.41-0.06l1.57-0.53c1.91-0.02,2.21,0.03,3.86-0.11l0.68-0.06l0.36-0.24
		l0.02,0.21c1.73-0.15,1.84-0.03,3.2,0.13l0.02,0.21l-0.95,0.08l0.03,0.4c0.29-0.03,0.55-0.11,0.76-0.29
		c0.24-0.02,0.39,0.11,0.4,0.4c-0.39,0.03-0.82,0.13-1.31,0.29l-0.42-0.15c-0.66,0.18-0.52,0.23-0.97,0.26l-0.66-0.13
		c0.02,0.11-0.05,0.19-0.16,0.19c0.02,0.26,0.16,0.39,0.4,0.37l0.68-0.06l3.54-0.31l1.34-0.29c0.02,0.11,0.06,0.18,0.18,0.16
		l0.65-0.24l1.21-0.1c0.94-0.08,0.92-0.15,2.96-0.47c-0.02-0.13,0.03-0.18,0.13-0.19l0.02,0.18c3.31-0.57,3.52-0.6,4.05-0.78
		l0.05,0.1c0.82-0.19,0.36-0.15,0.58-0.31c0.02,0.15,0.06,0.21,0.15,0.21l0.58-0.05l-0.03-0.44l-1.18-0.02l-0.02-0.03
		c-0.05,0.02-0.08,0.02-0.13,0.03h-0.16v0.03c-0.79,0.16-0.81,0.05-1.32,0.1l-2.96,0.16l-0.02-0.21l1.65-0.23l0.6-0.05l0.34-0.24
		l0.02,0.21c2.33-0.19,3.15,0.39,13.91-1.91c0.58-0.05,0.53-0.53,0.9-1.53c-0.19,0.02-0.39-0.03-0.57-0.13
		c-0.89,0.34-1.36,0.18-3.07,0.45c-0.15,0.02-0.26-0.11-0.31-0.37l-0.02-0.18l1.65,0.05c0.31-0.03,0.9-0.08,1.79-0.58
		C214.7,125.92,214.36,126,214.55,125.99L214.55,125.99z M135.02,127.26l-0.76,0.06c-0.03-0.31,0.37-1.47,1.21-3.46l0.5-0.05
		C135.99,124.29,135.68,125.44,135.02,127.26L135.02,127.26z M135.94,123.58l-0.02-0.21c-0.02-0.26,0.15-0.44,0.5-0.52l0.02,0.21
		C136.46,123.37,136.3,123.55,135.94,123.58L135.94,123.58z M146.04,131.38l0.02,0.21l-1.26,0.11l-0.02-0.21L146.04,131.38
		L146.04,131.38z M144.52,131.25c0.02,0.26-0.37,0.55-1.21,0.84l-1.55-0.11l-0.5,0.05l-0.05-0.47L144.52,131.25L144.52,131.25z
		 M154.73,84.26l-0.76,0.06l-0.02-0.26c-0.02-0.26,0.13-0.44,0.45-0.52l0.27-0.02l0.52,0.21C155.21,84.05,155.07,84.23,154.73,84.26
		L154.73,84.26z M166.27,82l0.24-0.02l0.03,0.47l-0.69,0.06C165.84,82.26,165.97,82.08,166.27,82L166.27,82z M163.37,83.02
		l-1.15-0.13l-0.02-0.21c1.5-0.13,2-0.29,2.92-0.55c0.02,0.18,0.18,0.24,0.47,0.21l0.03,0.47l-0.45,0.05
		c-0.36,0.03-0.66-0.02-0.92-0.16C163.98,82.88,163.69,82.99,163.37,83.02L163.37,83.02z M164.8,87.2l-0.02-0.21l1.86-0.18
		l0.02,0.21L164.8,87.2L164.8,87.2z M166.79,85.59l-0.02-0.26l0.9-0.08l0.02,0.26L166.79,85.59L166.79,85.59z M167,82.42l-0.24,0.02
		l0.21-0.5l2.07-0.19l0.02,0.26C168.52,82.05,167.82,82.2,167,82.42L167,82.42z M168.05,86.88l-0.03-0.47l0.9-0.08
		c0.31-0.03,0.47,0.11,0.48,0.44L168.05,86.88L168.05,86.88z M173.53,79.42l-1.16,0.32l-0.21,0.02c-0.55,0.05-1.26,0.03-2.1-0.05
		C171.56,79.61,172.99,79.5,173.53,79.42L173.53,79.42z M172.28,84.59l0.02,0.21l-1.6,0.15l-0.02-0.21L172.28,84.59L172.28,84.59z
		 M174.9,85.83c-0.02-0.19-0.32-0.32-0.95-0.39l-1.6,0.45l-1.23,0.05c-0.27-0.19-0.42-0.32-0.44-0.42l1.42,0.08l3.2-0.52l1.63,0.06
		l0.02,0.26C176.14,85.49,175.46,85.64,174.9,85.83L174.9,85.83z M191.36,81.58c0.19,0.02,0.32,0.02,0.37,0.02
		c0.57-0.55,1.2-0.99,1.92-1.29c-0.58,2.55-1.49,4.44-2.73,5.67l-0.9-0.55C190.78,83.51,191.23,82.23,191.36,81.58L191.36,81.58z
		 M188.58,86.35l0.23-0.02c-0.31,0.58-0.58,0.89-0.81,0.9l-0.05-0.61C188.1,86.62,188.31,86.53,188.58,86.35L188.58,86.35z
		 M186.79,90.63c0.44-1.74,0.86-2.73,1.24-2.99l0.02,0.21c-0.23,1.62-0.58,2.47-1.05,2.54l0.08,1.02c-0.39,0.55-0.57,0.97-0.55,1.29
		l-0.23,0.02l-0.13-1.41C186.43,91.27,186.64,91.05,186.79,90.63L186.79,90.63z M186.09,92.95c0.02,0.24-0.15,0.81-0.47,1.68
		l-0.23,0.02l-0.05-0.61C185.66,93.33,185.92,92.97,186.09,92.95L186.09,92.95z M173.06,130.78l-0.02-0.18l0.42-0.03l0.05,0.61
		C173.28,131.2,173.12,131.07,173.06,130.78L173.06,130.78z M191.68,131.27c-0.02-0.15-0.08-0.21-0.23-0.19l-1.05,0.1l-0.02-0.21
		h0.1l2.49-0.21l0.02,0.21C192.26,130.99,191.83,131.11,191.68,131.27L191.68,131.27z M190.44,130.75c0.1,0.05,0.05,0.1,0,0.13
		C190.39,130.86,190.32,130.81,190.44,130.75L190.44,130.75z M190.57,127.84l-1.39,0.11l-0.02-0.21l1.26-0.11l1.1-0.27
		c0.02,0.13,0.08,0.18,0.23,0.16c1.31-0.23,1.18-0.29,1.81-0.34c0.21-0.02,0.34,0.11,0.36,0.37L190.57,127.84L190.57,127.84z
		 M195.43,127.42c-0.78-0.08-0.82-0.15-1.37-0.1l-0.02-0.18l1.24-0.11l0.02,0.18C195.17,127.23,195.64,127.26,195.43,127.42
		L195.43,127.42z M195.53,127.2l-0.02-0.18l0.68-0.06l0.02,0.18L195.53,127.2L195.53,127.2z M197.03,127.07l-0.02-0.18
		c0.11-0.02,0.27-0.1,0.48-0.26c0.34-0.03,0.52,0.19,0.55,0.45L197.03,127.07L197.03,127.07z M198.95,126.82l-0.02-0.21l0.82-0.06
		l0.02,0.21L198.95,126.82L198.95,126.82z M200.1,126.73c-0.02-0.24,0.08-0.39,0.29-0.42l0.27,0.36c-0.02-0.11,0.03-0.18,0.13-0.19
		l0.21,0.39L200.1,126.73L200.1,126.73z M215.99,124.85l0.02-0.02v-0.02C216.01,124.82,215.99,124.84,215.99,124.85L215.99,124.85z
		 M216.28,124.64c0.13-0.08,0.19-0.16-0.11-0.21c-0.15,0.16,0.16,0.21-0.16,0.23l0.02,0.15c0.03-0.03,0.11-0.08,0.18-0.13
		l-0.18,0.15v0.02l-0.34,0.44l0.68-0.24h0.08l-0.03-0.4L216.28,124.64L216.28,124.64z M217.46,125.57l-0.13,0.02l0.03,0.4l0.95-0.08
		C218.3,125.65,217.67,125.57,217.46,125.57L217.46,125.57z"/>
</g>
</svg>
