<?xml version="1.0" encoding="utf-8"?>
<!-- Generator: Adobe Illustrator 26.0.3, SVG Export Plug-In . SVG Version: 6.00 Build 0)  -->
<svg version="1.1" id="Calque_1" xmlns="http://www.w3.org/2000/svg" xmlns:xlink="http://www.w3.org/1999/xlink" x="0px" y="0px"
	 viewBox="0 0 220 220" style="enable-background:new 0 0 220 220;" xml:space="preserve">
<style type="text/css">
	.st0{display:none;}
	.st1{display:inline;fill-rule:evenodd;clip-rule:evenodd;fill:#EC5990;stroke:#FFFFFF;stroke-width:17;}
	.st2{display:inline;fill-rule:evenodd;clip-rule:evenodd;fill:#FFFFFF;}
	.st3{fill:#FEFEFE;}
	.st4{fill:#7CB343;}
	.st5{fill:#E43B35;}
	.st6{fill:#2DABE0;}
	.st7{fill:#FDC014;}
	.st8{fill:#0278BD;}
	.st9{fill:#0177BC;}
	.st10{fill:#F59020;}
	.st11{fill:#EFF6E7;}
	.st12{fill:#DAEAC5;}
	.st13{fill:#DAEAC6;}
	.st14{fill:#FBE8EB;}
	.st15{fill:#F8CAD0;}
</style>
<g class="st0">
	<path class="st1" d="M166.56,17.92c10.08,0,19.21,4.09,25.81,10.69s10.69,15.73,10.69,25.81l0,0v111.99
		c0,10.08-4.09,19.21-10.69,25.81c-6.84,6.86-16.13,10.7-25.81,10.69l0,0H53.57c-10.08,0-19.21-4.09-25.81-10.69
		s-10.69-15.73-10.69-25.81l0,0V54.42c0-10.08,4.09-19.21,10.69-25.81c6.84-6.86,16.13-10.7,25.81-10.69l0,0H166.56z"/>
	<path class="st2" d="M143.95,63.02h-20.87c-1.53-4.77-5.98-8-11.01-8s-9.48,3.24-11.01,8H80.18c-8.22,0-14.89,6.63-14.89,14.81
		v77.18c0,8.18,6.67,14.81,14.89,14.81h63.77c8.22,0,14.89-6.63,14.89-14.81V77.83C158.84,69.65,152.17,63.02,143.95,63.02
		L143.95,63.02z M102.11,65.71c0.65,0.02,1.22-0.43,1.35-1.06c0.89-4.05,4.49-6.93,8.65-6.93s7.76,2.88,8.65,6.93
		c0.14,0.63,0.71,1.08,1.35,1.06h7.28v8.82c0,2.23-1.82,4.04-4.06,4.04H98.87c-2.24,0-4.06-1.81-4.06-4.04v-8.82H102.11
		L102.11,65.71z M156.13,155.01c0,6.69-5.45,12.12-12.18,12.12H80.18c-6.73,0-12.18-5.43-12.18-12.12V77.83
		c0-6.69,5.45-12.12,12.18-12.12h11.92v8.82c0,3.72,3.03,6.73,6.77,6.73h26.39c3.74,0,6.77-3.01,6.77-6.73v-8.82h11.92
		c6.73,0,12.18,5.43,12.18,12.12L156.13,155.01L156.13,155.01z M141.3,107.03h-23.82c-0.75,0-1.35,0.6-1.35,1.35l0,0
		c0,0.75,0.61,1.35,1.35,1.35l0,0h23.82c0.75,0,1.35-0.6,1.35-1.35l0,0C142.65,107.63,142.04,107.03,141.3,107.03L141.3,107.03
		L141.3,107.03z M106.11,107.03H82.29c-0.75,0-1.35,0.6-1.35,1.35l0,0c0,0.75,0.61,1.35,1.35,1.35l0,0h23.82
		c0.75,0,1.35-0.6,1.35-1.35l0,0C107.46,107.63,106.86,107.03,106.11,107.03L106.11,107.03
		C106.11,107.03,106.11,107.03,106.11,107.03z M141.37,139.62h-23.89c-0.75,0-1.35,0.6-1.35,1.35l0,0c0,0.75,0.61,1.35,1.35,1.35
		l0,0h23.89c0.75,0,1.35-0.6,1.35-1.35l0,0C142.72,140.22,142.11,139.62,141.37,139.62L141.37,139.62L141.37,139.62L141.37,139.62z
		 M106.18,139.62H82.29c-0.75,0-1.35,0.6-1.35,1.35l0,0c0,0.75,0.61,1.35,1.35,1.35l0,0h23.89c0.75,0,1.35-0.6,1.35-1.35l0,0
		C107.53,140.22,106.92,139.62,106.18,139.62L106.18,139.62C106.18,139.62,106.18,139.62,106.18,139.62z"/>
</g>
<g>
	<g>
		<path class="st3" d="M219,219c-72.66,0-145.31,0-218,0C1,146.35,1,73.71,1,1c72.65,0,145.32,0,218,0C219,73.66,219,146.33,219,219
			z M59.05,88.46c0-2.68,0.01-5.36,0.01-8.04c0.72-0.28,1.43-0.57,2.15-0.83c13.53-4.78,21.59-18.44,19.13-32.45
			C78.28,35.27,68.98,25.9,57.02,23.6c-11.58-2.23-23.62,3.11-29.96,13.3c-6.36,10.2-5.68,23.26,1.63,32.89
			c4.05,5.33,9.48,8.57,15.74,10.63c0.03,2.98,0.06,5.96,0.09,8.94c-0.03,11.51-0.07,23.03-0.08,34.54c0,5.37,0.06,10.73,0.09,16.1
			c-0.73,0.27-1.45,0.54-2.18,0.8c-13.07,4.51-21.11,17.41-19.36,31.11c1.52,11.98,10.41,21.93,21.92,24.56
			c12.32,2.81,24.66-2.18,31.34-12.69c6.54-10.3,5.92-23.54-1.52-33.23c-4.08-5.31-9.49-8.57-15.79-10.54
			c0.19-1.81,0.39-3.62,0.58-5.43c1.23-5.25,4.16-9.4,8.21-12.83c4.51-3.16,9.53-4.34,15.01-4.32c23.45,0.08,46.89,0.06,70.34,0.02
			c9.14-0.01,17.01-5.28,20.35-13.46c1.93-4.73,1.8-9.68,1.58-14.65c0.04-2.81,0.07-5.63,0.11-8.44c0.01-0.15,0.03-0.3,0.04-0.45
			c0.31-0.14,0.61-0.32,0.94-0.43c14.62-4.64,23.29-19.18,20.1-33.69c-3.35-15.23-16.93-24.96-32.41-22.8
			c-11.52,1.61-19.49,8.22-23.33,19.14c-3.82,10.86-1.45,20.78,6.2,29.38c3.72,4.19,8.56,6.61,13.77,8.4
			c0.02,0.15,0.03,0.3,0.05,0.45c0.05,2.81,0.1,5.62,0.14,8.43c-0.05,1.62-0.12,3.25-0.13,4.87c-0.02,6.18-2.6,8.78-8.75,8.78
			c-23.41,0-46.83,0.01-70.24-0.01c-4.78,0-9.43,0.67-13.83,2.63c-2.84,1.53-5.68,3.06-8.52,4.59c-0.03-0.91-0.09-1.82-0.1-2.73
			c-0.05-6.03-0.08-12.06-0.12-18.09C58.98,89.05,59.01,88.75,59.05,88.46z"/>
		<path class="st4" d="M160.43,80.42c-5.21-1.79-10.05-4.22-13.77-8.4c-7.65-8.6-10.01-18.52-6.2-29.38
			c3.84-10.92,11.81-17.53,23.33-19.14c15.48-2.16,29.06,7.57,32.41,22.8c3.19,14.51-5.48,29.05-20.1,33.69
			c-0.33,0.1-0.63,0.28-0.94,0.43c-0.13-0.01-0.26,0.01-0.38,0.07c-4.66,0.97-9.32,0.97-13.98,0
			C160.69,80.43,160.56,80.41,160.43,80.42z M160.75,64.74c5.59,3.23,12.73,2.27,17.3-2.31c4.61-4.62,5.55-11.67,2.33-17.31
			c-3.21-6.76-12.15-9.57-19.22-5.92c-5.32,2.75-8.06,7.34-7.94,13.22C153.34,57.81,155.71,62.19,160.75,64.74z"/>
		<path class="st4" d="M44.43,80.4c-6.25-2.05-11.68-5.29-15.74-10.63c-7.32-9.63-7.99-22.69-1.63-32.89
			c6.34-10.18,18.38-15.52,29.96-13.3c11.96,2.3,21.25,11.68,23.33,23.54c2.45,14.01-5.61,27.67-19.13,32.45
			c-0.72,0.26-1.44,0.55-2.15,0.83c-0.1,0-0.19,0.03-0.28,0.07C54,81.4,49.21,81.41,44.43,80.4z M44.72,64.76
			c5.61,3.21,12.72,2.26,17.29-2.33c4.58-4.59,5.54-11.74,2.32-17.29c-2.58-5.55-9.15-8.53-15.87-7.2
			c-5.91,1.17-10.6,6.56-11.33,13.02C36.52,56.35,39.89,62.47,44.72,64.76z"/>
		<path class="st5" d="M58.94,139.98c6.3,1.96,11.71,5.23,15.79,10.54c7.44,9.7,8.07,22.93,1.52,33.23
			c-6.67,10.5-19.02,15.5-31.34,12.69c-11.51-2.63-20.39-12.58-21.92-24.56c-1.74-13.7,6.29-26.6,19.36-31.11
			c0.73-0.25,1.45-0.53,2.18-0.8C49.33,139.02,54.13,139,58.94,139.98z M44.71,180.82c5.89,3.24,12.86,2.24,17.45-2.49
			c4.48-4.62,5.36-11.59,2.17-17.15c-2.55-5.47-9.02-8.44-15.66-7.2c-5.96,1.11-10.61,6.29-11.51,12.83
			C36.42,172.2,39.8,178.47,44.71,180.82z"/>
		<path class="st6" d="M175.01,89.31c0.22,4.96,0.35,9.92-1.58,14.65c-3.34,8.18-11.21,13.45-20.35,13.46
			c-23.45,0.03-46.89,0.06-70.34-0.02c-5.49-0.02-10.5,1.16-15.01,4.32c-0.02-5.38-0.04-10.76-0.05-16.14
			c4.4-1.96,9.05-2.63,13.83-2.63c23.41,0.01,46.83,0.01,70.24,0.01c6.15,0,8.73-2.6,8.75-8.78c0.01-1.62,0.08-3.25,0.13-4.87
			C165.42,89.3,170.22,89.3,175.01,89.31z"/>
		<path class="st7" d="M58.94,139.98c-4.8-0.98-9.6-0.96-14.4,0c-0.03-5.37-0.1-10.73-0.09-16.1c0.01-11.51,0.05-23.03,0.08-34.54
			c4.81,0,9.61,0,14.42,0c0.04,6.03,0.07,12.06,0.12,18.09c0.01,0.91,0.06,1.82,0.1,2.73c-0.02,7.76-0.06,15.53-0.06,23.29
			c0,0.37,0.27,0.73,0.42,1.1C59.32,136.36,59.13,138.17,58.94,139.98z"/>
		<path class="st8" d="M59.52,134.55c-0.15-0.37-0.42-0.73-0.42-1.1c0-7.76,0.03-15.53,0.06-23.29c2.84-1.53,5.68-3.06,8.52-4.59
			c0.02,5.38,0.04,10.76,0.05,16.14C63.68,125.15,60.74,129.3,59.52,134.55z"/>
		<path class="st9" d="M175.01,89.31c-4.8,0-9.59,0-14.39-0.01c-0.05-2.81-0.1-5.62-0.14-8.43c0.11-0.13,0.21-0.25,0.32-0.38
			c4.66,0.97,9.32,0.97,13.98,0c0.11,0.13,0.22,0.25,0.34,0.38C175.08,83.68,175.05,86.49,175.01,89.31z"/>
		<path class="st10" d="M58.94,89.34c-4.81,0-9.61,0-14.42,0c-0.03-2.98-0.06-5.96-0.09-8.94c4.78,1,9.57,1,14.36,0.09
			c0.09,2.66,0.18,5.31,0.27,7.97C59.01,88.75,58.98,89.05,58.94,89.34z"/>
		<path class="st7" d="M59.05,88.46c-0.09-2.66-0.18-5.31-0.27-7.97c0.09-0.04,0.18-0.07,0.28-0.07
			C59.06,83.1,59.06,85.78,59.05,88.46z"/>
		<path class="st6" d="M160.8,80.49c-0.11,0.13-0.21,0.25-0.32,0.38c-0.02-0.15-0.03-0.3-0.05-0.45
			C160.56,80.41,160.69,80.43,160.8,80.49z"/>
		<path class="st6" d="M175.12,80.86c-0.11-0.13-0.22-0.25-0.34-0.38c0.12-0.06,0.25-0.08,0.38-0.07
			C175.15,80.56,175.13,80.71,175.12,80.86z"/>
		<path class="st11" d="M180.39,45.12c3.23,5.64,2.28,12.69-2.33,17.31c-4.57,4.59-11.72,5.54-17.3,2.31
			c-0.14-0.54-0.24-1.1-0.44-1.62c-3.06-8.03,2.02-17.3,10.78-19.07C174.3,43.41,177.36,44.1,180.39,45.12z"/>
		<path class="st12" d="M180.39,45.12c-3.02-1.02-6.09-1.71-9.3-1.07c-8.75,1.77-13.83,11.04-10.78,19.07
			c0.2,0.52,0.3,1.08,0.44,1.62c-5.04-2.56-7.42-6.94-7.53-12.32c-0.12-5.88,2.62-10.48,7.94-13.22
			C168.23,35.55,177.17,38.36,180.39,45.12z"/>
		<path class="st11" d="M64.34,45.13c3.22,5.55,2.26,12.7-2.32,17.29c-4.58,4.59-11.68,5.54-17.29,2.33
			c-0.08-0.34-0.13-0.69-0.26-1.01c-2.99-7.35,0.52-15.7,7.78-18.77C56.34,43.24,60.33,43.64,64.34,45.13z"/>
		<path class="st13" d="M64.34,45.13c-4.01-1.49-7.99-1.89-12.09-0.16c-7.26,3.07-10.77,11.42-7.78,18.77
			c0.13,0.32,0.18,0.67,0.26,1.01c-4.83-2.28-8.2-8.41-7.59-13.8c0.73-6.46,5.43-11.85,11.33-13.02
			C55.19,36.61,61.75,39.59,64.34,45.13z"/>
		<path class="st14" d="M64.33,161.18c3.19,5.56,2.31,12.53-2.17,17.15c-4.59,4.74-11.56,5.73-17.45,2.49
			c-0.08-0.34-0.11-0.7-0.24-1.01c-3.3-8.25,1.38-17.37,9.94-19.53C57.86,159.4,61.09,160.19,64.33,161.18z"/>
		<path class="st15" d="M64.33,161.18c-3.24-0.99-6.46-1.78-9.91-0.91c-8.56,2.17-13.24,11.28-9.94,19.53
			c0.13,0.32,0.16,0.68,0.24,1.01c-4.91-2.35-8.29-8.62-7.55-14.02c0.9-6.54,5.54-11.72,11.51-12.83
			C55.31,152.74,61.77,155.71,64.33,161.18z"/>
	</g>
</g>
</svg>
