<?xml version="1.0" encoding="utf-8"?>
<!-- Generator: Adobe Illustrator 26.0.3, SVG Export Plug-In . SVG Version: 6.00 Build 0)  -->
<svg version="1.1" id="Calque_1" xmlns="http://www.w3.org/2000/svg" xmlns:xlink="http://www.w3.org/1999/xlink" x="0px" y="0px"
	 viewBox="0 0 220 220" style="enable-background:new 0 0 220 220;" xml:space="preserve">
<style type="text/css">
	.st0{display:none;}
	.st1{display:inline;fill-rule:evenodd;clip-rule:evenodd;fill:#EC5990;stroke:#FFFFFF;stroke-width:17;}
	.st2{display:inline;fill-rule:evenodd;clip-rule:evenodd;fill:#FFFFFF;}
	.st3{fill:#FEFEFE;}
	.st4{fill:#D2D2D2;}
	.st5{fill:#434343;}
	.st6{fill:#F1F0F0;}
	.st7{fill:#AA0D19;}
	.st8{fill:#E86076;}
</style>
<g class="st0">
	<path class="st1" d="M166.56,17.92c10.08,0,19.21,4.09,25.81,10.69s10.69,15.73,10.69,25.81l0,0v111.99
		c0,10.08-4.09,19.21-10.69,25.81c-6.84,6.86-16.13,10.7-25.81,10.69l0,0H53.57c-10.08,0-19.21-4.09-25.81-10.69
		s-10.69-15.73-10.69-25.81l0,0V54.42c0-10.08,4.09-19.21,10.69-25.81c6.84-6.86,16.13-10.7,25.81-10.69l0,0H166.56z"/>
	<path class="st2" d="M143.95,63.02h-20.87c-1.53-4.77-5.98-8-11.01-8s-9.48,3.24-11.01,8H80.18c-8.22,0-14.89,6.63-14.89,14.81
		v77.18c0,8.18,6.67,14.81,14.89,14.81h63.77c8.22,0,14.89-6.63,14.89-14.81V77.83C158.84,69.65,152.17,63.02,143.95,63.02
		L143.95,63.02z M102.11,65.71c0.65,0.02,1.22-0.43,1.35-1.06c0.89-4.05,4.49-6.93,8.65-6.93s7.76,2.88,8.65,6.93
		c0.14,0.63,0.71,1.08,1.35,1.06h7.28v8.82c0,2.23-1.82,4.04-4.06,4.04H98.87c-2.24,0-4.06-1.81-4.06-4.04v-8.82H102.11
		L102.11,65.71z M156.13,155.01c0,6.69-5.45,12.12-12.18,12.12H80.18c-6.73,0-12.18-5.43-12.18-12.12V77.83
		c0-6.69,5.45-12.12,12.18-12.12h11.92v8.82c0,3.72,3.03,6.73,6.77,6.73h26.39c3.74,0,6.77-3.01,6.77-6.73v-8.82h11.92
		c6.73,0,12.18,5.43,12.18,12.12L156.13,155.01L156.13,155.01z M141.3,107.03h-23.82c-0.75,0-1.35,0.6-1.35,1.35l0,0
		c0,0.75,0.61,1.35,1.35,1.35l0,0h23.82c0.75,0,1.35-0.6,1.35-1.35l0,0C142.65,107.63,142.04,107.03,141.3,107.03L141.3,107.03
		L141.3,107.03z M106.11,107.03H82.29c-0.75,0-1.35,0.6-1.35,1.35l0,0c0,0.75,0.61,1.35,1.35,1.35l0,0h23.82
		c0.75,0,1.35-0.6,1.35-1.35l0,0C107.46,107.63,106.86,107.03,106.11,107.03L106.11,107.03
		C106.11,107.03,106.11,107.03,106.11,107.03z M141.37,139.62h-23.89c-0.75,0-1.35,0.6-1.35,1.35l0,0c0,0.75,0.61,1.35,1.35,1.35
		l0,0h23.89c0.75,0,1.35-0.6,1.35-1.35l0,0C142.72,140.22,142.11,139.62,141.37,139.62L141.37,139.62L141.37,139.62L141.37,139.62z
		 M106.18,139.62H82.29c-0.75,0-1.35,0.6-1.35,1.35l0,0c0,0.75,0.61,1.35,1.35,1.35l0,0h23.89c0.75,0,1.35-0.6,1.35-1.35l0,0
		C107.53,140.22,106.92,139.62,106.18,139.62L106.18,139.62C106.18,139.62,106.18,139.62,106.18,139.62z"/>
</g>
<g>
	<g>
		<path class="st3" d="M103.61,220c-34.05,0-68.1,0-102.15,0c0-73.33,0-146.67,0-220C73.64,0,145.82,0,218,0c0,73.33,0,146.67,0,220
			c-34.19,0-68.38,0-102.57,0c0.33-0.28,0.62-0.73,0.99-0.81c15.45-3.52,28.56-11.52,40.68-21.37c0.9-0.73,1.5-1.83,2.23-2.75
			c0.85-0.39,1.84-0.62,2.52-1.2c7.69-6.49,15.11-13.27,21.05-21.46c3.71-5.11,7.49-10.21,10.68-15.65
			c4.92-8.4,8.06-17.51,8.04-27.37c-0.01-5.26-0.56-10.53-1.07-15.78c-1.74-18.2-3.41-36.41-5.41-54.58
			c-1.41-12.85-3.17-25.67-6.71-38.15c-1.57-5.53-3.09-11.11-6.69-15.79c-3.69-4.79-8.14-5.73-13.33-2.72
			c-4.71,2.74-8.47,6.63-11.46,11.06c-6.18,9.17-12,18.59-18.09,28.09c-26-4.3-24.77-5.61-59.1,0.06
			c-2.99-5.22-5.83-10.46-8.93-15.54c-2.71-4.42-5.55-8.78-8.63-12.95C59.07,8.84,55.46,4.95,50.7,2.41
			c-5.05-2.69-9.32-1.92-13,2.42c-1.26,1.49-2.4,3.15-3.26,4.89c-3.41,6.92-5.3,14.33-6.79,21.85c-3.78,19.08-5.14,38.44-6.77,57.78
			c-0.85,10.09-1.34,20.24-2.79,30.24c-1.6,11.04,0.04,21.38,4.42,31.45c4.19,9.64,10.3,18.12,17.24,25.81
			c6.28,6.96,13.55,13.02,20.38,19.47c0.61,0.42,1.23,0.82,1.82,1.27c4.01,2.99,7.86,6.23,12.06,8.94
			c8.85,5.71,18.22,10.38,28.62,12.65C102.99,219.27,103.28,219.72,103.61,220z"/>
		<path class="st4" d="M159.33,195.07c-0.74,0.93-1.34,2.02-2.23,2.75c-12.12,9.85-25.23,17.84-40.68,21.37
			c-0.37,0.08-0.66,0.53-0.99,0.81c-0.7,0-1.41,0-2.11,0c-0.14,0-0.28,0-0.42,0c-3.1,0-6.19,0-9.29,0
			c-0.33-0.28-0.61-0.73-0.98-0.81c-10.4-2.28-19.77-6.94-28.62-12.65c-4.19-2.71-8.05-5.95-12.06-8.94
			c-0.59-0.44-1.21-0.84-1.82-1.27c-0.28-0.61-0.43-1.33-0.85-1.82c-6.56-7.58-11.75-16.03-15.91-25.13
			c-0.96-2.1-1.85-4.22-2.77-6.33c0.44,0.17,0.99,0.22,1.29,0.53c1.22,1.25,2.29,2.67,3.55,3.87c4.2,4.01,8.35,8.08,12.72,11.88
			c6.84,5.95,14.27,11.13,22.32,15.3c4.9,2.54,10.14,4.44,15.08,6.91c4.31,2.16,8.94,3.04,13.54,3.01
			c5.32-0.03,10.64-0.8,15.56-3.43c5.42-2.9,11.26-5.06,16.6-8.09c8.3-4.7,16.1-10.21,23.09-16.75c4.19-3.92,8.13-8.1,12.21-12.13
			c0.63-0.62,1.41-1.08,2.13-1.61c-3.23,8-6.98,15.75-11.97,22.82C164.37,188.69,161.8,191.84,159.33,195.07z"/>
		<path class="st3" d="M112.89,220c0.14,0,0.28,0,0.42,0C113.18,220,113.04,220,112.89,220z"/>
		<path class="st5" d="M40.6,163.06c0.92,2.11,1.82,4.24,2.77,6.33c4.16,9.1,9.35,17.54,15.91,25.13c0.42,0.49,0.57,1.21,0.85,1.82
			c-6.83-6.46-14.1-12.52-20.38-19.47c-6.95-7.7-13.05-16.17-17.24-25.81c-4.38-10.07-6.03-20.41-4.42-31.45
			c1.45-10.01,1.95-20.15,2.79-30.24c1.62-19.34,2.98-38.7,6.77-57.78c1.49-7.51,3.39-14.93,6.79-21.85c0.86-1.75,2-3.41,3.26-4.89
			c3.68-4.34,7.96-5.11,13-2.42c4.77,2.54,8.37,6.43,11.51,10.68c3.08,4.17,5.92,8.53,8.63,12.95c3.11,5.08,5.95,10.31,8.93,15.54
			c34.33-5.67,33.11-4.35,59.1-0.06c6.09-9.5,11.91-18.92,18.09-28.09c2.99-4.43,6.74-8.32,11.46-11.06
			c5.19-3.01,9.64-2.07,13.33,2.72c3.6,4.68,5.12,10.26,6.69,15.79c3.54,12.48,5.3,25.3,6.71,38.15
			c1.99,18.17,3.67,36.38,5.41,54.58c0.5,5.25,1.06,10.52,1.07,15.78c0.01,9.86-3.12,18.97-8.04,27.37
			c-3.18,5.44-6.97,10.54-10.68,15.65c-5.94,8.19-13.36,14.96-21.05,21.46c-0.69,0.58-1.68,0.81-2.52,1.2
			c2.47-3.23,5.04-6.38,7.38-9.69c4.99-7.07,8.74-14.81,11.97-22.82c1.85-4.32,3.8-8.6,5.54-12.96c2.44-6.13,4.81-12.3,5.31-18.99
			c0.71-9.58-2.16-17.7-10.14-23.4c-3.17-2.26-6.7-4.15-10.32-5.6c-3.83-1.54-6.11-4.04-7.12-7.9c-0.37-1.43-0.75-2.85-1.1-4.28
			c-0.89-3.65-3.1-6.17-6.7-7.19c-2.75-0.78-5.62-1.69-8.43-1.63c-4.77,0.1-7-2.5-8.51-6.4c-0.2-0.52-0.46-1.02-0.71-1.53
			c-1.72-3.41-3.61-4.21-7.22-2.87c-1.31,0.49-2.61,1.1-3.77,1.86c-2.7,1.78-5.29,3.71-7.96,5.53c-0.68,0.47-1.48,0.77-2.7,1.39
			c0.14-2.08,0.27-3.53,0.34-4.99c0.13-2.73,0.48-5.48,0.26-8.18c-0.31-3.89-2.6-5.58-6.6-5.43c-3.27,0.12-5.17,2.05-5.26,5.85
			c-0.07,3.01,0.32,6.03,0.38,9.05c0.02,1.05-0.32,2.12-0.5,3.17c-0.91-0.45-1.89-0.82-2.73-1.38c-3.21-2.14-6.28-4.51-9.6-6.47
			c-2.98-1.75-5.05-1.33-7.3,1.29c-1.59,1.85-2.99,3.92-4.2,6.04c-0.78,1.37-1.7,2.02-3.22,2.25c-3.19,0.49-6.35,1.17-9.54,1.71
			c-3.29,0.56-5.72,2.21-7.1,5.3c-1.23,2.75-2.57,5.46-3.69,8.25c-1.11,2.76-2.71,4.66-5.57,6.06c-4.44,2.17-8.74,4.84-12.64,7.88
			c-7.39,5.77-9.73,13.79-8.32,22.8C31.32,142.87,36.11,152.92,40.6,163.06z M31.4,85.55C41.74,69.5,53.8,56.1,69.89,46.78
			c-4.05-9.04-8.24-17.78-14.28-25.44c-1.75-2.22-3.94-4.22-6.25-5.87c-2.48-1.76-5.06-1.22-6.88,1.21
			c-1.24,1.66-2.44,3.56-2.92,5.53c-1.49,6.05-3.02,12.14-3.81,18.31c-1.27,9.89-1.97,19.86-2.91,29.79
			C32.37,75.19,31.92,80.07,31.4,85.55z M187.62,84.89c-0.04-0.63-0.07-1.26-0.13-1.88c-0.67-7.27-1.24-14.56-2.05-21.82
			c-1.16-10.39-2.23-20.81-3.86-31.13c-0.67-4.21-2.34-8.38-4.23-12.23c-1.87-3.81-5.24-4.36-8.62-1.78
			c-2.04,1.56-3.9,3.46-5.47,5.5c-5.9,7.66-10.11,16.28-14.09,25.23C165.28,56.11,177.33,69.51,187.62,84.89z"/>
		<path class="st6" d="M40.6,163.06c-4.48-10.13-9.27-20.19-11-31.25c-1.41-9.02,0.93-17.03,8.32-22.8c3.9-3.05,8.2-5.71,12.64-7.88
			c2.86-1.4,4.46-3.3,5.57-6.06c1.12-2.79,2.46-5.5,3.69-8.25c1.38-3.09,3.82-4.74,7.1-5.3c3.18-0.54,6.35-1.21,9.54-1.71
			c1.51-0.23,2.44-0.88,3.22-2.25c1.21-2.13,2.6-4.19,4.2-6.04c2.25-2.62,4.32-3.05,7.3-1.29c3.32,1.95,6.39,4.33,9.6,6.47
			c0.84,0.56,1.82,0.92,2.73,1.38c0.18-1.06,0.52-2.12,0.5-3.17c-0.06-3.02-0.45-6.04-0.38-9.05c0.09-3.79,1.99-5.72,5.26-5.85
			c4-0.15,6.29,1.55,6.6,5.43c0.22,2.7-0.14,5.45-0.26,8.18c-0.07,1.46-0.2,2.91-0.34,4.99c1.23-0.62,2.02-0.93,2.7-1.39
			c2.67-1.82,5.26-3.75,7.96-5.53c1.16-0.77,2.46-1.38,3.77-1.86c3.6-1.34,5.5-0.54,7.22,2.87c0.25,0.5,0.51,1,0.71,1.53
			c1.51,3.9,3.74,6.49,8.51,6.4c2.8-0.06,5.67,0.85,8.43,1.63c3.59,1.02,5.81,3.54,6.7,7.19c0.35,1.43,0.72,2.86,1.1,4.28
			c1.01,3.86,3.29,6.36,7.12,7.9c3.61,1.45,7.15,3.34,10.32,5.6c7.99,5.7,10.85,13.81,10.14,23.4c-0.5,6.69-2.86,12.86-5.31,18.99
			c-1.74,4.36-3.69,8.64-5.54,12.96c-0.71,0.53-1.5,0.99-2.13,1.61c-4.08,4.03-8.02,8.22-12.21,12.13
			c-6.99,6.54-14.79,12.05-23.09,16.75c-5.34,3.03-11.18,5.19-16.6,8.09c-4.92,2.63-10.24,3.4-15.56,3.43
			c-4.61,0.02-9.23-0.85-13.54-3.01c-4.94-2.48-10.18-4.37-15.08-6.91c-8.05-4.17-15.48-9.35-22.32-15.3
			c-4.38-3.81-8.52-7.88-12.72-11.88c-1.26-1.21-2.33-2.62-3.55-3.87C41.58,163.28,41.03,163.22,40.6,163.06z M105.42,144.01
			c-1.65,1.8-3.01,4.03-4.99,5.33c-6.64,4.38-13.79,5.99-21.58,2.97c-1.64-0.63-3.55-0.78-5.33-0.78c-2.26,0-3.26,1.67-3.71,3.66
			c-0.46,2.02,0.69,3.23,2.34,3.98c2.1,0.95,4.36,1.59,6.39,2.66c1.37,0.72,2.95,1.69,3.61,2.98c1.97,3.82,4.83,6.65,8.37,8.92
			c1.36,0.93,2.61,2.11,4.1,2.76c7.29,3.18,14.86,3.6,22.59,1.91c4.04-0.88,7.92-2.13,10.98-5.12c3.7-2.22,6.71-5.17,8.56-9.06
			c0.82-1.71,1.94-2.19,3.6-2.6c2.56-0.63,5.15-1.4,7.48-2.6c1.97-1.01,2.39-3.53,1.46-5.37c-0.92-1.83-2.88-2.75-4.95-2.25
			c-0.88,0.21-1.73,0.56-2.6,0.84c-7.87,2.55-15.44,2.07-22.31-2.79c-1.95-1.38-3.29-3.61-4.9-5.46c0.64-0.28,1.29-0.54,1.92-0.83
			c4.98-2.28,8.42-5.96,10.16-11.19c2.04-6.14-1.86-11.36-6.07-12.26c-6.61-1.41-13.4-2.03-20.04-0.19
			c-7.16,1.98-10.33,7.94-6.43,14.93C96.64,139.07,100.51,142.16,105.42,144.01z M88.91,108.5c0-6.62-4.97-11.78-11.3-11.72
			c-6.44,0.06-11.48,5.05-11.47,11.36c0.01,6.51,5.12,11.77,11.38,11.72C84.01,119.8,88.91,114.92,88.91,108.5z M153.51,108.48
			c-0.01-6.61-5.01-11.78-11.32-11.7c-6.46,0.09-11.45,5.05-11.45,11.38c0,6.47,5.16,11.77,11.39,11.7
			C148.65,119.77,153.52,114.9,153.51,108.48z"/>
		<path class="st6" d="M31.4,85.55c0.52-5.48,0.97-10.36,1.43-15.24c0.94-9.93,1.64-19.9,2.91-29.79
			c0.79-6.17,2.32-12.25,3.81-18.31c0.49-1.97,1.68-3.87,2.92-5.53c1.82-2.44,4.4-2.97,6.88-1.21c2.31,1.64,4.49,3.64,6.25,5.87
			c6.04,7.66,10.24,16.39,14.28,25.44C53.8,56.1,41.74,69.5,31.4,85.55z"/>
		<path class="st6" d="M187.62,84.89c-10.29-15.38-22.34-28.77-38.45-38.12c3.98-8.94,8.19-17.57,14.09-25.23
			c1.57-2.04,3.43-3.94,5.47-5.5c3.38-2.58,6.75-2.03,8.62,1.78c1.89,3.86,3.56,8.03,4.23,12.23c1.63,10.32,2.71,20.74,3.86,31.13
			c0.81,7.26,1.38,14.54,2.05,21.82C187.55,83.63,187.58,84.26,187.62,84.89z"/>
		<path class="st7" d="M90.52,173.73c-3.53-2.27-6.4-5.1-8.37-8.92c-0.66-1.29-2.24-2.26-3.61-2.98c-2.04-1.07-4.29-1.71-6.39-2.66
			c-1.65-0.75-2.8-1.95-2.34-3.98c0.45-1.99,1.45-3.66,3.71-3.66c1.78,0,3.69,0.14,5.33,0.78c7.79,3.02,14.93,1.41,21.58-2.97
			c1.98-1.3,3.34-3.53,4.99-5.33c3.03-0.01,6.07-0.01,9.1-0.01c1.62,1.84,2.96,4.08,4.9,5.46c6.87,4.85,14.44,5.34,22.31,2.79
			c0.87-0.28,1.72-0.63,2.6-0.84c2.07-0.5,4.03,0.42,4.95,2.25c0.93,1.84,0.51,4.36-1.46,5.37c-2.33,1.2-4.92,1.97-7.48,2.6
			c-1.66,0.41-2.79,0.89-3.6,2.6c-1.86,3.89-4.86,6.84-8.56,9.06c-0.78-0.59-1.58-1.16-2.34-1.77c-4.68-3.78-9.81-6.57-15.97-6.78
			c-6.27-0.21-11.57,2.44-16.41,6.14C92.38,171.69,91.5,172.77,90.52,173.73z"/>
		<path class="st5" d="M114.53,143.99c-3.03,0-6.07,0.01-9.1,0.01c-4.91-1.84-8.78-4.94-11.36-9.55
			c-3.91-6.99-0.73-12.95,6.43-14.93c6.65-1.84,13.44-1.22,20.04,0.19c4.22,0.9,8.12,6.11,6.07,12.26
			c-1.74,5.23-5.18,8.91-10.16,11.19C115.82,143.45,115.17,143.72,114.53,143.99z"/>
		<path class="st5" d="M88.91,108.5c0,6.42-4.9,11.3-11.4,11.35c-6.26,0.05-11.37-5.21-11.38-11.72
			c-0.01-6.31,5.03-11.3,11.47-11.36C83.94,96.72,88.91,101.88,88.91,108.5z"/>
		<path class="st5" d="M153.51,108.48c0.01,6.43-4.87,11.3-11.38,11.37c-6.23,0.08-11.4-5.22-11.39-11.7
			c0-6.33,4.99-11.29,11.45-11.38C148.5,96.7,153.51,101.87,153.51,108.48z"/>
		<path class="st8" d="M90.52,173.73c0.98-0.97,1.87-2.05,2.95-2.88c4.84-3.69,10.13-6.35,16.41-6.14c6.16,0.21,11.29,3,15.97,6.78
			c0.76,0.61,1.56,1.18,2.34,1.77c-3.06,2.99-6.93,4.24-10.98,5.12c-7.73,1.69-15.3,1.27-22.59-1.91
			C93.13,175.84,91.88,174.67,90.52,173.73z"/>
	</g>
</g>
</svg>
