<?xml version="1.0" encoding="utf-8"?>
<!-- Generator: Adobe Illustrator 26.0.3, SVG Export Plug-In . SVG Version: 6.00 Build 0)  -->
<svg version="1.1" id="Calque_1" xmlns="http://www.w3.org/2000/svg" xmlns:xlink="http://www.w3.org/1999/xlink" x="0px" y="0px"
	 viewBox="0 0 220 220" style="enable-background:new 0 0 220 220;" xml:space="preserve">
<style type="text/css">
	.st0{display:none;}
	.st1{display:inline;fill-rule:evenodd;clip-rule:evenodd;fill:#EC5990;stroke:#FFFFFF;stroke-width:17;}
	.st2{display:inline;fill-rule:evenodd;clip-rule:evenodd;fill:#FFFFFF;}
	.st3{fill:#C63D14;}
	.st4{fill:#FFFFFF;}
</style>
<g class="st0">
	<path class="st1" d="M166.56,17.92c10.08,0,19.21,4.09,25.81,10.69s10.69,15.73,10.69,25.81l0,0v111.99
		c0,10.08-4.09,19.21-10.69,25.81c-6.84,6.86-16.13,10.7-25.81,10.69l0,0H53.57c-10.08,0-19.21-4.09-25.81-10.69
		s-10.69-15.73-10.69-25.81l0,0V54.42c0-10.08,4.09-19.21,10.69-25.81c6.84-6.86,16.13-10.7,25.81-10.69l0,0H166.56z"/>
	<path class="st2" d="M143.95,63.02h-20.87c-1.53-4.77-5.98-8-11.01-8s-9.48,3.24-11.01,8H80.18c-8.22,0-14.89,6.63-14.89,14.81
		v77.18c0,8.18,6.67,14.81,14.89,14.81h63.77c8.22,0,14.89-6.63,14.89-14.81V77.83C158.84,69.65,152.17,63.02,143.95,63.02
		L143.95,63.02z M102.11,65.71c0.65,0.02,1.22-0.43,1.35-1.06c0.89-4.05,4.49-6.93,8.65-6.93s7.76,2.88,8.65,6.93
		c0.14,0.63,0.71,1.08,1.35,1.06h7.28v8.82c0,2.23-1.82,4.04-4.06,4.04H98.87c-2.24,0-4.06-1.81-4.06-4.04v-8.82H102.11
		L102.11,65.71z M156.13,155.01c0,6.69-5.45,12.12-12.18,12.12H80.18c-6.73,0-12.18-5.43-12.18-12.12V77.83
		c0-6.69,5.45-12.12,12.18-12.12h11.92v8.82c0,3.72,3.03,6.73,6.77,6.73h26.39c3.74,0,6.77-3.01,6.77-6.73v-8.82h11.92
		c6.73,0,12.18,5.43,12.18,12.12L156.13,155.01L156.13,155.01z M141.3,107.03h-23.82c-0.75,0-1.35,0.6-1.35,1.35l0,0
		c0,0.75,0.61,1.35,1.35,1.35l0,0h23.82c0.75,0,1.35-0.6,1.35-1.35l0,0C142.65,107.63,142.04,107.03,141.3,107.03L141.3,107.03
		L141.3,107.03z M106.11,107.03H82.29c-0.75,0-1.35,0.6-1.35,1.35l0,0c0,0.75,0.61,1.35,1.35,1.35l0,0h23.82
		c0.75,0,1.35-0.6,1.35-1.35l0,0C107.46,107.63,106.86,107.03,106.11,107.03L106.11,107.03
		C106.11,107.03,106.11,107.03,106.11,107.03z M141.37,139.62h-23.89c-0.75,0-1.35,0.6-1.35,1.35l0,0c0,0.75,0.61,1.35,1.35,1.35
		l0,0h23.89c0.75,0,1.35-0.6,1.35-1.35l0,0C142.72,140.22,142.11,139.62,141.37,139.62L141.37,139.62L141.37,139.62L141.37,139.62z
		 M106.18,139.62H82.29c-0.75,0-1.35,0.6-1.35,1.35l0,0c0,0.75,0.61,1.35,1.35,1.35l0,0h23.89c0.75,0,1.35-0.6,1.35-1.35l0,0
		C107.53,140.22,106.92,139.62,106.18,139.62L106.18,139.62C106.18,139.62,106.18,139.62,106.18,139.62z"/>
</g>
<g>
	<path class="st3" d="M197.13,108.32c0-11.31-9.17-20.48-20.48-20.48c-0.73,0-1.44,0.04-2.15,0.11L202.63,5H83.1l28.09,82.88
		c-0.41-0.02-0.83-0.04-1.24-0.04c-11.31,0-20.48,9.17-20.48,20.48c0,9.14,5.99,16.88,14.26,19.51c-4.37,7.57-9.86,14.38-16.1,20.26
		c-8.48,8-18.19,14.07-28.69,17.81c-12.5-6.42-18.41-20.71-13.08-33.23c0.6-1.41,1.22-2.85,1.8-4.28
		c9.06-2.11,15.81-10.23,15.81-19.94c0-11.31-9.17-20.48-20.48-20.48c-11.31,0-20.48,9.17-20.48,20.48c0,6.94,3.45,13.06,8.73,16.76
		c-5.07,11.54-12.52,23.62-14.84,37.61c-2.78,16.78-0.01,34.58,14.5,44.64c33.79,23.42,70.47-14.52,109.14-24.05
		c14.01-3.46,29.4-2.9,41.75-10.05c9.27-5.37,15.39-14.27,17.12-24.26c1.71-9.87-0.79-19.7-6.53-27.67
		C195.34,117.89,197.13,113.31,197.13,108.32L197.13,108.32z M130.42,108.39c0-0.02,0-0.05,0-0.07c0-7.43-3.95-13.93-9.87-17.52
		l22.35-45.2l22.39,45.68c-5.5,3.67-9.12,9.93-9.12,17.04c0,0.15,0.01,0.3,0.01,0.45L130.42,108.39L130.42,108.39z"/>
	<path class="st4" d="M202.13,108.32c0-12.44-8.96-22.82-20.77-25.03L209.6,0H76.12l28.28,83.45
		c-11.39,2.54-19.94,12.72-19.94,24.87c0,9.12,4.82,17.13,12.05,21.64c-3.48,5.18-7.6,10.05-12.32,14.5
		c-7.49,7.07-15.83,12.42-24.83,15.95c-9.06-5.69-12.89-16.42-8.91-25.77l0.31-0.73c0.19-0.46,0.39-0.92,0.58-1.38
		c9.95-3.47,17.11-12.94,17.11-24.06c0-14.05-11.43-25.48-25.48-25.48S17.5,94.42,17.5,108.47c0,7.09,2.91,13.51,7.6,18.14
		c-0.85,1.81-1.74,3.66-2.66,5.54c-4.29,8.81-9.15,18.79-10.99,29.88c-3.65,22.02,2.24,39.62,16.58,49.57
		c8.71,6.03,17.55,8.41,26.44,8.41c16.75,0,33.7-8.42,50.27-16.65c11.94-5.93,24.28-12.06,36.47-15.07c4.54-1.12,9.2-1.79,14.15-2.5
		c9.8-1.41,19.93-2.88,28.91-8.07c10.4-6.03,17.53-16.14,19.54-27.74c1.73-9.96-0.35-19.93-5.43-28.39
		C200.76,117.72,202.13,113.17,202.13,108.32L202.13,108.32z M192.13,108.32c0,8.53-6.94,15.48-15.48,15.48
		c-8.53,0-15.48-6.94-15.48-15.48s6.94-15.48,15.48-15.48C185.19,92.84,192.13,99.79,192.13,108.32L192.13,108.32z M195.65,10
		l-24.94,73.54c-1.08,0.26-2.13,0.59-3.16,0.98l-24.63-50.25l-24.7,49.95c-1.07-0.37-2.17-0.67-3.29-0.89L90.08,10H195.65L195.65,10
		z M109.94,92.84c8.53,0,15.48,6.94,15.48,15.48s-6.94,15.48-15.48,15.48c-8.53,0-15.48-6.94-15.48-15.48S101.41,92.84,109.94,92.84
		L109.94,92.84z M42.98,92.99c8.53,0,15.48,6.94,15.48,15.48s-6.94,15.48-15.48,15.48c-8.53,0-15.48-6.94-15.48-15.48
		S34.45,92.99,42.98,92.99L42.98,92.99z M193.97,148.26c-1.51,8.67-6.86,16.25-14.7,20.79c-7.3,4.23-16.06,5.49-25.33,6.83
		c-4.96,0.72-10.1,1.46-15.11,2.69c-13.26,3.27-26.11,9.65-38.53,15.82c-24.86,12.35-46.33,23.01-66.57,8.98
		c-14.83-10.28-14.14-29.29-12.42-39.71c1.6-9.65,5.93-18.54,10.11-27.14c0.72-1.49,1.43-2.95,2.12-4.39
		c2.08,0.83,4.28,1.4,6.58,1.65c-4.26,14.06,2.44,29.35,16.5,36.58l1.92,0.99l2.04-0.73c11.12-3.96,21.36-10.31,30.45-18.89
		c5.87-5.54,10.92-11.67,15.07-18.22c1.25,0.19,2.52,0.29,3.82,0.29c14.05,0,25.48-11.43,25.48-25.48c0-7.56-3.31-14.35-8.55-19.02
		l16.01-32.38l16.18,33c-4.85,4.64-7.89,11.17-7.89,18.4c0,14.05,11.43,25.48,25.48,25.48c5.4,0,10.41-1.69,14.53-4.57
		C194.04,135.09,195.11,141.69,193.97,148.26L193.97,148.26z"/>
</g>
</svg>
