<?xml version="1.0" encoding="utf-8"?>
<!-- Generator: Adobe Illustrator 26.0.3, SVG Export Plug-In . SVG Version: 6.00 Build 0)  -->
<svg version="1.1" id="Calque_1" xmlns="http://www.w3.org/2000/svg" xmlns:xlink="http://www.w3.org/1999/xlink" x="0px" y="0px"
	 viewBox="0 0 220 220" style="enable-background:new 0 0 220 220;" xml:space="preserve">
<style type="text/css">
	.st0{display:none;}
	.st1{display:inline;fill-rule:evenodd;clip-rule:evenodd;fill:#EC5990;stroke:#FFFFFF;stroke-width:17;}
	.st2{display:inline;fill-rule:evenodd;clip-rule:evenodd;fill:#FFFFFF;}
	.st3{fill-rule:evenodd;clip-rule:evenodd;fill:#23D96C;}
	.st4{fill:#173647;}
	.st5{fill-rule:evenodd;clip-rule:evenodd;fill:#173647;}
</style>
<g class="st0">
	<path class="st1" d="M166.56,17.92c10.08,0,19.21,4.09,25.81,10.69s10.69,15.73,10.69,25.81l0,0v111.99
		c0,10.08-4.09,19.21-10.69,25.81c-6.84,6.86-16.13,10.7-25.81,10.69l0,0H53.57c-10.08,0-19.21-4.09-25.81-10.69
		s-10.69-15.73-10.69-25.81l0,0V54.42c0-10.08,4.09-19.21,10.69-25.81c6.84-6.86,16.13-10.7,25.81-10.69l0,0H166.56z"/>
	<path class="st2" d="M143.95,63.02h-20.87c-1.53-4.77-5.98-8-11.01-8s-9.48,3.24-11.01,8H80.18c-8.22,0-14.89,6.63-14.89,14.81
		v77.18c0,8.18,6.67,14.81,14.89,14.81h63.77c8.22,0,14.89-6.63,14.89-14.81V77.83C158.84,69.65,152.17,63.02,143.95,63.02
		L143.95,63.02z M102.11,65.71c0.65,0.02,1.22-0.43,1.35-1.06c0.89-4.05,4.49-6.93,8.65-6.93s7.76,2.88,8.65,6.93
		c0.14,0.63,0.71,1.08,1.35,1.06h7.28v8.82c0,2.23-1.82,4.04-4.06,4.04H98.87c-2.24,0-4.06-1.81-4.06-4.04v-8.82H102.11
		L102.11,65.71z M156.13,155.01c0,6.69-5.45,12.12-12.18,12.12H80.18c-6.73,0-12.18-5.43-12.18-12.12V77.83
		c0-6.69,5.45-12.12,12.18-12.12h11.92v8.82c0,3.72,3.03,6.73,6.77,6.73h26.39c3.74,0,6.77-3.01,6.77-6.73v-8.82h11.92
		c6.73,0,12.18,5.43,12.18,12.12L156.13,155.01L156.13,155.01z M141.3,107.03h-23.82c-0.75,0-1.35,0.6-1.35,1.35l0,0
		c0,0.75,0.61,1.35,1.35,1.35l0,0h23.82c0.75,0,1.35-0.6,1.35-1.35l0,0C142.65,107.63,142.04,107.03,141.3,107.03L141.3,107.03
		L141.3,107.03z M106.11,107.03H82.29c-0.75,0-1.35,0.6-1.35,1.35l0,0c0,0.75,0.61,1.35,1.35,1.35l0,0h23.82
		c0.75,0,1.35-0.6,1.35-1.35l0,0C107.46,107.63,106.86,107.03,106.11,107.03L106.11,107.03
		C106.11,107.03,106.11,107.03,106.11,107.03z M141.37,139.62h-23.89c-0.75,0-1.35,0.6-1.35,1.35l0,0c0,0.75,0.61,1.35,1.35,1.35
		l0,0h23.89c0.75,0,1.35-0.6,1.35-1.35l0,0C142.72,140.22,142.11,139.62,141.37,139.62L141.37,139.62L141.37,139.62L141.37,139.62z
		 M106.18,139.62H82.29c-0.75,0-1.35,0.6-1.35,1.35l0,0c0,0.75,0.61,1.35,1.35,1.35l0,0h23.89c0.75,0,1.35-0.6,1.35-1.35l0,0
		C107.53,140.22,106.92,139.62,106.18,139.62L106.18,139.62C106.18,139.62,106.18,139.62,106.18,139.62z"/>
</g>
<g id="Group_1674" transform="translate(-2479.835 -1961.668)">
	<g id="Group_1673" transform="translate(2479.835 1961.668)">
		<path id="Path_1632" class="st3" d="M155.27,22.14c-1.6-0.97-3.24-1.87-4.92-2.72c-1.71-0.84-3.48-1.66-5.27-2.38
			c-0.57-0.24-1.12-0.46-1.69-0.68c-1.56-0.59-3.14-1.23-4.75-1.7C91.93-0.63,41.69,24.83,26.39,71.52
			c-15.29,46.69,10.16,96.94,56.86,112.23c3.51,1.15,7.08,2.08,10.71,2.78v25.48c53.26-8.03,100.42-50.31,103.94-105.81
			C200.02,72.81,183.36,38.71,155.27,22.14z"/>
		<path id="Path_1633" class="st4" d="M89.16,217.6v-27.18C38.8,178.41,7.7,127.85,19.7,77.48C29.77,35.24,67.52,5.44,110.95,5.47
			c9.91-0.02,19.76,1.55,29.18,4.65c1.26,0.37,2.57,0.86,3.83,1.35l1.1,0.42c0.75,0.29,1.32,0.52,1.89,0.76
			c1.59,0.63,3.37,1.43,5.51,2.49c1.81,0.91,3.56,1.88,5.26,2.9c29.16,17.21,47.23,52.76,44.96,88.49
			c-3.49,54.97-48.9,101.34-108.01,110.25L89.16,217.6z M111.07,15.05h-0.12c-46.48-0.02-84.18,37.65-84.19,84.14
			c-0.01,40.31,28.55,74.97,68.12,82.65l3.87,0.76v23.73c51.96-10.19,91.27-51.63,94.36-100.42c2.04-32.22-14.14-64.22-40.28-79.63
			l-0.04-0.03c-1.49-0.88-3.04-1.75-4.6-2.54c-1.88-0.92-3.44-1.63-4.88-2.2c-0.59-0.25-1.08-0.44-1.57-0.63l-1.2-0.45
			c-1.14-0.43-2.22-0.85-3.26-1.15C128.83,16.48,119.97,15.06,111.07,15.05z"/>
	</g>
	<path id="Path_1634" class="st5" d="M2573.01,2015.76c2.72-0.34,5.43,0.71,7.22,2.78c1.37,1.5,2.49,3.2,3.32,5.05
		c2.95,6.48,4.68,15.79,1.05,21c-7.74-1.98-14.31-7.08-18.16-14.08c-0.96-1.9-1.5-3.98-1.59-6.11
		C2564.98,2019.87,2568.49,2016.15,2573.01,2015.76z"/>
	<path id="Path_1635" class="st5" d="M2551.63,2037.89c0.49-0.04,0.98-0.04,1.47,0c2.27,0.04,4.51,0.54,6.57,1.47
		c6.55,2.8,13.85,9.66,15.26,15.74c-5.61,3.74-15.73,3.43-22.28,0.63c-1.95-0.95-3.81-2.07-5.55-3.36
		c-3.55-2.68-4.26-7.73-1.58-11.28C2546.98,2039.17,2549.22,2037.99,2551.63,2037.89z"/>
	<path id="Path_1636" class="st5" d="M2559.66,2084.66c-2.05,0.98-4.3,1.48-6.57,1.47c-4.55,0.53-8.66-2.72-9.2-7.27
		c-0.32-2.71,0.72-5.4,2.77-7.19c1.6-1.49,3.49-2.64,5.56-3.37c2.41-1.02,4.99-1.57,7.6-1.61c4.26-0.08,11.57-1.03,15.11,1.33
		C2573.98,2074.1,2566.2,2081.86,2559.66,2084.66z"/>
	<path id="Path_1637" class="st5" d="M2586.64,2099.71c-0.89,1.95-1.97,3.81-3.21,5.56c-4.68,6.08-15.52,1.81-15.06-6.14
		c0.04-2.08,0.55-4.13,1.47-5.99c2.8-6.55,10.43-14.59,16.98-15.99C2590.56,2082.76,2589.45,2093.64,2586.64,2099.71z"/>
	<path id="Path_1638" class="st5" d="M2598.09,2023.43c0.89-1.95,1.97-3.81,3.22-5.56c1.8-2.13,4.54-3.23,7.31-2.92
		c4.68,0.3,8.29,4.23,8.18,8.91c-0.04,2.13-0.55,4.22-1.47,6.14c-3.3,7-9.43,12.25-16.86,14.43
		C2594.28,2039.31,2595.29,2029.97,2598.09,2023.43z"/>
	<path id="Path_1639" class="st5" d="M2602.19,2105.27c-1.34-1.52-2.42-3.25-3.21-5.12c-2.8-6.55-2.71-16.34,1.03-21.49
		c6.55,1.41,13.41,8.37,16.2,14.91c0.93,1.92,1.43,4.01,1.47,6.14C2618.15,2106.73,2607.33,2110.88,2602.19,2105.27z"/>
	<path id="Path_1640" class="st5" d="M2630.84,2085.69c-2.27-0.04-4.51-0.54-6.57-1.47c-6.55-2.8-13.72-9.36-15.12-15.44
		c3.6-2.36,10.24-2.61,14.54-2.53c2.61,0.04,5.19,0.59,7.6,1.61c1.95,0.89,3.81,1.97,5.55,3.21
		C2643.37,2075.75,2639.25,2086.15,2630.84,2085.69z"/>
</g>
</svg>
