<svg version="1.1" id="Calque_1" xmlns="http://www.w3.org/2000/svg" xmlns:xlink="http://www.w3.org/1999/xlink" x="0px" y="0px"
	 viewBox="0 0 220 220" style="enable-background:new 0 0 220 220;" xml:space="preserve">
<style type="text/css">
	.st0{fill:#7A1818;}
	.st1{fill:#FF6A33;}
</style>
<path class="st0" d="M32.26,203.29c-8.15,0-15.8-3.17-21.55-8.91c-5.75-5.72-8.92-13.38-8.92-21.53l0.12-2.33L14.03,55.66
	c1.37-12.95,7.69-24.58,17.81-32.76c10.13-8.19,22.82-11.94,35.78-10.57c11.98,1.26,23.02,6.9,31.08,15.86l84.36,93.69
	c8.7,9.67,13.12,22.16,12.43,35.15c-0.67,12.97-6.37,24.93-16.05,33.64c-8.95,8.06-20.52,12.51-32.57,12.52L32.26,203.29z
	 M62.46,56.47c-1.23,0-2.13,0.5-2.69,0.96c-0.62,0.51-1.42,1.43-1.57,2.9l-10.4,98.53l99.04-0.08c1.07,0,2.09-0.39,2.88-1.11
	c1.1-0.99,1.38-2.16,1.42-2.97c0.05-0.83-0.11-2.03-1.1-3.12L65.68,57.9c-0.71-0.8-1.68-1.29-2.74-1.4
	C62.78,56.48,62.61,56.47,62.46,56.47z"/>
<path class="st1" d="M171.36,218.06c-1.09,0-2.18-0.06-3.28-0.17c-7.47-0.8-14.36-4.31-19.39-9.88L9.46,53.37
	c-5.44-6.04-8.2-13.85-7.78-21.97c0.43-8.14,4-15.62,10.06-21.06c5.54-5,12.75-7.78,20.29-7.8l155.65-0.13
	c8.15,0,15.8,3.17,21.55,8.92c5.75,5.72,8.92,13.38,8.92,21.53l-0.12,2.33L201.58,190.8c-0.84,8.06-4.79,15.33-11.11,20.46
	C184.97,215.7,178.29,218.06,171.36,218.06z M157.42,186.14c0,0.01,0,0.02,0,0.03V186.14z M63.41,46.92l97.3,108.07l11.43-108.15
	L63.41,46.92z"/>
</svg>
