<?xml version="1.0" encoding="utf-8"?>
<!-- Generator: Adobe Illustrator 26.0.3, SVG Export Plug-In . SVG Version: 6.00 Build 0)  -->
<svg version="1.1" id="Calque_1" xmlns="http://www.w3.org/2000/svg" xmlns:xlink="http://www.w3.org/1999/xlink" x="0px" y="0px"
	 viewBox="0 0 256 256" style="enable-background:new 0 0 256 256;" xml:space="preserve">
<style type="text/css">
	.st0{fill:#56B3B4;}
	.st1{fill:#EA5E5E;}
	.st2{fill:#BF85BF;}
	.st3{fill:#F7BA3E;}
	.st4{opacity:0.5;fill:#D0D4D8;enable-background:new    ;}
</style>
<rect width="256" height="256"/>
<g>
	<path class="st0" d="M187.86,48.76h14.38c2.76,0,5,2.24,5,5v2.19c0,2.76-2.24,5-5,5h-14.38c-2.76,0-5-2.24-5-5v-2.19
		C182.86,51,185.1,48.76,187.86,48.76z"/>
	<path class="st1" d="M5,243.81h63.14c2.76,0,5,2.24,5,5V251c0,2.76-2.24,5-5,5H5c-2.76,0-5-2.24-5-5v-2.19
		C0,246.05,2.24,243.81,5,243.81z"/>
	<path class="st2" d="M151.29,146.29h38.76c2.76,0,5,2.24,5,5v2.19c0,2.76-2.24,5-5,5h-38.76c-2.76,0-5-2.24-5-5v-2.19
		C146.29,148.52,148.52,146.29,151.29,146.29z"/>
	<path class="st1" d="M78.14,146.29h50.95c2.76,0,5,2.24,5,5v2.19c0,2.76-2.24,5-5,5H78.14c-2.76,0-5-2.24-5-5v-2.19
		C73.14,148.52,75.38,146.29,78.14,146.29z"/>
	<path class="st0" d="M5,146.29h50.95c2.76,0,5,2.24,5,5v2.19c0,2.76-2.24,5-5,5H5c-2.76,0-5-2.24-5-5v-2.19
		C0,148.52,2.24,146.29,5,146.29z"/>
	<path class="st2" d="M5,195.05h63.14c2.76,0,5,2.24,5,5v2.19c0,2.76-2.24,5-5,5H5c-2.76,0-5-2.24-5-5v-2.19
		C0,197.29,2.24,195.05,5,195.05z"/>
	<path class="st2" d="M5,97.52h63.14c2.76,0,5,2.24,5,5v2.19c0,2.76-2.24,5-5,5H5c-2.76,0-5-2.24-5-5v-2.19
		C0,99.76,2.24,97.52,5,97.52z"/>
	<path class="st3" d="M65.95,24.38h124.1c2.76,0,5,2.24,5,5v2.19c0,2.76-2.24,5-5,5H65.95c-2.76,0-5-2.24-5-5v-2.19
		C60.95,26.62,63.19,24.38,65.95,24.38z"/>
	<path class="st1" d="M5,24.38h38.76c2.76,0,5,2.24,5,5v2.19c0,2.76-2.24,5-5,5H5c-2.76,0-5-2.24-5-5v-2.19
		C0,26.62,2.24,24.38,5,24.38z"/>
	<path class="st3" d="M53.76,219.43h14.38c2.76,0,5,2.24,5,5v2.19c0,2.76-2.24,5-5,5H53.76c-2.76,0-5-2.24-5-5v-2.19
		C48.76,221.67,51,219.43,53.76,219.43z"/>
	<path class="st0" d="M53.76,73.14h14.38c2.76,0,5,2.24,5,5v2.19c0,2.76-2.24,5-5,5H53.76c-2.76,0-5-2.24-5-5v-2.19
		C48.76,75.38,51,73.14,53.76,73.14z"/>
	<path class="st0" d="M5,219.43h26.57c2.76,0,5,2.24,5,5v2.19c0,2.76-2.24,5-5,5H5c-2.76,0-5-2.24-5-5v-2.19
		C0,221.67,2.24,219.43,5,219.43z"/>
	<path class="st3" d="M5,73.14h26.57c2.76,0,5,2.24,5,5v2.19c0,2.76-2.24,5-5,5H5c-2.76,0-5-2.24-5-5v-2.19
		C0,75.38,2.24,73.14,5,73.14z"/>
	<path class="st4" d="M163.48,219.43h14.38c2.76,0,5,2.24,5,5v2.19c0,2.76-2.24,5-5,5h-14.38c-2.76,0-5-2.24-5-5v-2.19
		C158.48,221.67,160.71,219.43,163.48,219.43z"/>
	<path class="st4" d="M90.33,219.43h50.95c2.76,0,5,2.24,5,5v2.19c0,2.76-2.24,5-5,5H90.33c-2.76,0-5-2.24-5-5v-2.19
		C85.33,221.67,87.57,219.43,90.33,219.43z"/>
	<path class="st4" d="M200.05,219.43H251c2.76,0,5,2.24,5,5v2.19c0,2.76-2.24,5-5,5h-50.95c-2.76,0-5-2.24-5-5v-2.19
		C195.05,221.67,197.29,219.43,200.05,219.43z"/>
	<path class="st0" d="M102.52,121.9h99.71c2.76,0,5,2.24,5,5v2.19c0,2.76-2.24,5-5,5h-99.71c-2.76,0-5-2.24-5-5v-2.19
		C97.52,124.14,99.76,121.9,102.52,121.9z"/>
	<path class="st3" d="M41.57,121.9h38.76c2.76,0,5,2.24,5,5v2.19c0,2.76-2.24,5-5,5H41.57c-2.76,0-5-2.24-5-5v-2.19
		C36.57,124.14,38.81,121.9,41.57,121.9z"/>
	<path class="st1" d="M5,121.9h14.38c2.76,0,5,2.24,5,5v2.19c0,2.76-2.24,5-5,5H5c-2.76,0-5-2.24-5-5v-2.19
		C0,124.14,2.24,121.9,5,121.9z"/>
	<path class="st2" d="M114.71,48.76h50.95c2.76,0,5,2.24,5,5v2.19c0,2.76-2.24,5-5,5h-50.95c-2.76,0-5-2.24-5-5v-2.19
		C109.71,51,111.95,48.76,114.71,48.76z"/>
	<path class="st0" d="M5,48.76h87.52c2.76,0,5,2.24,5,5v2.19c0,2.76-2.24,5-5,5H5c-2.76,0-5-2.24-5-5v-2.19C0,51,2.24,48.76,5,48.76
		z"/>
	<path class="st3" d="M41.57,170.67h111.9c2.76,0,5,2.24,5,5v2.19c0,2.76-2.24,5-5,5H41.57c-2.76,0-5-2.24-5-5v-2.19
		C36.57,172.91,38.81,170.67,41.57,170.67z"/>
	<path class="st2" d="M5,170.67h14.38c2.76,0,5,2.24,5,5v2.19c0,2.76-2.24,5-5,5H5c-2.76,0-5-2.24-5-5v-2.19
		C0,172.91,2.24,170.67,5,170.67z"/>
	<path class="st1" d="M151.29,73.14h63.14c2.76,0,5,2.24,5,5v2.19c0,2.76-2.24,5-5,5h-63.14c-2.76,0-5-2.24-5-5v-2.19
		C146.29,75.38,148.52,73.14,151.29,73.14z"/>
	<path class="st3" d="M151.29,97.52h63.14c2.76,0,5,2.24,5,5v2.19c0,2.76-2.24,5-5,5h-63.14c-2.76,0-5-2.24-5-5v-2.19
		C146.29,99.76,148.52,97.52,151.29,97.52z"/>
	<path class="st0" d="M5,0h148.48c2.76,0,5,2.24,5,5v2.19c0,2.76-2.24,5-5,5H5c-2.76,0-5-2.24-5-5V5C0,2.24,2.24,0,5,0z"/>
	<path class="st4" d="M175.67,0H251c2.76,0,5,2.24,5,5v2.19c0,2.76-2.24,5-5,5h-75.33c-2.76,0-5-2.24-5-5V5
		C170.67,2.24,172.91,0,175.67,0z"/>
	<path class="st4" d="M175.67,170.67h26.57c2.76,0,5,2.24,5,5v2.19c0,2.76-2.24,5-5,5h-26.57c-2.76,0-5-2.24-5-5v-2.19
		C170.67,172.91,172.91,170.67,175.67,170.67z"/>
	<path class="st4" d="M224.43,170.67H251c2.76,0,5,2.24,5,5v2.19c0,2.76-2.24,5-5,5h-26.57c-2.76,0-5-2.24-5-5v-2.19
		C219.43,172.91,221.67,170.67,224.43,170.67z"/>
	<path class="st4" d="M212.24,146.29H251c2.76,0,5,2.24,5,5v2.19c0,2.76-2.24,5-5,5h-38.76c-2.76,0-5-2.24-5-5v-2.19
		C207.24,148.52,209.48,146.29,212.24,146.29z"/>
	<path class="st4" d="M212.24,24.38H251c2.76,0,5,2.24,5,5v2.19c0,2.76-2.24,5-5,5h-38.76c-2.76,0-5-2.24-5-5v-2.19
		C207.24,26.62,209.48,24.38,212.24,24.38z"/>
	<path class="st4" d="M224.43,121.9H251c2.76,0,5,2.24,5,5v2.19c0,2.76-2.24,5-5,5h-26.57c-2.76,0-5-2.24-5-5v-2.19
		C219.43,124.14,221.67,121.9,224.43,121.9z"/>
	<path class="st4" d="M224.43,48.76H251c2.76,0,5,2.24,5,5v2.19c0,2.76-2.24,5-5,5h-26.57c-2.76,0-5-2.24-5-5v-2.19
		C219.43,51,221.67,48.76,224.43,48.76z"/>
	<path class="st4" d="M236.62,73.14H251c2.76,0,5,2.24,5,5v2.19c0,2.76-2.24,5-5,5h-14.38c-2.76,0-5-2.24-5-5v-2.19
		C231.62,75.38,233.86,73.14,236.62,73.14z"/>
	<path class="st4" d="M236.62,97.52H251c2.76,0,5,2.24,5,5v2.19c0,2.76-2.24,5-5,5h-14.38c-2.76,0-5-2.24-5-5v-2.19
		C231.62,99.76,233.86,97.52,236.62,97.52z"/>
	<path class="st4" d="M139.1,195.05H251c2.76,0,5,2.24,5,5v2.19c0,2.76-2.24,5-5,5H139.1c-2.76,0-5-2.24-5-5v-2.19
		C134.1,197.29,136.33,195.05,139.1,195.05z"/>
	<path class="st4" d="M90.33,195.05h26.57c2.76,0,5,2.24,5,5v2.19c0,2.76-2.24,5-5,5H90.33c-2.76,0-5-2.24-5-5v-2.19
		C85.33,197.29,87.57,195.05,90.33,195.05z"/>
	<path class="st4" d="M187.86,243.81H251c2.76,0,5,2.24,5,5V251c0,2.76-2.24,5-5,5h-63.14c-2.76,0-5-2.24-5-5v-2.19
		C182.86,246.05,185.1,243.81,187.86,243.81z"/>
	<path class="st4" d="M90.33,243.81h75.33c2.76,0,5,2.24,5,5V251c0,2.76-2.24,5-5,5H90.33c-2.76,0-5-2.24-5-5v-2.19
		C85.33,246.05,87.57,243.81,90.33,243.81z"/>
	<path class="st4" d="M90.33,73.14h38.76c2.76,0,5,2.24,5,5v2.19c0,2.76-2.24,5-5,5H90.33c-2.76,0-5-2.24-5-5v-2.19
		C85.33,75.38,87.57,73.14,90.33,73.14z"/>
	<path class="st4" d="M90.33,97.52h38.76c2.76,0,5,2.24,5,5v2.19c0,2.76-2.24,5-5,5H90.33c-2.76,0-5-2.24-5-5v-2.19
		C85.33,99.76,87.57,97.52,90.33,97.52z"/>
</g>
</svg>
