<?xml version="1.0" encoding="utf-8"?>
<!-- Generator: Adobe Illustrator 26.0.3, SVG Export Plug-In . SVG Version: 6.00 Build 0)  -->
<svg version="1.1" id="Calque_1" xmlns="http://www.w3.org/2000/svg" xmlns:xlink="http://www.w3.org/1999/xlink" x="0px" y="0px"
	 viewBox="0 0 220 220" style="enable-background:new 0 0 220 220;" xml:space="preserve">
<style type="text/css">
	.st0{fill:#F44250;}
	.st1{fill:#121212;}
</style>
<path class="st0" d="M171,87.51c-6.29-1.98-9.54-1.31-16.14-2.03c-10.2-1.11-14.27-5.1-15.99-15.37
	c-0.97-5.73,0.17-14.12-2.29-19.31c-4.71-9.9-15.74-14.35-26.82-11.81c-9.35,2.14-17.13,11.49-17.57,21.09
	c-0.49,10.95,5.75,20.3,16.47,23.53c5.09,1.54,10.5,2.31,15.82,2.7c9.75,0.71,10.5,6.13,13.14,10.59c1.66,2.81,3.27,5.59,3.27,13.97
	s-1.62,11.16-3.27,13.97c-2.64,4.45-5.89,7.37-15.65,8.09c-5.32,0.39-10.74,1.16-15.82,2.7c-10.72,3.24-16.96,12.57-16.47,23.53
	c0.43,9.59,8.21,18.94,17.57,21.09c11.08,2.55,22.1-1.91,26.81-11.81c2.47-5.19,3.83-11.08,4.79-16.81
	c1.73-10.26,5.8-14.25,15.99-15.37c6.6-0.72,13.43,0,19.62-3.51c6.54-4.78,12.38-11.94,12.38-21.88
	C186.85,100.94,180.56,90.52,171,87.51z"/>
<path class="st1" d="M66.3,134.15c-12.86,0-23.36-10.51-23.36-23.4s10.49-23.4,23.36-23.4s23.36,10.51,23.36,23.4
	C89.66,123.63,79.15,134.15,66.3,134.15z"/>
<path class="st1" d="M23.27,181.71C10.43,181.68-0.03,171.12,0,158.23c0.03-12.88,10.56-23.36,23.44-23.32
	c12.85,0.03,23.31,10.58,23.27,23.48C46.68,171.26,36.15,181.74,23.27,181.71z"/>
<path class="st1" d="M196.82,181.71c-12.88,0.07-23.46-10.37-23.53-23.22c-0.07-12.91,10.35-23.5,23.18-23.57
	c12.88-0.07,23.46,10.37,23.53,23.22C220.07,171.03,209.65,181.64,196.82,181.71z"/>
</svg>
