<?xml version="1.0" encoding="utf-8"?>
<!-- Generator: Adobe Illustrator 26.0.3, SVG Export Plug-In . SVG Version: 6.00 Build 0)  -->
<svg version="1.1" id="Calque_1" xmlns="http://www.w3.org/2000/svg" xmlns:xlink="http://www.w3.org/1999/xlink" x="0px" y="0px"
	 viewBox="0 0 180 180" style="enable-background:new 0 0 180 180;" xml:space="preserve">
<style type="text/css">
	.st0{fill:#1177BD;}
</style>
<path class="st0" d="M35.77,94.77v0.66c-0.15,5.28-2.58,9.99-6.36,13.19c0,0-0.27,0.27-0.87,0.69l-0.03-14.3
	c0.06-5.7-1.95-7.86-3.84-9.36c-2.04-1.62-5.4-2.04-7.05-2.04c-3.24,0-6,1.11-8.16,3.3c-2.16,2.19-3.27,4.95-3.27,8.22
	c0,3.21,1.08,5.94,3.21,8.13c2.13,2.19,4.83,3.3,8.01,3.3c1.71,0,3.03-0.27,4.5-0.9c0.33-0.15,0.63-0.36,0.93-0.57v7.08
	c-0.06,0-0.09,0.03-0.15,0.03c-1.53,0.42-3.12,0.66-4.8,0.66c-9.87,0-17.9-8.04-17.9-17.87c0-9.87,8.04-17.9,17.9-17.9
	c3.22,0,6.38,0.87,9.15,2.52V61.58h8.73V94.77 M11.1,95.04c0,3.54,2.85,6.39,6.39,6.39s6.39-2.85,6.39-6.39
	c0-3.54-2.85-6.39-6.39-6.39S11.1,91.53,11.1,95.04 M73.05,100.5l-0.24,0.54c-1.53,3.69-3.75,6.57-6.57,8.58
	c-2.85,2.01-6.15,3.03-9.87,3.03c-4.92,0-9.15-1.77-12.56-5.28c-3.36-3.48-5.1-7.74-5.1-12.62c0-5.1,1.68-9.42,5.04-12.77
	c3.33-3.36,7.65-5.07,12.8-5.07c5.07,0,9.3,1.8,12.53,5.31c3.21,3.48,4.83,8.04,4.83,13.55v1.74H45.97c0.42,2.31,1.44,4.17,3.03,5.7
	c1.95,1.83,4.35,2.73,7.29,2.73c2.07,0,3.9-0.51,5.55-1.59c1.44-0.93,2.61-2.22,3.48-3.81h7.74L73.05,100.5z M49.24,86.02
	c-1.47,1.32-2.49,3-3.03,5.1h19.91c-0.72-2.28-1.8-4.05-3.24-5.28c-1.77-1.53-4.02-2.28-6.96-2.28
	C53.29,83.56,51.07,84.37,49.24,86.02 M111.04,124.16V125h-7.35v-16.19c-0.75,0.99-1.77,1.92-3,2.46c-2.25,0.99-4.32,1.41-6.96,1.41
	c-4.95,0-9.12-1.74-12.44-5.13c-3.3-3.39-4.95-7.62-4.95-12.59c0-5.04,1.71-9.33,5.07-12.71c3.36-3.42,7.62-5.13,12.65-5.13
	c2.58,0,7.74,0.69,10.92,3.18c2.91,2.31,6.06,5.67,5.94,14.51l0.06,24.26v2.19L111.04,124.16L111.04,124.16z M93.71,105.84
	c5.97,0,10.8-4.95,10.8-11.07c0-6.09-4.83-11.04-10.8-11.04c-5.97,0-10.8,4.95-10.8,11.04C82.91,100.89,87.74,105.84,93.71,105.84
	 M135.63,94.56c0,2.64-0.09,4.5-0.3,5.49c-0.18,0.93-0.45,1.77-0.84,2.4c-0.69,1.17-1.59,2.01-2.73,2.64
	c-1.14,0.6-2.49,0.93-4.05,0.93c-2.7,0-4.56-0.69-5.64-2.1c-1.17-1.5-1.77-4.23-1.77-8.13V77.8h-6.87v17.72
	c0,6.03,1.08,10.29,3.3,13.01c2.25,2.76,5.91,4.17,10.83,4.17c2.31,0,4.32-0.39,6-1.11c0.69-0.3,1.38-0.69,2.01-1.17v1.41h6.87
	V77.77h-6.81V94.56z M179.05,100.5l-0.24,0.54c-1.53,3.69-3.75,6.57-6.57,8.58c-2.85,2.01-6.15,3.03-9.87,3.03
	c-4.92,0-9.15-1.77-12.56-5.28c-3.39-3.48-5.13-7.74-5.13-12.65c0-5.1,1.68-9.42,5.04-12.77c3.33-3.36,7.65-5.07,12.8-5.07
	c5.07,0,9.3,1.8,12.53,5.31c3.21,3.48,4.83,8.04,4.83,13.55v1.74h-27.95c0.42,2.31,1.44,4.17,3.03,5.7
	c1.95,1.83,4.35,2.73,7.29,2.73c2.07,0,3.9-0.51,5.55-1.59c1.44-0.93,2.58-2.22,3.48-3.81H179.05L179.05,100.5z M155.27,86.02
	c-1.47,1.32-2.49,3-3.06,5.1h19.91c-0.72-2.28-1.8-4.05-3.24-5.28c-1.77-1.53-4.05-2.28-6.96-2.28
	C159.29,83.56,157.1,84.37,155.27,86.02"/>
</svg>
