<?xml version="1.0" encoding="utf-8"?>
<!-- Generator: Adobe Illustrator 26.0.3, SVG Export Plug-In . SVG Version: 6.00 Build 0)  -->
<svg version="1.1" id="Calque_1" xmlns="http://www.w3.org/2000/svg" xmlns:xlink="http://www.w3.org/1999/xlink" x="0px" y="0px"
	 viewBox="0 0 220 220" style="enable-background:new 0 0 220 220;" xml:space="preserve">
<style type="text/css">
	.st0{fill-rule:evenodd;clip-rule:evenodd;fill:#EC5990;stroke:#FFFFFF;stroke-width:17;}
	.st1{fill-rule:evenodd;clip-rule:evenodd;fill:#FFFFFF;}
</style>
<path class="st0" d="M166.56,17.92c10.08,0,19.21,4.09,25.81,10.69s10.69,15.73,10.69,25.81l0,0v111.99
	c0,10.08-4.09,19.21-10.69,25.81c-6.84,6.86-16.13,10.7-25.81,10.69l0,0H53.57c-10.08,0-19.21-4.09-25.81-10.69
	s-10.69-15.73-10.69-25.81l0,0V54.42c0-10.08,4.09-19.21,10.69-25.81c6.84-6.86,16.13-10.7,25.81-10.69l0,0H166.56z"/>
<path class="st1" d="M143.95,63.02h-20.87c-1.53-4.77-5.98-8-11.01-8s-9.48,3.24-11.01,8H80.18c-8.22,0-14.89,6.63-14.89,14.81
	v77.18c0,8.18,6.67,14.81,14.89,14.81h63.77c8.22,0,14.89-6.63,14.89-14.81V77.83C158.84,69.65,152.17,63.02,143.95,63.02
	L143.95,63.02z M102.11,65.71c0.65,0.02,1.22-0.43,1.35-1.06c0.89-4.05,4.49-6.93,8.65-6.93s7.76,2.88,8.65,6.93
	c0.14,0.63,0.71,1.08,1.35,1.06h7.28v8.82c0,2.23-1.82,4.04-4.06,4.04H98.87c-2.24,0-4.06-1.81-4.06-4.04v-8.82H102.11L102.11,65.71
	z M156.13,155.01c0,6.69-5.45,12.12-12.18,12.12H80.18c-6.73,0-12.18-5.43-12.18-12.12V77.83c0-6.69,5.45-12.12,12.18-12.12h11.92
	v8.82c0,3.72,3.03,6.73,6.77,6.73h26.39c3.74,0,6.77-3.01,6.77-6.73v-8.82h11.92c6.73,0,12.18,5.43,12.18,12.12L156.13,155.01
	L156.13,155.01z M141.3,107.03h-23.82c-0.75,0-1.35,0.6-1.35,1.35l0,0c0,0.75,0.61,1.35,1.35,1.35l0,0h23.82
	c0.75,0,1.35-0.6,1.35-1.35l0,0C142.65,107.63,142.04,107.03,141.3,107.03L141.3,107.03L141.3,107.03z M106.11,107.03H82.29
	c-0.75,0-1.35,0.6-1.35,1.35l0,0c0,0.75,0.61,1.35,1.35,1.35l0,0h23.82c0.75,0,1.35-0.6,1.35-1.35l0,0
	C107.46,107.63,106.86,107.03,106.11,107.03L106.11,107.03C106.11,107.03,106.11,107.03,106.11,107.03z M141.37,139.62h-23.89
	c-0.75,0-1.35,0.6-1.35,1.35l0,0c0,0.75,0.61,1.35,1.35,1.35l0,0h23.89c0.75,0,1.35-0.6,1.35-1.35l0,0
	C142.72,140.22,142.11,139.62,141.37,139.62L141.37,139.62L141.37,139.62L141.37,139.62z M106.18,139.62H82.29
	c-0.75,0-1.35,0.6-1.35,1.35l0,0c0,0.75,0.61,1.35,1.35,1.35l0,0h23.89c0.75,0,1.35-0.6,1.35-1.35l0,0
	C107.53,140.22,106.92,139.62,106.18,139.62L106.18,139.62C106.18,139.62,106.18,139.62,106.18,139.62z"/>
</svg>
