<?xml version="1.0" encoding="utf-8"?>
<!-- Generator: Adobe Illustrator 26.0.3, SVG Export Plug-In . SVG Version: 6.00 Build 0)  -->
<svg version="1.1" id="Calque_1" xmlns="http://www.w3.org/2000/svg" xmlns:xlink="http://www.w3.org/1999/xlink" x="0px" y="0px"
	 viewBox="0 0 220 220" style="enable-background:new 0 0 220 220;" xml:space="preserve">
<style type="text/css">
	.st0{fill:#00435B;}
	.st1{fill:#002B3B;}
	.st2{fill:#FF4154;}
	.st3{fill:#FFD94C;}
</style>
<g>
	<path class="st0" d="M135.14,131.78l-4.2,7.29c-1.27,2.2-3.61,3.55-6.14,3.55H92.61c-2.54,0-4.88-1.35-6.14-3.55l-4.2-7.29H135.14z
		 M146.89,111.36l-7.41,12.86H77.92l-7.41-12.86H146.89z M139.76,91.4l7.15,12.41H70.5l7.15-12.41H139.76z M124.79,72.52
		c2.54,0,4.88,1.35,6.14,3.55l4.47,7.77H82l4.47-7.77c1.27-2.2,3.61-3.55,6.14-3.55H124.79z"/>
	<path class="st1" d="M45.78,69.14c-3.56-17.28-4.33-30.54-2.03-40.17c1.37-5.73,3.88-10.4,7.69-13.77c4.02-3.56,9.11-5.3,14.82-5.3
		c9.43,0,19.33,4.3,29.92,12.46c4.32,3.33,8.8,7.34,13.46,12.05c0.37-0.48,0.79-0.93,1.26-1.34c13.16-11.73,24.24-19.02,33.72-21.83
		c5.64-1.67,10.93-1.83,15.74-0.21c5.09,1.71,9.14,5.25,12,10.21c4.72,8.18,5.96,18.92,4.2,32.19c-0.72,5.41-1.94,11.3-3.67,17.68
		c0.65,0.08,1.31,0.22,1.96,0.44c16.7,5.53,28.52,11.48,35.68,18.29c4.26,4.05,7.04,8.55,8.05,13.54
		c1.06,5.26,0.03,10.54-2.83,15.49c-4.71,8.17-13.37,14.61-25.71,19.71c-4.95,2.05-10.56,3.9-16.82,5.57
		c0.29,0.65,0.51,1.33,0.66,2.05c3.56,17.28,4.33,30.54,2.03,40.17c-1.37,5.73-3.88,10.4-7.69,13.77c-4.02,3.56-9.11,5.3-14.82,5.3
		c-9.43,0-19.33-4.3-29.92-12.46c-4.36-3.37-8.9-7.43-13.61-12.2c-0.48,0.76-1.08,1.46-1.78,2.09
		c-13.16,11.73-24.24,19.02-33.72,21.83c-5.64,1.67-10.93,1.83-15.74,0.21c-5.09-1.71-9.14-5.25-12-10.21
		c-4.72-8.18-5.96-18.92-4.2-32.19c0.74-5.6,2.03-11.73,3.86-18.38c-0.72-0.07-1.44-0.22-2.15-0.46
		c-16.7-5.53-28.52-11.48-35.68-18.29c-4.26-4.05-7.04-8.55-8.05-13.54c-1.06-5.26-0.03-10.54,2.83-15.49
		c4.71-8.17,13.37-14.61,25.71-19.71c5.1-2.11,10.89-4.01,17.38-5.72C46.09,70.35,45.91,69.76,45.78,69.14z"/>
	<path class="st2" d="M162.22,147.9c1.66-0.29,3.25,0.77,3.62,2.4l0.02,0.1l0.18,0.92c5.74,30.18,1.7,45.26-12.13,45.26
		c-13.53,0-30.75-12.87-51.66-38.62c-0.46-0.57-0.71-1.28-0.71-2.01c0.02-1.71,1.39-3.09,3.08-3.12l0.1,0l1.1,0.01
		c8.8,0.05,17.36-0.26,25.67-0.92C141.3,151.13,151.55,149.79,162.22,147.9z M67.27,125.09l0.05,0.09l0.55,0.96
		c4.43,7.7,9.04,15.01,13.84,21.92c5.65,8.14,12.01,16.39,19.07,24.73c1.09,1.29,0.97,3.21-0.26,4.35l-0.08,0.07l-0.71,0.61
		c-23.36,20.01-38.54,24.01-45.54,11.99c-6.86-11.77-4.37-33.17,7.46-64.2c0.26-0.68,0.75-1.25,1.38-1.61
		C64.51,123.16,66.39,123.65,67.27,125.09z M174.08,80.57l0.1,0.03l0.88,0.3c28.83,10.03,39.78,21.05,32.86,33.06
		c-6.77,11.75-26.46,20.31-59.06,25.67c-0.73,0.12-1.47-0.02-2.11-0.39c-1.5-0.88-2-2.81-1.12-4.31
		c4.67-7.94,8.87-15.85,12.62-23.71c4.24-8.92,8.23-18.49,11.95-28.72c0.56-1.55,2.22-2.39,3.79-1.96L174.08,80.57z M72.24,75.52
		c1.5,0.88,2,2.81,1.12,4.31c-4.67,7.94-8.87,15.85-12.62,23.71c-4.24,8.92-8.23,18.49-11.95,28.72c-0.58,1.58-2.29,2.43-3.89,1.93
		l-0.1-0.03l-0.88-0.3C15.1,123.82,4.15,112.8,11.07,100.79c6.77-11.75,26.46-20.31,59.06-25.67C70.85,75,71.6,75.14,72.24,75.52z
		 M164.79,26.12c6.86,11.77,4.37,33.17-7.46,64.2c-0.26,0.68-0.75,1.25-1.38,1.61c-1.48,0.85-3.36,0.36-4.25-1.09l-0.05-0.09
		l-0.55-0.96c-4.43-7.7-9.04-15.01-13.84-21.92c-5.65-8.14-12.01-16.39-19.07-24.73c-1.09-1.29-0.97-3.21,0.26-4.35l0.08-0.07
		l0.71-0.61C142.61,18.09,157.79,14.1,164.79,26.12z M66.25,18.96c13.53,0,30.75,12.87,51.66,38.62c0.46,0.57,0.71,1.28,0.71,2.01
		c-0.02,1.71-1.39,3.09-3.08,3.12l-0.1,0l-1.1-0.01c-8.8-0.05-17.36,0.26-25.67,0.92c-9.81,0.78-20.05,2.12-30.73,4.01
		c-1.66,0.29-3.25-0.77-3.62-2.4l-0.02-0.1l-0.18-0.92C48.38,34.05,52.42,18.96,66.25,18.96z"/>
	<g transform="translate(80.575540, 73.669065)">
		<path class="st3" d="M14.63-0.75h27.01c3.95,0,7.6,2.11,9.56,5.54l13.56,23.63c1.95,3.4,1.95,7.58,0,10.98L51.2,63.03
			c-1.97,3.43-5.61,5.54-9.56,5.54H14.63c-3.95,0-7.6-2.11-9.56-5.54L-8.5,39.39c-1.95-3.4-1.95-7.58,0-10.98L5.06,4.79
			C7.03,1.36,10.68-0.75,14.63-0.75z M37.52,6.38c3.95,0,7.6,2.11,9.57,5.54l9.46,16.5c1.95,3.4,1.95,7.57,0,10.97l-9.46,16.5
			c-1.97,3.43-5.62,5.54-9.57,5.54H18.74c-3.95,0-7.6-2.11-9.57-5.54l-9.46-16.5c-1.95-3.4-1.95-7.57,0-10.97l9.46-16.5
			c1.97-3.43,5.62-5.54,9.57-5.54H37.52z M33.08,14.18h-9.9c-3.95,0-7.59,2.11-9.56,5.53l0,0l-5,8.7c-1.95,3.4-1.95,7.59,0,10.99
			l0,0l5,8.7c1.97,3.42,5.61,5.53,9.56,5.53l0,0h9.9c3.95,0,7.59-2.11,9.56-5.53l0,0l5-8.7c1.95-3.4,1.95-7.59,0-10.99l0,0l-5-8.7
			C40.68,16.29,37.03,14.18,33.08,14.18L33.08,14.18z M28.81,21.65c3.95,0,7.59,2.11,9.56,5.53l0.71,1.23c1.96,3.41,1.96,7.6,0,11
			l-0.71,1.23c-1.97,3.42-5.61,5.53-9.56,5.53h-1.36c-3.95,0-7.59-2.11-9.56-5.53l-0.71-1.23c-1.96-3.41-1.96-7.6,0-11l0.71-1.23
			c1.97-3.42,5.61-5.53,9.56-5.53H28.81z M28.13,29c-1.76,0-3.38,0.93-4.25,2.45c-0.88,1.52-0.88,3.39,0,4.9
			c0.88,1.52,2.5,2.45,4.25,2.45l0,0c1.76,0,3.38-0.93,4.25-2.45c0.88-1.52,0.88-3.39,0-4.9C31.5,29.94,29.88,29,28.13,29L28.13,29z
			 M-11.65,33.91h8.83"/>
	</g>
</g>
</svg>
