<?xml version="1.0" encoding="utf-8"?>
<!-- Generator: Adobe Illustrator 26.0.3, SVG Export Plug-In . SVG Version: 6.00 Build 0)  -->
<svg version="1.1" id="Calque_1" xmlns="http://www.w3.org/2000/svg" xmlns:xlink="http://www.w3.org/1999/xlink" x="0px" y="0px"
	 viewBox="0 0 220 220" style="enable-background:new 0 0 220 220;" xml:space="preserve">
<style type="text/css">
	.st0{display:none;}
	.st1{display:inline;fill-rule:evenodd;clip-rule:evenodd;fill:#EC5990;stroke:#FFFFFF;stroke-width:17;}
	.st2{display:inline;fill-rule:evenodd;clip-rule:evenodd;fill:#FFFFFF;}
	.st3{fill:#FFFFFF;}
	.st4{fill:#53C1DE;}
</style>
<g class="st0">
	<path class="st1" d="M166.56,17.92c10.08,0,19.21,4.09,25.81,10.69s10.69,15.73,10.69,25.81l0,0v111.99
		c0,10.08-4.09,19.21-10.69,25.81c-6.84,6.86-16.13,10.7-25.81,10.69l0,0H53.57c-10.08,0-19.21-4.09-25.81-10.69
		s-10.69-15.73-10.69-25.81l0,0V54.42c0-10.08,4.09-19.21,10.69-25.81c6.84-6.86,16.13-10.7,25.81-10.69l0,0H166.56z"/>
	<path class="st2" d="M143.95,63.02h-20.87c-1.53-4.77-5.98-8-11.01-8s-9.48,3.24-11.01,8H80.18c-8.22,0-14.89,6.63-14.89,14.81
		v77.18c0,8.18,6.67,14.81,14.89,14.81h63.77c8.22,0,14.89-6.63,14.89-14.81V77.83C158.84,69.65,152.17,63.02,143.95,63.02
		L143.95,63.02z M102.11,65.71c0.65,0.02,1.22-0.43,1.35-1.06c0.89-4.05,4.49-6.93,8.65-6.93s7.76,2.88,8.65,6.93
		c0.14,0.63,0.71,1.08,1.35,1.06h7.28v8.82c0,2.23-1.82,4.04-4.06,4.04H98.87c-2.24,0-4.06-1.81-4.06-4.04v-8.82H102.11
		L102.11,65.71z M156.13,155.01c0,6.69-5.45,12.12-12.18,12.12H80.18c-6.73,0-12.18-5.43-12.18-12.12V77.83
		c0-6.69,5.45-12.12,12.18-12.12h11.92v8.82c0,3.72,3.03,6.73,6.77,6.73h26.39c3.74,0,6.77-3.01,6.77-6.73v-8.82h11.92
		c6.73,0,12.18,5.43,12.18,12.12L156.13,155.01L156.13,155.01z M141.3,107.03h-23.82c-0.75,0-1.35,0.6-1.35,1.35l0,0
		c0,0.75,0.61,1.35,1.35,1.35l0,0h23.82c0.75,0,1.35-0.6,1.35-1.35l0,0C142.65,107.63,142.04,107.03,141.3,107.03L141.3,107.03
		L141.3,107.03z M106.11,107.03H82.29c-0.75,0-1.35,0.6-1.35,1.35l0,0c0,0.75,0.61,1.35,1.35,1.35l0,0h23.82
		c0.75,0,1.35-0.6,1.35-1.35l0,0C107.46,107.63,106.86,107.03,106.11,107.03L106.11,107.03
		C106.11,107.03,106.11,107.03,106.11,107.03z M141.37,139.62h-23.89c-0.75,0-1.35,0.6-1.35,1.35l0,0c0,0.75,0.61,1.35,1.35,1.35
		l0,0h23.89c0.75,0,1.35-0.6,1.35-1.35l0,0C142.72,140.22,142.11,139.62,141.37,139.62L141.37,139.62L141.37,139.62L141.37,139.62z
		 M106.18,139.62H82.29c-0.75,0-1.35,0.6-1.35,1.35l0,0c0,0.75,0.61,1.35,1.35,1.35l0,0h23.89c0.75,0,1.35-0.6,1.35-1.35l0,0
		C107.53,140.22,106.92,139.62,106.18,139.62L106.18,139.62C106.18,139.62,106.18,139.62,106.18,139.62z"/>
</g>
<path class="st3" d="M-12.35,109.6c0,18.48,18.04,35.73,46.49,45.45c-5.68,28.6-1.02,51.65,14.56,60.63
	c16.01,9.23,39.86,2.84,62.49-16.95c22.06,18.99,44.37,26.46,59.93,17.45c15.99-9.26,20.86-33.87,15.02-63.37
	c29.63-9.8,46.21-24.51,46.21-43.23c0-18.05-18.08-33.67-46.14-43.33c6.28-30.71,0.96-53.2-15.26-62.56
	c-15.64-9.02-38.2-1.16-60.59,18.33C87.07,1.37,64.73-4.95,48.53,4.43C32.9,13.47,28.45,36.94,34.15,66.07
	C6.66,75.66-12.35,91.63-12.35,109.6z"/>
<path class="st4" d="M180.26,75.87c-2.25-0.78-4.59-1.51-7-2.2c0.4-1.61,0.76-3.21,1.08-4.77c5.3-25.7,1.83-46.41-9.99-53.23
	c-11.34-6.54-29.88,0.28-48.6,16.57c-1.8,1.57-3.61,3.23-5.41,4.96c-1.2-1.15-2.4-2.26-3.6-3.33C87.12,16.45,67.45,9.11,55.64,15.95
	c-11.33,6.56-14.68,26.02-9.91,50.38c0.46,2.35,1,4.76,1.61,7.2c-2.78,0.79-5.47,1.63-8.04,2.53c-23.01,8.02-37.7,20.59-37.7,33.63
	c0,13.47,15.77,26.98,39.74,35.17c1.89,0.65,3.85,1.26,5.88,1.84c-0.66,2.64-1.23,5.23-1.71,7.76c-4.55,23.94-1,42.95,10.3,49.46
	c11.67,6.73,31.25-0.19,50.32-16.85c1.51-1.32,3.02-2.71,4.53-4.18c1.96,1.89,3.92,3.68,5.87,5.36
	c18.47,15.89,36.71,22.31,47.99,15.78c11.66-6.75,15.44-27.17,10.53-52.01c-0.38-1.9-0.81-3.84-1.3-5.81
	c1.38-0.41,2.73-0.83,4.04-1.26c24.91-8.25,41.12-21.6,41.12-35.25C218.9,96.61,203.73,83.95,180.26,75.87L180.26,75.87
	L180.26,75.87z"/>
<path class="st3" d="M174.86,136.13c-1.19,0.39-2.41,0.77-3.65,1.14c-2.75-8.71-6.46-17.96-11-27.53
	c4.33-9.34,7.9-18.48,10.58-27.13c2.22,0.64,4.38,1.32,6.46,2.04c20.11,6.92,32.38,17.16,32.38,25.04
	C209.61,118.09,196.37,129,174.86,136.13L174.86,136.13L174.86,136.13z M165.93,153.81c2.17,10.99,2.49,20.92,1.04,28.68
	c-1.29,6.98-3.9,11.63-7.12,13.49c-6.85,3.96-21.49-1.19-37.29-14.78c-1.81-1.56-3.63-3.22-5.46-4.98
	c6.12-6.7,12.24-14.48,18.22-23.13c10.51-0.93,20.43-2.46,29.43-4.54C165.2,150.34,165.59,152.1,165.93,153.81L165.93,153.81
	L165.93,153.81z M75.67,195.3c-6.69,2.36-12.02,2.43-15.24,0.57c-6.85-3.95-9.7-19.21-5.82-39.69c0.45-2.34,0.98-4.75,1.59-7.21
	c8.9,1.97,18.75,3.38,29.28,4.24c6.01,8.46,12.31,16.24,18.65,23.05c-1.39,1.34-2.77,2.61-4.14,3.81
	C91.57,187.44,83.12,192.67,75.67,195.3L75.67,195.3L75.67,195.3z M44.33,136.08c-10.6-3.62-19.35-8.33-25.35-13.47
	c-5.39-4.62-8.11-9.2-8.11-12.92c0-7.91,11.8-18.01,31.47-24.87c2.39-0.83,4.89-1.62,7.48-2.35c2.72,8.85,6.29,18.09,10.59,27.45
	c-4.36,9.49-7.98,18.89-10.72,27.84C47.84,137.22,46.05,136.66,44.33,136.08L44.33,136.08L44.33,136.08z M54.83,64.55
	c-4.08-20.87-1.37-36.62,5.45-40.57c7.27-4.21,23.35,1.79,40.29,16.84c1.08,0.96,2.17,1.97,3.26,3.01
	c-6.31,6.78-12.55,14.5-18.51,22.91c-10.22,0.95-20,2.47-29,4.51C55.76,68.97,55.26,66.74,54.83,64.55L54.83,64.55L54.83,64.55z
	 M148.57,87.7c-2.15-3.71-4.36-7.34-6.61-10.87c6.93,0.88,13.58,2.04,19.82,3.46c-1.87,6-4.21,12.28-6.96,18.71
	C152.85,95.26,150.77,91.49,148.57,87.7L148.57,87.7L148.57,87.7z M110.35,50.46c4.28,4.64,8.57,9.82,12.79,15.44
	c-4.25-0.2-8.55-0.31-12.89-0.31c-4.3,0-8.57,0.1-12.79,0.3C101.67,60.33,106,55.16,110.35,50.46L110.35,50.46L110.35,50.46z
	 M71.88,87.76c-2.15,3.72-4.19,7.48-6.13,11.24c-2.7-6.41-5.02-12.72-6.91-18.8c6.2-1.39,12.81-2.52,19.7-3.38
	C76.25,80.37,74.03,84.03,71.88,87.76L71.88,87.76L71.88,87.76z M78.74,143.24c-7.12-0.79-13.83-1.87-20.03-3.22
	c1.92-6.2,4.28-12.64,7.04-19.18c1.95,3.76,4,7.51,6.16,11.24h0C74.11,135.88,76.39,139.6,78.74,143.24L78.74,143.24L78.74,143.24z
	 M110.6,169.58c-4.4-4.75-8.79-10-13.07-15.65c4.16,0.16,8.4,0.25,12.71,0.25c4.43,0,8.81-0.1,13.12-0.29
	C119.13,159.64,114.86,164.89,110.6,169.58L110.6,169.58L110.6,169.58z M154.91,120.5c2.9,6.62,5.35,13.03,7.3,19.12
	c-6.3,1.44-13.1,2.6-20.27,3.46c2.26-3.57,4.48-7.26,6.67-11.06C150.82,128.17,152.92,124.33,154.91,120.5L154.91,120.5
	L154.91,120.5z M140.57,127.37c-3.4,5.89-6.88,11.51-10.42,16.82c-6.45,0.46-13.11,0.7-19.9,0.7c-6.76,0-13.34-0.21-19.68-0.62
	c-3.68-5.38-7.25-11.02-10.62-16.85h0c-3.37-5.81-6.46-11.68-9.27-17.51c2.81-5.84,5.9-11.71,9.24-17.52l0,0
	c3.36-5.82,6.89-11.43,10.54-16.77c6.46-0.49,13.09-0.74,19.79-0.74h0c6.73,0,13.36,0.26,19.82,0.75c3.59,5.3,7.1,10.9,10.47,16.72
	c3.41,5.89,6.54,11.72,9.37,17.44C147.08,115.6,143.96,121.49,140.57,127.37L140.57,127.37L140.57,127.37z M159.72,23.71
	c7.28,4.2,10.11,21.12,5.53,43.31c-0.29,1.42-0.62,2.86-0.98,4.32c-9.02-2.08-18.81-3.63-29.06-4.59
	c-5.97-8.5-12.16-16.23-18.37-22.93c1.67-1.61,3.34-3.14,5-4.58C137.89,25.28,152.89,19.77,159.72,23.71L159.72,23.71L159.72,23.71z
	"/>
<path class="st4" d="M110.24,90.29c10.72,0,19.41,8.69,19.41,19.41c0,10.72-8.69,19.41-19.41,19.41s-19.41-8.69-19.41-19.41
	C90.84,98.98,99.53,90.29,110.24,90.29"/>
</svg>
