<?xml version="1.0" encoding="utf-8"?>
<!-- Generator: Adobe Illustrator 26.0.3, SVG Export Plug-In . SVG Version: 6.00 Build 0)  -->
<svg version="1.1" id="Calque_1" xmlns="http://www.w3.org/2000/svg" xmlns:xlink="http://www.w3.org/1999/xlink" x="0px" y="0px"
	 viewBox="0 0 220 220" style="enable-background:new 0 0 220 220;" xml:space="preserve">
<style type="text/css">
	.st0{display:none;}
	.st1{display:inline;fill-rule:evenodd;clip-rule:evenodd;fill:#EC5990;stroke:#FFFFFF;stroke-width:17;}
	.st2{display:inline;fill-rule:evenodd;clip-rule:evenodd;fill:#FFFFFF;}
	.st3{fill:#499CD2;}
	.st4{fill:#070707;}
</style>
<g class="st0">
	<path class="st1" d="M166.56,17.92c10.08,0,19.21,4.09,25.81,10.69s10.69,15.73,10.69,25.81l0,0v111.99
		c0,10.08-4.09,19.21-10.69,25.81c-6.84,6.86-16.13,10.7-25.81,10.69l0,0H53.57c-10.08,0-19.21-4.09-25.81-10.69
		s-10.69-15.73-10.69-25.81l0,0V54.42c0-10.08,4.09-19.21,10.69-25.81c6.84-6.86,16.13-10.7,25.81-10.69l0,0H166.56z"/>
	<path class="st2" d="M143.95,63.02h-20.87c-1.53-4.77-5.98-8-11.01-8s-9.48,3.24-11.01,8H80.18c-8.22,0-14.89,6.63-14.89,14.81
		v77.18c0,8.18,6.67,14.81,14.89,14.81h63.77c8.22,0,14.89-6.63,14.89-14.81V77.83C158.84,69.65,152.17,63.02,143.95,63.02
		L143.95,63.02z M102.11,65.71c0.65,0.02,1.22-0.43,1.35-1.06c0.89-4.05,4.49-6.93,8.65-6.93s7.76,2.88,8.65,6.93
		c0.14,0.63,0.71,1.08,1.35,1.06h7.28v8.82c0,2.23-1.82,4.04-4.06,4.04H98.87c-2.24,0-4.06-1.81-4.06-4.04v-8.82H102.11
		L102.11,65.71z M156.13,155.01c0,6.69-5.45,12.12-12.18,12.12H80.18c-6.73,0-12.18-5.43-12.18-12.12V77.83
		c0-6.69,5.45-12.12,12.18-12.12h11.92v8.82c0,3.72,3.03,6.73,6.77,6.73h26.39c3.74,0,6.77-3.01,6.77-6.73v-8.82h11.92
		c6.73,0,12.18,5.43,12.18,12.12L156.13,155.01L156.13,155.01z M141.3,107.03h-23.82c-0.75,0-1.35,0.6-1.35,1.35l0,0
		c0,0.75,0.61,1.35,1.35,1.35l0,0h23.82c0.75,0,1.35-0.6,1.35-1.35l0,0C142.65,107.63,142.04,107.03,141.3,107.03L141.3,107.03
		L141.3,107.03z M106.11,107.03H82.29c-0.75,0-1.35,0.6-1.35,1.35l0,0c0,0.75,0.61,1.35,1.35,1.35l0,0h23.82
		c0.75,0,1.35-0.6,1.35-1.35l0,0C107.46,107.63,106.86,107.03,106.11,107.03L106.11,107.03
		C106.11,107.03,106.11,107.03,106.11,107.03z M141.37,139.62h-23.89c-0.75,0-1.35,0.6-1.35,1.35l0,0c0,0.75,0.61,1.35,1.35,1.35
		l0,0h23.89c0.75,0,1.35-0.6,1.35-1.35l0,0C142.72,140.22,142.11,139.62,141.37,139.62L141.37,139.62L141.37,139.62L141.37,139.62z
		 M106.18,139.62H82.29c-0.75,0-1.35,0.6-1.35,1.35l0,0c0,0.75,0.61,1.35,1.35,1.35l0,0h23.89c0.75,0,1.35-0.6,1.35-1.35l0,0
		C107.53,140.22,106.92,139.62,106.18,139.62L106.18,139.62C106.18,139.62,106.18,139.62,106.18,139.62z"/>
</g>
<path class="st3" d="M160.03,130.61h-7.55c0-60.78-50.15-110.23-111.79-110.23v-7.55C106.49,12.84,160.03,65.66,160.03,130.61z
	 M165.24,90.07c-9.05-38.13-39.95-69.95-78.69-81.08l1.74-6.05c40.89,11.74,73.5,45.36,83.07,85.67L165.24,90.07z M173.74,54.29
	c-9.34-20.36-25.25-38.11-44.79-49.99l2.61-4.3c20.4,12.4,36.99,30.92,46.74,52.19L173.74,54.29z"/>
<path class="st4" d="M135.53,161.95c-4.18,2.84-9.89,1.75-12.74-2.43s-1.75-9.9,2.43-12.75c4.18-2.84,9.89-1.75,12.74,2.43
	C140.81,153.38,139.72,159.1,135.53,161.95 M141.21,147c-4.06-5.99-12.21-7.53-18.19-3.47c-5.98,4.07-7.54,12.21-3.47,18.19
	c3.6,5.3,10.39,7.11,16.05,4.65l5.07,8.23l4.02-2.73l-5.07-8.23C144,159.28,144.81,152.29,141.21,147 M1.53,165.34
	c1.88,1.02,4.79,1.78,8.04,1.78c7.13,0,10.74-3.41,10.74-8.09c-0.05-3.61-1.99-6.01-6.72-7.64c-3.05-1.02-4.02-1.68-4.02-2.85
	c0-1.22,1.07-1.99,2.95-1.99c2.09,0,4.28,0.81,5.4,1.37l1.32-5.29c-1.53-0.76-4.07-1.48-6.97-1.48c-6.16,0-10.13,3.51-10.13,8.2
	c-0.05,2.9,1.93,5.7,7.13,7.43c2.85,0.92,3.61,1.58,3.61,2.85c0,1.27-0.97,2.04-3.31,2.04c-2.29,0-5.24-0.97-6.67-1.83L1.53,165.34z
	 M34.01,167.17c6.62,0,13.08-4.17,13.08-13.24c0-7.53-5.09-12.78-12.68-12.78c-8.04,0-13.34,5.14-13.34,13.18s5.6,12.83,12.88,12.83
	H34.01z M34.11,161.63c-3.26,0-5.04-3.21-5.04-7.43c0-3.72,1.43-7.48,5.09-7.48c3.51,0,4.94,3.77,4.94,7.43
	c0,4.48-1.88,7.48-4.94,7.48H34.11z M49.33,166.61h7.74v-14.36c0-0.71,0.05-1.43,0.25-1.93c0.56-1.43,1.83-2.9,3.97-2.9
	c2.8,0,3.92,2.19,3.92,5.4v13.8h7.74V151.9c0-7.33-3.82-10.74-8.91-10.74c-4.17,0-6.67,2.39-7.69,4.02h-0.15l-0.36-3.46h-6.72
	c0.1,2.24,0.2,4.84,0.2,7.94V166.61z M97.34,151.9c0-5.85-2.6-10.74-10.89-10.74c-4.53,0-7.94,1.27-9.67,2.24l1.43,4.94
	c1.63-0.97,4.33-1.83,6.87-1.83c3.82,0,4.53,1.88,4.53,3.21v0.31c-8.81,0-14.61,3.05-14.61,9.52c0,3.97,3,7.64,8.04,7.64
	c2.95,0,5.5-1.07,7.13-3.05h0.15l0.46,2.49h6.97c-0.31-1.37-0.41-3.67-0.41-6.01V151.9z M89.86,157.55c0,0.46-0.05,0.92-0.15,1.32
	c-0.51,1.58-2.14,2.85-4.02,2.85c-1.73,0-3.05-0.97-3.05-2.95c0-2.95,3.16-3.92,7.23-3.92V157.55z M100.95,166.61h7.74v-12.57
	c0-0.66,0.05-1.22,0.15-1.73c0.51-2.44,2.44-3.92,5.29-3.92c0.87,0,1.48,0.1,2.09,0.2v-7.28c-0.56-0.1-0.92-0.15-1.63-0.15
	c-2.44,0-5.45,1.53-6.72,5.19h-0.2l-0.31-4.63h-6.62c0.15,2.14,0.2,4.53,0.2,8.2V166.61z M166.74,142.11h-4.48v15.07
	c0,0.87-0.15,1.68-0.41,2.29c-0.81,2.04-2.9,4.12-5.91,4.12c-4.02,0-5.5-3.21-5.5-7.89v-13.59h-4.48v14.41
	c0,8.6,4.63,10.79,8.5,10.79c4.38,0,7.03-2.6,8.15-4.58h0.1l0.25,4.02h3.97c-0.15-1.93-0.2-4.17-0.2-6.77V142.11z M171.62,160.39
	c0,2.19-0.05,4.68-0.2,6.36h3.87l0.25-4.07h0.1c1.88,3.26,4.68,4.63,8.25,4.63c5.5,0,11.1-4.38,11.1-13.24
	c0-7.43-4.28-12.52-10.38-12.52c-3.97,0-6.82,1.73-8.4,4.48h-0.1v-15.42h-4.48V160.39z M176.1,152.45c0-0.71,0.1-1.32,0.25-1.88
	c0.87-3.36,3.72-5.5,6.77-5.5c4.79,0,7.33,4.23,7.33,9.21c0,5.65-2.75,9.47-7.48,9.47c-3.21,0-5.85-2.14-6.72-5.24
	c-0.1-0.51-0.15-1.07-0.15-1.63V152.45z M217.85,155.25c0.1-0.51,0.15-1.17,0.15-2.09c0-4.53-2.09-11.61-10.13-11.61
	c-7.18,0-11.61,5.85-11.61,13.29c0,7.38,4.58,12.42,12.12,12.42c3.92,0,6.67-0.87,8.25-1.58l-0.81-3.21
	c-1.63,0.71-3.61,1.27-6.82,1.27c-4.48,0-8.3-2.49-8.4-8.5H217.85z M200.64,152.04c0.36-3.11,2.29-7.28,6.87-7.28
	c4.99,0,6.21,4.43,6.16,7.28H200.64z"/>
</svg>
