<?xml version="1.0" encoding="utf-8"?>
<!-- Generator: Adobe Illustrator 26.0.3, SVG Export Plug-In . SVG Version: 6.00 Build 0)  -->
<svg version="1.1" id="Calque_1" xmlns="http://www.w3.org/2000/svg" xmlns:xlink="http://www.w3.org/1999/xlink" x="0px" y="0px"
	 viewBox="0 0 220 220" style="enable-background:new 0 0 220 220;" xml:space="preserve">
<style type="text/css">
	.st0{display:none;}
	.st1{display:inline;fill-rule:evenodd;clip-rule:evenodd;fill:#EC5990;stroke:#FFFFFF;stroke-width:17;}
	.st2{display:inline;fill-rule:evenodd;clip-rule:evenodd;fill:#FFFFFF;}
	.st3{fill:#007ACC;}
	.st4{fill:#FFFFFF;}
</style>
<g class="st0">
	<path class="st1" d="M166.56,17.92c10.08,0,19.21,4.09,25.81,10.69s10.69,15.73,10.69,25.81l0,0v111.99
		c0,10.08-4.09,19.21-10.69,25.81c-6.84,6.86-16.13,10.7-25.81,10.69l0,0H53.57c-10.08,0-19.21-4.09-25.81-10.69
		s-10.69-15.73-10.69-25.81l0,0V54.42c0-10.08,4.09-19.21,10.69-25.81c6.84-6.86,16.13-10.7,25.81-10.69l0,0H166.56z"/>
	<path class="st2" d="M143.95,63.02h-20.87c-1.53-4.77-5.98-8-11.01-8s-9.48,3.24-11.01,8H80.18c-8.22,0-14.89,6.63-14.89,14.81
		v77.18c0,8.18,6.67,14.81,14.89,14.81h63.77c8.22,0,14.89-6.63,14.89-14.81V77.83C158.84,69.65,152.17,63.02,143.95,63.02
		L143.95,63.02z M102.11,65.71c0.65,0.02,1.22-0.43,1.35-1.06c0.89-4.05,4.49-6.93,8.65-6.93s7.76,2.88,8.65,6.93
		c0.14,0.63,0.71,1.08,1.35,1.06h7.28v8.82c0,2.23-1.82,4.04-4.06,4.04H98.87c-2.24,0-4.06-1.81-4.06-4.04v-8.82H102.11
		L102.11,65.71z M156.13,155.01c0,6.69-5.45,12.12-12.18,12.12H80.18c-6.73,0-12.18-5.43-12.18-12.12V77.83
		c0-6.69,5.45-12.12,12.18-12.12h11.92v8.82c0,3.72,3.03,6.73,6.77,6.73h26.39c3.74,0,6.77-3.01,6.77-6.73v-8.82h11.92
		c6.73,0,12.18,5.43,12.18,12.12L156.13,155.01L156.13,155.01z M141.3,107.03h-23.82c-0.75,0-1.35,0.6-1.35,1.35l0,0
		c0,0.75,0.61,1.35,1.35,1.35l0,0h23.82c0.75,0,1.35-0.6,1.35-1.35l0,0C142.65,107.63,142.04,107.03,141.3,107.03L141.3,107.03
		L141.3,107.03z M106.11,107.03H82.29c-0.75,0-1.35,0.6-1.35,1.35l0,0c0,0.75,0.61,1.35,1.35,1.35l0,0h23.82
		c0.75,0,1.35-0.6,1.35-1.35l0,0C107.46,107.63,106.86,107.03,106.11,107.03L106.11,107.03
		C106.11,107.03,106.11,107.03,106.11,107.03z M141.37,139.62h-23.89c-0.75,0-1.35,0.6-1.35,1.35l0,0c0,0.75,0.61,1.35,1.35,1.35
		l0,0h23.89c0.75,0,1.35-0.6,1.35-1.35l0,0C142.72,140.22,142.11,139.62,141.37,139.62L141.37,139.62L141.37,139.62L141.37,139.62z
		 M106.18,139.62H82.29c-0.75,0-1.35,0.6-1.35,1.35l0,0c0,0.75,0.61,1.35,1.35,1.35l0,0h23.89c0.75,0,1.35-0.6,1.35-1.35l0,0
		C107.53,140.22,106.92,139.62,106.18,139.62L106.18,139.62C106.18,139.62,106.18,139.62,106.18,139.62z"/>
</g>
<g>
	<polygon class="st3" points="-1,110 -1,221 110,221 221,221 221,110 221,-1 110,-1 -1,-1 	"/>
	<path class="st4" d="M48.09,110.74l-0.07,9.09h14.45h14.45v41.05v41.05h10.22h10.22v-41.05v-41.05h14.45h14.45v-8.92
		c0-4.93-0.11-9.06-0.25-9.16c-0.11-0.14-17.69-0.21-39.01-0.18l-38.8,0.11L48.09,110.74z"/>
	<path class="st4" d="M178.13,101.42c5.64,1.41,9.94,3.91,13.88,8c2.04,2.18,5.07,6.17,5.32,7.12c0.07,0.28-9.58,6.77-15.43,10.4
		c-0.21,0.14-1.06-0.78-2.01-2.18c-2.85-4.16-5.85-5.96-10.43-6.27c-6.73-0.46-11.06,3.07-11.03,8.95c0,1.73,0.25,2.75,0.95,4.16
		c1.48,3.07,4.23,4.9,12.86,8.63c15.89,6.84,22.69,11.35,26.92,17.76c4.72,7.15,5.78,18.57,2.57,27.06
		c-3.52,9.23-12.26,15.5-24.56,17.58c-3.81,0.67-12.83,0.56-16.91-0.18c-8.92-1.59-17.37-5.99-22.59-11.77
		c-2.04-2.26-6.03-8.14-5.78-8.56c0.11-0.14,1.02-0.7,2.04-1.3c0.99-0.56,4.72-2.71,8.25-4.76l6.38-3.7l1.34,1.97
		c1.87,2.85,5.96,6.77,8.42,8.07c7.08,3.74,16.81,3.21,21.6-1.09c2.04-1.87,2.89-3.81,2.89-6.66c0-2.57-0.32-3.7-1.66-5.64
		c-1.73-2.47-5.25-4.55-15.26-8.88c-11.45-4.93-16.39-8-20.9-12.86c-2.61-2.82-5.07-7.33-6.1-11.1c-0.85-3.14-1.06-10.99-0.39-14.17
		c2.36-11.06,10.71-18.78,22.76-21.07C165.2,100.19,174.29,100.47,178.13,101.42z"/>
</g>
</svg>
